<mxfile host="app.diagrams.net" agent="Mozilla/5.0 (Windows NT 10.0; Win64; x64) AppleWebKit/537.36 (KHTML, like Gecko) Chrome/139.0.0.0 Safari/537.36 Edg/139.0.0.0" version="28.1.2" pages="2">
  <diagram name="第 1 页" id="wUBJUy6A1us8tG7ZfpKa">
    <mxGraphModel dx="1418" dy="794" grid="0" gridSize="10" guides="1" tooltips="1" connect="1" arrows="1" fold="1" page="1" pageScale="1" pageWidth="827" pageHeight="1169" math="0" shadow="0">
      <root>
        <mxCell id="0" />
        <mxCell id="1" parent="0" />
        <mxCell id="50IoQkKAGuGp5o5ImXC0-13" style="edgeStyle=orthogonalEdgeStyle;rounded=0;orthogonalLoop=1;jettySize=auto;html=1;exitX=1;exitY=0.25;exitDx=0;exitDy=0;entryX=0;entryY=0.25;entryDx=0;entryDy=0;shape=link;" parent="1" source="Q0QFGYAncJgHpxcKYcBm-2" target="Q0QFGYAncJgHpxcKYcBm-7" edge="1">
          <mxGeometry relative="1" as="geometry" />
        </mxCell>
        <mxCell id="Q0QFGYAncJgHpxcKYcBm-2" value="挖机" style="rounded=1;whiteSpace=wrap;html=1;" parent="1" vertex="1">
          <mxGeometry x="113" y="86" width="120" height="183" as="geometry" />
        </mxCell>
        <mxCell id="50IoQkKAGuGp5o5ImXC0-3" value="" style="rounded=0;whiteSpace=wrap;html=1;dashed=1;" parent="1" vertex="1">
          <mxGeometry x="274" y="324" width="309" height="147" as="geometry" />
        </mxCell>
        <mxCell id="Q0QFGYAncJgHpxcKYcBm-3" value="CAN1" style="rounded=1;whiteSpace=wrap;html=1;" parent="1" vertex="1">
          <mxGeometry x="301" y="346" width="120" height="60" as="geometry" />
        </mxCell>
        <mxCell id="Q0QFGYAncJgHpxcKYcBm-4" value="CAN2" style="rounded=1;whiteSpace=wrap;html=1;" parent="1" vertex="1">
          <mxGeometry x="439" y="346" width="120" height="60" as="geometry" />
        </mxCell>
        <mxCell id="Q0QFGYAncJgHpxcKYcBm-7" value="发动机" style="rounded=1;whiteSpace=wrap;html=1;" parent="1" vertex="1">
          <mxGeometry x="629" y="86" width="127" height="184" as="geometry" />
        </mxCell>
        <mxCell id="50IoQkKAGuGp5o5ImXC0-1" value="" style="endArrow=classic;startArrow=classic;html=1;rounded=0;exitX=1;exitY=0.75;exitDx=0;exitDy=0;" parent="1" source="Q0QFGYAncJgHpxcKYcBm-2" edge="1">
          <mxGeometry width="50" height="50" relative="1" as="geometry">
            <mxPoint x="388" y="434" as="sourcePoint" />
            <mxPoint x="359" y="342" as="targetPoint" />
            <Array as="points">
              <mxPoint x="359" y="226" />
            </Array>
          </mxGeometry>
        </mxCell>
        <mxCell id="50IoQkKAGuGp5o5ImXC0-2" value="" style="endArrow=classic;startArrow=classic;html=1;rounded=0;entryX=0;entryY=0.75;entryDx=0;entryDy=0;exitX=0.5;exitY=0;exitDx=0;exitDy=0;" parent="1" source="Q0QFGYAncJgHpxcKYcBm-4" target="Q0QFGYAncJgHpxcKYcBm-7" edge="1">
          <mxGeometry width="50" height="50" relative="1" as="geometry">
            <mxPoint x="357" y="434" as="sourcePoint" />
            <mxPoint x="407" y="384" as="targetPoint" />
            <Array as="points">
              <mxPoint x="499" y="228" />
            </Array>
          </mxGeometry>
        </mxCell>
        <mxCell id="50IoQkKAGuGp5o5ImXC0-7" value="周立功USBCANII" style="text;html=1;align=center;verticalAlign=middle;resizable=0;points=[];autosize=1;strokeColor=none;fillColor=none;" parent="1" vertex="1">
          <mxGeometry x="368" y="424" width="111" height="26" as="geometry" />
        </mxCell>
        <mxCell id="50IoQkKAGuGp5o5ImXC0-8" value="上位机" style="rounded=0;whiteSpace=wrap;html=1;" parent="1" vertex="1">
          <mxGeometry x="321.5" y="553" width="214" height="83" as="geometry" />
        </mxCell>
        <mxCell id="50IoQkKAGuGp5o5ImXC0-9" value="" style="endArrow=none;html=1;rounded=0;" parent="1" edge="1">
          <mxGeometry width="50" height="50" relative="1" as="geometry">
            <mxPoint x="429" y="550" as="sourcePoint" />
            <mxPoint x="429" y="476" as="targetPoint" />
          </mxGeometry>
        </mxCell>
        <mxCell id="50IoQkKAGuGp5o5ImXC0-15" value="其他信号" style="text;html=1;align=center;verticalAlign=middle;resizable=0;points=[];autosize=1;strokeColor=none;fillColor=none;" parent="1" vertex="1">
          <mxGeometry x="391" y="104" width="66" height="26" as="geometry" />
        </mxCell>
        <mxCell id="50IoQkKAGuGp5o5ImXC0-16" value="CANData" style="text;html=1;align=center;verticalAlign=middle;resizable=0;points=[];autosize=1;strokeColor=none;fillColor=none;" parent="1" vertex="1">
          <mxGeometry x="274" y="198" width="69" height="26" as="geometry" />
        </mxCell>
        <mxCell id="50IoQkKAGuGp5o5ImXC0-17" value="CANData" style="text;html=1;align=center;verticalAlign=middle;resizable=0;points=[];autosize=1;strokeColor=none;fillColor=none;" parent="1" vertex="1">
          <mxGeometry x="523" y="198" width="69" height="26" as="geometry" />
        </mxCell>
      </root>
    </mxGraphModel>
  </diagram>
  <diagram id="7s3SiDv5OUElcK0aVThh" name="第 2 页">
    <mxGraphModel dx="1182" dy="662" grid="1" gridSize="10" guides="1" tooltips="1" connect="1" arrows="1" fold="1" page="1" pageScale="1" pageWidth="827" pageHeight="1169" math="0" shadow="0">
      <root>
        <mxCell id="0" />
        <mxCell id="1" parent="0" />
        <mxCell id="w3cIrV533ZpJRvCEys2s-1" value="U相电流互感器" style="rounded=1;whiteSpace=wrap;html=1;" vertex="1" parent="1">
          <mxGeometry x="62" y="126" width="61" height="125" as="geometry" />
        </mxCell>
        <mxCell id="w3cIrV533ZpJRvCEys2s-2" value="" style="endArrow=none;html=1;rounded=0;" edge="1" parent="1">
          <mxGeometry width="50" height="50" relative="1" as="geometry">
            <mxPoint x="123" y="157" as="sourcePoint" />
            <mxPoint x="290" y="156" as="targetPoint" />
          </mxGeometry>
        </mxCell>
        <mxCell id="w3cIrV533ZpJRvCEys2s-3" value="" style="endArrow=none;html=1;rounded=0;" edge="1" parent="1">
          <mxGeometry width="50" height="50" relative="1" as="geometry">
            <mxPoint x="123" y="215" as="sourcePoint" />
            <mxPoint x="290" y="214" as="targetPoint" />
          </mxGeometry>
        </mxCell>
        <mxCell id="w3cIrV533ZpJRvCEys2s-4" value="V相电流互感器" style="rounded=1;whiteSpace=wrap;html=1;" vertex="1" parent="1">
          <mxGeometry x="62" y="268" width="61" height="125" as="geometry" />
        </mxCell>
        <mxCell id="w3cIrV533ZpJRvCEys2s-5" value="" style="endArrow=none;html=1;rounded=0;" edge="1" parent="1">
          <mxGeometry width="50" height="50" relative="1" as="geometry">
            <mxPoint x="123" y="299" as="sourcePoint" />
            <mxPoint x="290" y="298" as="targetPoint" />
          </mxGeometry>
        </mxCell>
        <mxCell id="w3cIrV533ZpJRvCEys2s-6" value="" style="endArrow=none;html=1;rounded=0;" edge="1" parent="1">
          <mxGeometry width="50" height="50" relative="1" as="geometry">
            <mxPoint x="123" y="357" as="sourcePoint" />
            <mxPoint x="290" y="356" as="targetPoint" />
          </mxGeometry>
        </mxCell>
        <mxCell id="w3cIrV533ZpJRvCEys2s-7" value="端子排" style="rounded=1;whiteSpace=wrap;html=1;" vertex="1" parent="1">
          <mxGeometry x="293" y="120" width="120" height="430" as="geometry" />
        </mxCell>
        <mxCell id="w3cIrV533ZpJRvCEys2s-8" value="" style="rounded=0;whiteSpace=wrap;html=1;" vertex="1" parent="1">
          <mxGeometry x="242" y="170" width="20" height="30" as="geometry" />
        </mxCell>
        <mxCell id="w3cIrV533ZpJRvCEys2s-9" value="" style="endArrow=none;html=1;rounded=0;entryX=0.499;entryY=1.053;entryDx=0;entryDy=0;entryPerimeter=0;" edge="1" parent="1">
          <mxGeometry width="50" height="50" relative="1" as="geometry">
            <mxPoint x="252" y="214" as="sourcePoint" />
            <mxPoint x="251.97999999999996" y="205.59000000000003" as="targetPoint" />
            <Array as="points">
              <mxPoint x="252" y="200" />
            </Array>
          </mxGeometry>
        </mxCell>
        <mxCell id="w3cIrV533ZpJRvCEys2s-10" value="" style="endArrow=none;html=1;rounded=0;entryX=0.499;entryY=1.053;entryDx=0;entryDy=0;entryPerimeter=0;" edge="1" parent="1">
          <mxGeometry width="50" height="50" relative="1" as="geometry">
            <mxPoint x="252" y="170" as="sourcePoint" />
            <mxPoint x="251.97999999999996" y="161.59000000000003" as="targetPoint" />
            <Array as="points">
              <mxPoint x="252" y="156" />
            </Array>
          </mxGeometry>
        </mxCell>
        <mxCell id="w3cIrV533ZpJRvCEys2s-11" value="" style="rounded=0;whiteSpace=wrap;html=1;" vertex="1" parent="1">
          <mxGeometry x="242" y="312" width="20" height="30" as="geometry" />
        </mxCell>
        <mxCell id="w3cIrV533ZpJRvCEys2s-12" value="" style="endArrow=none;html=1;rounded=0;entryX=0.499;entryY=1.053;entryDx=0;entryDy=0;entryPerimeter=0;" edge="1" parent="1">
          <mxGeometry width="50" height="50" relative="1" as="geometry">
            <mxPoint x="252" y="312" as="sourcePoint" />
            <mxPoint x="251.97999999999996" y="303.59000000000003" as="targetPoint" />
            <Array as="points">
              <mxPoint x="252" y="298" />
            </Array>
          </mxGeometry>
        </mxCell>
        <mxCell id="w3cIrV533ZpJRvCEys2s-13" value="" style="endArrow=none;html=1;rounded=0;entryX=0.499;entryY=1.053;entryDx=0;entryDy=0;entryPerimeter=0;" edge="1" parent="1">
          <mxGeometry width="50" height="50" relative="1" as="geometry">
            <mxPoint x="252" y="356" as="sourcePoint" />
            <mxPoint x="251.97999999999996" y="347.59000000000003" as="targetPoint" />
            <Array as="points">
              <mxPoint x="252" y="342" />
            </Array>
          </mxGeometry>
        </mxCell>
        <mxCell id="w3cIrV533ZpJRvCEys2s-14" value="交流电源" style="rounded=1;whiteSpace=wrap;html=1;" vertex="1" parent="1">
          <mxGeometry x="22" y="400" width="101" height="125" as="geometry" />
        </mxCell>
        <mxCell id="w3cIrV533ZpJRvCEys2s-15" value="" style="endArrow=none;html=1;rounded=0;" edge="1" parent="1">
          <mxGeometry width="50" height="50" relative="1" as="geometry">
            <mxPoint x="123" y="421" as="sourcePoint" />
            <mxPoint x="290" y="420" as="targetPoint" />
          </mxGeometry>
        </mxCell>
        <mxCell id="w3cIrV533ZpJRvCEys2s-16" value="" style="endArrow=none;html=1;rounded=0;" edge="1" parent="1">
          <mxGeometry width="50" height="50" relative="1" as="geometry">
            <mxPoint x="123" y="451" as="sourcePoint" />
            <mxPoint x="290" y="450" as="targetPoint" />
          </mxGeometry>
        </mxCell>
        <mxCell id="w3cIrV533ZpJRvCEys2s-17" value="" style="endArrow=none;html=1;rounded=0;" edge="1" parent="1">
          <mxGeometry width="50" height="50" relative="1" as="geometry">
            <mxPoint x="123" y="481" as="sourcePoint" />
            <mxPoint x="290" y="480" as="targetPoint" />
          </mxGeometry>
        </mxCell>
        <mxCell id="w3cIrV533ZpJRvCEys2s-18" value="" style="endArrow=none;html=1;rounded=0;" edge="1" parent="1">
          <mxGeometry width="50" height="50" relative="1" as="geometry">
            <mxPoint x="123" y="511" as="sourcePoint" />
            <mxPoint x="290" y="510" as="targetPoint" />
          </mxGeometry>
        </mxCell>
        <mxCell id="w3cIrV533ZpJRvCEys2s-19" value="50" style="text;html=1;align=center;verticalAlign=middle;resizable=0;points=[];autosize=1;strokeColor=none;fillColor=none;" vertex="1" parent="1">
          <mxGeometry x="293" y="140" width="40" height="30" as="geometry" />
        </mxCell>
        <mxCell id="w3cIrV533ZpJRvCEys2s-20" value="49" style="text;html=1;align=center;verticalAlign=middle;resizable=0;points=[];autosize=1;strokeColor=none;fillColor=none;" vertex="1" parent="1">
          <mxGeometry x="293" y="200" width="40" height="30" as="geometry" />
        </mxCell>
        <mxCell id="w3cIrV533ZpJRvCEys2s-21" value="99" style="text;html=1;align=center;verticalAlign=middle;resizable=0;points=[];autosize=1;strokeColor=none;fillColor=none;" vertex="1" parent="1">
          <mxGeometry x="293" y="283" width="40" height="30" as="geometry" />
        </mxCell>
        <mxCell id="w3cIrV533ZpJRvCEys2s-22" value="98" style="text;html=1;align=center;verticalAlign=middle;resizable=0;points=[];autosize=1;strokeColor=none;fillColor=none;" vertex="1" parent="1">
          <mxGeometry x="293" y="340" width="40" height="30" as="geometry" />
        </mxCell>
        <mxCell id="w3cIrV533ZpJRvCEys2s-24" value="N" style="text;html=1;align=center;verticalAlign=middle;resizable=0;points=[];autosize=1;strokeColor=none;fillColor=none;" vertex="1" parent="1">
          <mxGeometry x="93" y="495" width="30" height="30" as="geometry" />
        </mxCell>
        <mxCell id="w3cIrV533ZpJRvCEys2s-25" value="W" style="text;html=1;align=center;verticalAlign=middle;resizable=0;points=[];autosize=1;strokeColor=none;fillColor=none;" vertex="1" parent="1">
          <mxGeometry x="93" y="467" width="30" height="30" as="geometry" />
        </mxCell>
        <mxCell id="w3cIrV533ZpJRvCEys2s-26" value="V" style="text;html=1;align=center;verticalAlign=middle;resizable=0;points=[];autosize=1;strokeColor=none;fillColor=none;" vertex="1" parent="1">
          <mxGeometry x="93" y="437" width="30" height="30" as="geometry" />
        </mxCell>
        <mxCell id="w3cIrV533ZpJRvCEys2s-27" value="U" style="text;html=1;align=center;verticalAlign=middle;resizable=0;points=[];autosize=1;strokeColor=none;fillColor=none;" vertex="1" parent="1">
          <mxGeometry x="93" y="407" width="30" height="30" as="geometry" />
        </mxCell>
        <mxCell id="w3cIrV533ZpJRvCEys2s-28" value="96" style="text;html=1;align=center;verticalAlign=middle;resizable=0;points=[];autosize=1;strokeColor=none;fillColor=none;" vertex="1" parent="1">
          <mxGeometry x="293" y="406" width="40" height="30" as="geometry" />
        </mxCell>
        <mxCell id="w3cIrV533ZpJRvCEys2s-29" value="45" style="text;html=1;align=center;verticalAlign=middle;resizable=0;points=[];autosize=1;strokeColor=none;fillColor=none;" vertex="1" parent="1">
          <mxGeometry x="293" y="437" width="40" height="30" as="geometry" />
        </mxCell>
        <mxCell id="w3cIrV533ZpJRvCEys2s-30" value="94" style="text;html=1;align=center;verticalAlign=middle;resizable=0;points=[];autosize=1;strokeColor=none;fillColor=none;" vertex="1" parent="1">
          <mxGeometry x="293" y="467" width="40" height="30" as="geometry" />
        </mxCell>
        <mxCell id="w3cIrV533ZpJRvCEys2s-31" value="95、44、93" style="text;html=1;align=center;verticalAlign=middle;resizable=0;points=[];autosize=1;strokeColor=none;fillColor=none;" vertex="1" parent="1">
          <mxGeometry x="292" y="497" width="90" height="30" as="geometry" />
        </mxCell>
        <mxCell id="w3cIrV533ZpJRvCEys2s-32" value="精密绕线电阻" style="text;html=1;align=center;verticalAlign=middle;resizable=0;points=[];autosize=1;strokeColor=none;fillColor=none;" vertex="1" parent="1">
          <mxGeometry x="152" y="170" width="100" height="30" as="geometry" />
        </mxCell>
        <mxCell id="w3cIrV533ZpJRvCEys2s-33" value="精密绕线电阻" style="text;html=1;align=center;verticalAlign=middle;resizable=0;points=[];autosize=1;strokeColor=none;fillColor=none;" vertex="1" parent="1">
          <mxGeometry x="152" y="312" width="100" height="30" as="geometry" />
        </mxCell>
        <mxCell id="w3cIrV533ZpJRvCEys2s-34" value="+" style="text;html=1;align=center;verticalAlign=middle;resizable=0;points=[];autosize=1;strokeColor=none;fillColor=none;" vertex="1" parent="1">
          <mxGeometry x="117" y="135" width="30" height="30" as="geometry" />
        </mxCell>
        <mxCell id="w3cIrV533ZpJRvCEys2s-35" value="+" style="text;html=1;align=center;verticalAlign=middle;resizable=0;points=[];autosize=1;strokeColor=none;fillColor=none;" vertex="1" parent="1">
          <mxGeometry x="117" y="277" width="30" height="30" as="geometry" />
        </mxCell>
        <mxCell id="w3cIrV533ZpJRvCEys2s-36" value="-" style="text;html=1;align=center;verticalAlign=middle;resizable=0;points=[];autosize=1;strokeColor=none;fillColor=none;" vertex="1" parent="1">
          <mxGeometry x="117" y="192" width="30" height="30" as="geometry" />
        </mxCell>
        <mxCell id="w3cIrV533ZpJRvCEys2s-37" value="-" style="text;html=1;align=center;verticalAlign=middle;resizable=0;points=[];autosize=1;strokeColor=none;fillColor=none;" vertex="1" parent="1">
          <mxGeometry x="117" y="334" width="30" height="30" as="geometry" />
        </mxCell>
        <mxCell id="w3cIrV533ZpJRvCEys2s-38" value="&lt;div style=&quot;&quot;&gt;&lt;span style=&quot;background-color: transparent; color: light-dark(rgb(0, 0, 0), rgb(255, 255, 255));&quot;&gt;差分接线方式&lt;/span&gt;&lt;/div&gt;&lt;div style=&quot;&quot;&gt;&lt;span style=&quot;background-color: transparent; color: light-dark(rgb(0, 0, 0), rgb(255, 255, 255));&quot;&gt;电流：&lt;/span&gt;&lt;/div&gt;&lt;div style=&quot;&quot;&gt;U接AI0&lt;/div&gt;&lt;div style=&quot;&quot;&gt;V接AI1&lt;/div&gt;&lt;div style=&quot;&quot;&gt;&lt;br&gt;&lt;/div&gt;&lt;div style=&quot;&quot;&gt;电压&lt;/div&gt;&lt;div style=&quot;&quot;&gt;U接AI3&lt;/div&gt;&lt;div&gt;V接AI4&lt;/div&gt;&lt;div&gt;W接AI5&lt;/div&gt;" style="text;html=1;align=left;verticalAlign=middle;resizable=0;points=[];autosize=1;strokeColor=none;fillColor=none;" vertex="1" parent="1">
          <mxGeometry x="560" y="80" width="100" height="140" as="geometry" />
        </mxCell>
        <mxCell id="w3cIrV533ZpJRvCEys2s-39" value="" style="shape=image;verticalLabelPosition=bottom;labelBackgroundColor=default;verticalAlign=top;aspect=fixed;imageAspect=0;image=data:image/png,iVBORw0KGgoAAAANSUhEUgAAAXMAAAN3CAIAAABP1i36AAAQAElEQVR4AexdB1wTSRffDaEXKYJUC2JFsGOv2FBRD7GeZ7uzex56d5bz0/OKeujZRb2zt9PTExU7Nuy9oWAFUUFEERGUmvLNZkPYTXY3syEJSZj5TTZT3rx585+dl0mZfwRSFBACCAGEgLYREGAoIAQQAggBbSOAPIu2EUX6EAIIAQxDngXdBRULATRa/SCAPIt+cEa9IAQqFgLIs1Ss+UajRQjoBwHkWfSDM+oFIVCxEECexVDmG9mBEDAlBJBnMaXZNNCx5OXlnTlz5pdffgkICAgLCxsxYsSKFSsePnwolUoN1GJkVpkRQJ6lzBAiBUwIfPjw4fDhwzNmzGjVqpWbm9ucOXPy8/MnT548bNiwjh07JiYmhoSEVKtWbcyYMSkpKUwKUJlxI4A8i3HPn0FZn56evmfPHuA+GjZsCLwG2JjY2touXLjw7du3ly5d+uOPP8aNGwf2LKNGjfrrr7+eP39+6tQpb2/v5s2bgyzavxjUVJbdGPWepex9IA2migBwB0lJSZs3bx49erSfn1+DBg3++eefGjVqrF+//v379ydPnpw7dy7YodjY2KgigON47dq1f/7553Pnzm3cuLFXr15isVhVDJUYKQLIsxjpxJWb2RKJJD4+PioqavDgwV5eXh06dAAeBOw7Dh48+O7duwMHDnz//fdBQUHm5uaQJtavX//y5cu5ubnAv0A2QWKGjwDyLIY/R+VvYVFR0dWrVxctWhQaGlq5cuUBAwbcuXOnZ8+e4D3Oq1evwD5lwoQJ/v7+AoGGt5NQKFy+fDnYv3z8+LH8R4ss0AYCGt4K2uga6TBoBD5//nz69Ol58+YFBwe7uLhMnDgxLS0NfK0DvtN5/Pjxhg0bhg8fDt74gDc1WhlG06ZNAwMDT5w4oRVtZVKCGmsDAeRZtIGiqegAX+gcOnRo+vTpLVu2rFKlCthEFBYW/vDDD6mpqbdv3wafyIaHh4NyHQ0XfDTz8uVLHSlHavWMAPIsegbc4Lp7/fr1v//+O2nSJLBlAF/orF692sHBITIyEnxocvHiRfDNDvh6uFKlSnqwG3wGDL6f1kNHqAs9IIA8ix5ANsQu7t69C97mgMUMviHevXt3zZo1N23alJWVBd6P/O9//wOfy1pbW+vZbjMzM229t9Kz5ag7VQRKPcv1a9dAVJVAJYwIAKxAZKzSVaGW9IIvd2bNmgU+f23UqFFMTExGRsb+/funTZvWrFkzoVBI7QQMEERqia7TyLOQCAPYQSTTRnot9SxBLVqAaKTD0L/ZACsQ9d9vGXvMz88H3xaDtzngm+MlS5aAb3w5vtABAwSxjD2i5hogAGAHUYOGhtOk1LMYjk3IEh0hIJVKBw4cCN50nDp1Cnx5rKNeNFYLzNO4LWpoaAggz2JoM6JDe6Kiot68ebN161ZLS0sddlMG1ejdUBnAM6ym2vAshjUiZA0zAgkJCb/88ss///xjYWHBLFHepWjPUt4zoM3+kWfRJpqGrGv+/PkzZsyoVauWIRuJ9iyGPDu8bEOehRdcxir89u3bo0ePjh492pAHgPYshjw7fG1DnoUvYkYpv2nTpi+++MLZ2dnArTeSPYuBo2gQ5iHPYhDToGsjzp0716dPH133Ukb9aM9SRgANqjnyLAY1Hboy5unTpwb7fRB1zGjPQkXDqNPIsxj19MEa7+HhYWdnxyGdmJh4Gzpcv3798uXL0OKEYHFxMUfvZBXas5A4mMYVeRbTmEdyFKxX7kV77949f3//MdBh0KBB4L0VtPiYpk2brly5ktU4SgXas1DAMO4k8izGPX/w1nMs2ry8vBYtWtyCDj///HOvXr2gxW/Nnj378+fP8KYiSRNAAHkWYhLfv38PPuM01UiM0Bge3BsrYxgBsrEUAeRZCCyysrKIJ94P6fsTUdsfiuTtJO8OTO3SEYQuEdFvC18e+/Wrbp37fr/rzs37yWLxq10TgkFVSez+y7lCeTN9PBnLouXYWOkDJtSH9hDQj2fRnr260aThDS1Ou3X/wbljt/NJqwSu/f7cPC7Af8zGJWGOt7f/a/vdv8f2/Nwm71FKMWbmM2TVuuG1mkzZcyYuLu7knpktrcVkK31docaYe35i3aFHCFdZ/CSqg6OFrY3P0P1vJcBG5TwoImPB8ZE+VRsEBgY2Dt+YLGEVI4U5rzp1f9L0bd/Pv17yMbIkbU2wJUAEt+y0+lWJUR8vzmvrLHRpO+f8h5Ii9KwxAsizaAwdVvTkkUXY5BbJJ67kqPzXn9CjqvXD87fSiuyqthkWWseM2os072GidZNmDP+UQZXSahpq0eadn95t7K7HWcVgNO/Wf/Gd96Hczxkr33313QURRss/oThFccKR2yG778bHx9/572vf90rN+A4CLHa+TeDkxc9OX7y0b/MZ+ac9Aq+Jsfcj27ZeeO/UZB9SQ9HVed+cH3Q96/ao22NmnysgC9FVYwSQZ9EUOmlufJptYI16PTvknIx7R7ysUzUJqg+dP9nj8q/DBk1dd+F1kbxKdG/lwM4dO/WcFp2m3EAuobsn9YvWPGDmif0TfQnyp+IbRx6Gjm5lidl3H+h3Li69kJZ/lF1q/fuLp+6fmt2pU/gPOx58Vm5WKgYzLij3B6NIVabw1g3LKctD7m89nAXcpmo9hokTDh7yHjbUz6Fa+FC/E0cSKc6TSRyVqUMAeRZ1CLHUS96e3vXnrLBOnb+MunHjSOwrlTvRzLnRkLlb9kYNFm+ZtS2JXGPChsS7oTOH/vzCS7/AQy1acydnO7lZ0g/vrX3ciIzQyUn08RM9n1/6EZEkz3Pwyi27Y2N+dl7UIeJyJr0ZC3bsxerdH3tb9hpp9oWkSu39g0aHZ+3cy+LTpe9fZ7m6E3S/No4O2e+yWRwQeyf0GpQjbh6EAl8EpMVvr+1/2Xkz8ZlJ3KkNI8zORN/MElFvRtGdvZuuvf4sEth7VXPNy/xAehZpcTF4qyGw829od37vBbaXT77WwMnzWrQC1yqiNNnnK4VZWXZuTkJa3sFWcdsIqofPndy+irV9wDej3C9cs3CjNVOIQZkI5f6gNNGFJK92RY4JdReY+U2NPbFx+2OVFwFCHHeu4pSd9Qkkc9++d/Fw4Wc6aIYiHQEEIB0PqFzxndUTftp9cP/JFHCTil5cjHucfHDGwKl7Ew78MOqv+wnrv/4+OtO2jr/1pd8HdQkZf8B18qhG+Ktd347f9uz+2i/BN0SduoZFnMZ8HXGo3spDSNhqcLPoP2I+iF5vj0rt0d2Vnm9gr7Ape3vXRr8/FWGiV/t2PW/crNsQWjOFGGyCl/uDUiotSj0W9WjwAxHwW9KiO3PNdq+KzQDuXbmxmX/vkGdb/nn24dm/u190D6mHFoYyQjzzCECegBHi5k2m7jsbd3rDcF/wyayw5siNp8H3PadWDfTvt+wUSMWdWh7mXjuwReCAhfvi4g5v+L5DFSH4bmgtIUVUE49Tawbp8w0RWFaE4WofuK1v64auwOPZD9q7z2uml1WdDb0ORjY2w2j5aqV3jeOQdVMTw2t4erbf0+NYVGdnpWZqO9S1QNHZiBZ9Fq2N2kF8cCJ6eGDvzfi1Pat2Xpa2plvAjIuXZzXsUvLdkGW7X9YE/BXo3HxLo7W/tDVQcixdw6VF/aX3iBaVGp0q2IVndAOjGExuBygFTEnc++vt89sQn+EKPMO2PMkT5d5e0Fa2Q1HOl7QW+o3cde/V67fPz/7awRnD2MRKxLmedTELFp3XpImlRbf/14B4EQj8+W6xVCotvDDNa+LpQpCSFp4t+W4Iw126LruXJ/1wLbKzM85lJ6qDQUAAI2TyMq6y4GZyAQzLz88PTB9YROBq+BHK/Rn+MJCFGIY8C3EXODo61q9fv57JBTAoLy8vYoQYZviL1ljcH4YCBAJG4Fmua+8v1rSoCgJbAxLRbNHqHy7Dd38GNKnlYQr8LWEonoUDpaAWWvuLNS2q4jDYMKs4Fm1hYWFaWtp8lXDy1CkQVYrnHzp0KD4+XrWcreTixYvv379XC4tm7k+tWiSgRQTgV5AReBYt4lJhVXEvWomE+LlNPnQoKioSi8XQ4vkikYjsQi3+HO5PbVskYFAIIM9iUNNRPsZYW1uDj2N+hw79+/dv3LgxtPjvHTt2BJ8lqx0bt/tT2xwJGBQCyLMY1HTo0BjD3w6ATVBCQoKpsuQojQvT4VQbhGrkWcoyDVL2o/nE+wtCtSRpdYibncfY2JJTiUSh3h9GsR0Ab5p0BwwHlY680+IXR+YN6xHcY9i8oy9L2BbkVeiJPwLIs/DHTNGC62h+CbCCmpMPHY2g0ygoFOgzAbtnEaf8M7Seh6eHW93BW58VUDMcy036Zmff5rPvSmiNOeTZBg5rJFt71nIOKh03spEoIfqY6497ju2Z5hR79JmYLERXjREoWQAaK6jADdUfzTcYcOD3LJ8PTp5mtvrZ6/SkJcUTxv40vjQzIVpObqIyKknqlpHfxmQWiHOpjdnlVRTovICLSkfeucCzplPa47dFUtyrc0fi2Ia8HD1phgDyLJrhhmEwR/M11a2LdnDbAemHZ889WwbYYph1FQ+rT6kpiox1QQHzC7kk5e9xu4OXfettJv1Aacwqr4vBcevkptKRtxW49Z7SIX76oIjLtYLrWsoL0ZPGCCDPoiF0UEfzNdSt/WbQexbco8+wwp/7z1yx8Kt+UY2+nTpCkWk4vrcDg2GipFUTjvff8F0DKwFGa8wiz6CCUgTn/igNYJJqqXRkSqQ5t8+JRm3d+q3N7siY9JKPyWRV6KIBAgIN2qAmsEfzjRAps7qz7j1dHyI9s0fy06ohrSiZQS6qw5Gmbhj+h6Sh+OSWPVeeXfnvuGRyaWMmeVUNlBKplMpwQ6koS1I9lY5ce1H80eMpnySV/ENaFt9OzJOXoidNEUCeRQPk2I7mX6EczVe86GVvC2s3/9y60M5LkxVlGvRZ5iY4jkPqEDp5ZMUlfbVztr8Qw2gZFQW4Y7clO6e3961WzcPRxtG9ir05t7yKAl0XsFHpvCul0nlL2mDZZECn5N/CuoZGXGwwoKUdWYiuGiMg0LilvhsaUH9sR/NbUY7mK4B1HB6TD16NCy9O81WU6X0swAD4PsVP/l5nu3hJJxkFOC2jqsPOt2XnYBC69g7tHdoryMdKjbyqhtISXkaWNuNMsVHpuJZS6ci/G8Js6n255L/TcbG7F3/pDz5n4lSLKtUiUH43u1rTkIBWEcBx2D2LWe0fT+zsL3/vQ8uwGyTwG7tsrB+4myDlWTThOKyRLApQsaEgAO4FQzEF2aE7BHSxHdC6tZaWlh4eHn4VIDRv3lzr6BmaQuRZDG1GdGUPjhv6dsDMzMzV1dWrAgQbG9k7TTVTbdzVyLMY9/xBWm8UexbIsSAxo0AAeRajmCYtGInjrHuWnJychISEVtDht99+O3r0KLR4qy1btqSkpKgdA3J/aiEyIgHkWYxosnRlqr29ffXq1ZdBh6FD8tkBTAAAEABJREFUh4JPCqDFl3Xp0gV8gAJjPY6zuj+Y5kjGcBBAnoWYi+Li4ncmGj5/Jk77cG8HcBy3tbVtCRta1qxZE3wgAi3e0tvbG3w6SwDN+eA2krMpqjQ4BJBnIabkxYsXiSYabt68SYwQMwKGbQwzDiMxFCAQQJ4FAiRWEQ7Sj5Lf24renFrwZXDHnmNWXcsqKWPVp7MKHtsBGhFCUebxya3qBTb2bxy+/jEHK0IJi4IUUp5xoDyMZGzPWchBpUO2k2aemt2pqqNTzZDf9fy/uGT/pnZFnqUMM8pF+iEHNvdCVHTlnw4cXtUhcUHU1fI8jYLjUB9h0FgUxq9dOvPl9Nvxd+4us5n3+yURC1YKFgVR0moYeRY1oBjHoYwEkjyj+Nnpi5f2bT5DvDUETQVeE2PvR7ZtvfDeKfk/mYmT4p40/Ss+5fJPthtnb3lefi8CwDqTiPIFYBJj0fcgip48sgib3CL5xJUctqN0opT45GpN69jb1QwNrZkQn8bMQ6B7w6G3A3QihEILP4+H0Ydv3T26+0bVln5mjIaWsihgAte66uUZlRCF0EYSwvwe6ql0zPzCJ4bVdnSsN6h/SxsLIT/1SFoVAeRZVDGBK5HmxqfZBtao17NDzsm4dyyvcQIHR7NrJ669L8xNT8u2trHU0SsyjMU4DtO5EhFC32ZthDuGDxwwchvWLtCWSYGIwqKAYVb11clzm4rjTH1wt1Ffy4dK59OVRz5jBvigdaEeVm6JUgTh/6OIW2MFqYUj/RBU7TOpw9NfBo1c/O9dQds2XqVwGypMVBaFaT4n1t8beDs36emHlIknx657pbI1U2JRiF4zNaoLlzznqHW1Z+Gk0rlB/Z88afaVXc86/BhWRRf+jXPsSpUmsBhLb3X4/yhSQqECZqFJPzDcKWjS6u0rv/Y0b/rtkJrMbyf0ACCvRSssYVHo3aLSs9PPc8AntwWvk99ZO1qpLDglFgV3W7PCj1zy6oaK4ypdqGuipl4dlU5zxf/kST8/O3dZGDq2k93LOw/YNqFqetNWNeRi1FZ3utBT6ll0od1EdbKRfiRQSD/It0eS9D0TegyZvf9ju8kjG5bvWREch120pUQIlr2XLc6f5FvZ2bP/oxlbR7uqziedRaHtyJVq5FU16LaEjUonjUKlI7Pg8/U/QloG9wryEArs2vz9xh4tDBksml8QgBpgx0b64U8h/SCBFXgMXHcqZsPs/v4OZIEGvWmjCa89C4UIwaLu13sfpGdmZSUd+zaAixxWzqIALc80KF5GMilgKGOj0vGiUOnImtkGzTqfKQYmSKXi1LVdrGSF6KI5AuV6v2tutpZbWlhYaFmj4anDcdg9SznajuNGYGQ54mNEXSPPQkyWj49PGxMN7dq1AyMEr8XgqreoWUdGYaRmQ6uArZBnISYdx3GhiQaBQD7FYIzEUA37YRRGGjaEhmKd/LYzFHOQHeWEgEgkeg8dPn36VFBQAC3+Pi8vD2Y/AiNTTvCgbnkjgDwLb8iMsQH3os3JyYmPj68DHWbOnHnw4EFo8Trr1q17+vQpDG5ozwKDklHIVCzPYhRToiMjORatg4NDkyZNMqHD6tWrBw0aBC2eOW3atNq1a6sdF7f7U9scCRgUAsizGNR06MoYo1i0YrE4IyPjRQUIubm5upppg9GLPIvBTIWODeHYs+i4Z1j1hYWFwLOkVIBw+/ZtWFCMVg55lrJMHZ30Q6ap4MmeH3sFeNjbVWk66u9j+0/ce/RnKwvczL3flhTioHPx5e/9hDhu1WXN6V8bW4DVjgsEQitH74Du326Jz1U5lyNTqYULjz0LlZ/lyZ1F7ap5y4ITbjfmHBuNAibnZxE9gJTXwpB4quCg0pFrkqRFT+/bI+zPG8Xygk/xmyf37hw6eeM9491hyIdSDk/Is5QBdCXSDwyTvj88ufecFyFrrqa9f3H6Z/9XF+9n+/5wJf/+ggY35o5ekVCEmbdeknh8zd/3TkwMnnv9/I/+wcuf5ednPoj+wffy1N6TDrzTmW+BpWuj8bNMejLpwotUEJ5u7+7Ta3CQkBksBT8L1mA6jDyzFp2WclHpyDsWeIUtiAxXnHIuTtiy+F6ndYfWhzxZvOFuoVwIPcEigDwLLFKqciqkH5LkrZHHW0Sun9yumoOllWP1NmOX/NDBAjTEHfpERvqsH/XrVTnzECiTRdzS1s7C3M47aMTqnTM8Dq6P0aFrkXWo7kLnZykoIPZZmCRp0bikWauCrRlbU/hZ5PXc8nIh1SceGyvVxtwlEFQ6SgrEKZcuu3br4m3r3qGL1/WrL2RAKMmgLAcCyLNwgMNZxUD6IXr84GmVOrXsiHbixPlNiXc7Vl3WvQYbEYFH2OoNXU6On34iizyrSMhQH2a+gf7WGa/fMtdSJTVJQy9aJX6W3g6gt6JzP61rGPm1G0iqRhGNn0VWzykvk2C9gLeHrHWaV0BR6Sipl37MzHF0Jv7f2crO9lP2JzCHShIoy4kA8iyc8LBXSl7tihwT6i4w85sae2Lj9sfEa5rA06dKyrUbsn2HWf3ZVw594xO+NWa8p+wsDG7f5pdtY5/PmLw3jcl7iJ/fTyj0ruahswmBXLRUfpZVg4g/d847+MvJPj/J9l4qcCjxsxxJBJ9IcMkrFDAloN0fU2OOMjgqHSUFuIOz/aecfFCa9+Gjg4uDzuYF9GCSEQGmybRKi1KPRT0a/EAEFoO06M5cs92rYjOKpcLA0RFtbswcMudgYmZBYfbz5DdFNO3mdSZs/tVm6ZzDYP2RFdKivLxiUd7rm9u//TIyc9CEPs4yL0RWavEK7ITXJizhZ/EnPlfJ27/0RvjYQGZqGSV+lir25hinvDojIN2fOjWUengqHUojkDSr3qpF2vHTqbmpZ85kBLWohhYKAIVPRIDxQUsuy0L6seK5oNrInbGRgbf+F1yjkr1X+yjx0IFNzV+u7Nxk4rfd/X+8UozhVfosXzemOlix4vu/BrVfnHDquxpWVs7+/Ve86bbh+PIejrpxLITd8Iu2lJ8FtBM/eWI5/quGzI4Fw+j8LEE+VmrkgUbWyMv9sWqhVxTfWT3hp90H958kvpkTvbgY9zj54IyBU/e+o1DplLTIPTFnyo57MbOm7nkNdpUWgaOm+saMDh1/3G/aqADzEiH0DImAAFIOiVEQYCH9iKiBYbh94IgVx+6n5xYWfc54cHTpAD/zqlPOFUqloqeLW8luT7sWs1dO8DMzC5h7pwisJalUIir48OJm9IKwWrojBZFKeXxOYFb7xxM7+xNvhDAMM2v0S9ySdsAVgjRHlPOzQMuzqIJ3fywKlIvZqHRcKVQ6JW3suy+MjYuLO7V6oCexLPBKzSZvio07vG58Ewe8RAY9wyJAQAgrWxHk9DFGgbk52xZAh91rfdFq3VbFsWyta0YK9Y8A8iz6xxz1yIyAhYVF48aNO1SMwAyBCZUiz2JCk8k+FF7vhtjVoBqEACwCyLPAImXschzvhkQiUWZm5lbocPHixWfPnkGLb42Pj//06ZNaAJH7UwuRDgR0pRJ5Fl0ha1B6uRdtQUFBbm7uWejw6NGjjIwMaPGzKSkp2dnZMIBwuD+Y5kjGcBBAnsVw5kK3lnAsWjs7uxo1amyBDt98802bNm2gxbf06dPH29tb7fC43Z/a5kjAoBBAnoWYDvAKfM50AxihsSxaDvcHRoGiESGAPAsxWTk5OcQT7wfH0XwJqUyUEffnuL7dQobMPZbGykFAiur4aviLlu7+tAyHNH3b9/OvF1O1KhFeHD0a2YqJ72Ldq/v6JLygWmjMaeRZiNnTcNVxHc2XAyt0aRuxdn/Mui8+nbqZxePXaoRVWnzwWLRUfpZnspWYfyWi6YDo91zmyPlZSHcKIc+mS8OJYFNXWg5BeJFoO/VKPgPfxXifAD0TXpSabcQp+QIw4hGUn+lQR/OFQqHkc8aLwmZDOroawy85afwsE6I/Y0W35oy9P3HFF/Lf5DLBreBnITwLhDyTDlDGw/0BaV4RmvCCle8CMzjCC14A6F8YeRZNMZfmxqfZBtao17NDzsm4d8SaYtYkST8wffTczdEHrnMIMTfVaincdkCZn6XwwW9hS3Cf1H/3Pchh2XLR+FlE6uW5RgVnJJcGpjpp9oWkSu39g0aHZ+2UnzRnI7zAMLV8F5iZTgkvmAZgjGXIs/CdNbk89NF8gUf/VTG7FnXNOnap/FwL9HZAiZ+lzdHvVteIXBHR3fv0oHbzHzH4Tzo/S9ZudfJy+PT5xIfwgrBLDd8FpnPCC8IIo38gz6LJFPI7mo8LrZ3cvav5etmXJ9qQ2wEaP0v/tHPJ4b9M69SoZfisEdLjFz8qg6XEzxJz6CS3vHJ7Wh7a/dFaqcloRnhhrsJ3gemL8ELNeIymujzvdaMBSdlQtqP5CZSj+eTLu+TtkR97d+7ab9ya992HNbNRVqS3PK9FW8rPYlG1pv3VC0lFmDTr8rmPDerbKxusxM/i7ufHLa/cXjkP6f6Um7Hni85GtOizaG3UjkQxhokeHth7M35tz6qdV2AMhBeNM1Yy8V1geie8YB+OEdUgz6LBZLEdzfenHM0ngRW49Vp8+MzJmK0LhjdyJIs06E8rTeAXrfjJ3+tsFy/pZIMJakzZNv7+8KDGjYM3Nd+2sLUqmYKdb8vOwSB07R3aO7RXyzbfq5HnGgov98eliFLHRngBRFQIL2rXYOS7wPRLeAEsM7ComTnle7drZrP2W+ninta+lWXQyGuAZhR+FptGk/69dvfO3bux8zo4cRhQws8CK8+iCt79sSjQbnH58F1odwzlpQ15FgJ5Dw8PbxMN9evXJ0ZoDA9e7s8YBlShbUSehZh+Ozu7miYaXF1diRFisP83hJVrMLA9S7liYeSdI89i5BMIZ75RbAf4Ggk3dCRVPgggz1I+uOu/V47tQG5u7tOnTwdAh6ioqLi4OGjxAfv27UtNTYUZMoeRMM2RjOEggDyL4cyFDi3h3g7Y2NhUrlx5EHQICgqqUaMGtPgg8FmPo6Oj2uFxG6m2ORIwKASQZzGo6dChMRzbATMzMycnp3Do0Lx582rVqkGLh9erVw98kqV2bMCziMXi4goQwEjVomHsAsizaH8GDVCjUdzKwKXcu3fvcgUI58+fN8CbRLsmIc9SFjylNNIPSdqaYEuwNcAtO61+Rf4GF8MkSatD3Ow8xsaSf5eolC1L5ybXViIpAU0HQ+Og0qH2Vvh0Z8TMfRk6NITamymnkWcpw+wqkX4IvCbG3o9s23rhvVOTfUqAFdScfOhoRJ2SPxhSypahc75NgcuDaiJO+WdoPQ9PD7e6g7c+Ky44PtKnaoPAwMDG4RuT2debgp8FUp7NElgj2dqzlnNR6SgaST8/jHvw3kxGSqMoRAnNEChZAJq1rtitVEg/DBcO+HdDdH6W/24euR2y+258fPyd/772ZbtZSvlZxAkw8iw4wRvJooC9uOjJI4uwyS2ST1xh44LAMJjIH+cAABAASURBVGnW3fOZ9dr7WbOrQTXMCDCVst0sTLKojIoAA+kHtdrg0nDbASV+lsxLp+6fmt2pU/gPOx58ZhkSlZ/l/UX18ixqZMVwRspEeVxgqHRE6VeuFjdr42OO81CMRNkRQJ6FHRvOGibSD84G5VoJvR2g87OMbes7eOWW3bExPzsv6hBxmYnIV5S0asLx/hu+a2AFbiVJnudgNfIcMEAbyaGDqQqGSkeUcmz9kukDOnfqE3nx1qoRv58nPxZjUofKoBAAtwOUHBKiIsBC+kEVMbg05HaAxs8ypHH43Mntq1jbB3wzyv3ClUwVVjklfpZjed255fWPCiSVjtBv9ObTcXFxZ2NmtG367db/tbfQv6mm1SPyLBrMJwvpx7Ira7oFzLh4eVbDLqXfDWHZ28LazT+3LrTzUtknoEpZDXrXpAmv7UApP8un7V0b/f5UhIle7dv1vHFjF5V3Ckr8LDaxfbnlOW3nZSSnppJKDGOj0nlHodIplUYp7SGAPIsGWLKQfkxrNfF0IVge0sKzpd8NYY7DY/JBYeHFabJPQJWyGvSu8yal/CyOQ9ZNTQyv4enZfk+PY1GdzVW7tqPxswRPXq9GXlUDrQRyY0Vrw5lho9JxpVDpUBXgDiG/L+lfBS0LKigapY0AwuvXroGo0egqYiOAFYiqI4dftBR+FqHfyF33Xr1++/zsrx2cVXWWlsj5WaDlS1uWpoD/Lc2glEEiAG4tEGFMMwLPEtSiBYgwg0EyAAGAFYggQY1GsWgtLCz8/Pz8K0Bo2bIldXaMKA1uLRBhDDYCzwIzDCOTKQ9z4fcs5WEd0Sew0MnJqXIFCJaWlsSATfqBPItJT2/J4Ixiz2IURpYgip7VIIA8ixqATKYa7AjYxpKTk3Pz5k0b6DB27NidO3dCi9tERkY+fvyYrXdqOYeRVDGUNnwEkGcx/DnSgoXc2wEHB4cmTZpkQYeoqKjBgwdDi2d9//33tWvXVjsMbiPVNkcCBoUA3bMYlGl6NKagoCDNRMPHjyp/P8YErEAgsIIO5ubmZmZm0OJWQqEQcjMCKcY0AlRmWAggz0LMR2pq6jMTDXfv3iVGiBkBwzbas2AmFJBnKctkcpB+lDIOFN5ZObhzx47B32xNFpels7K05bFo6SwKsk4VHAmyHNOFLkHPMcmzleluz8JBpSM3Rok6R5p5ananqo5ONUN+v5ClcqxB3gY9sSKAPAsrNOoruEg/SoCV5txKqbvsVFzc6Q0jfEtYWtSr1r4Ejqv8Np+pEzqLQvRnDCvlSGCSJ8roEvQcUQ/54OH+IDWWirFR6RBUOnIpOnWOOCnuSdO/4lMu/2S7cfaW56UvFHJp9KQGgZIFoEYMVTMgAEP6Ick4E/3Pjj8X77r5lumkMINWnRRBL1olFoUCMZUjgdk0ugQ9x9yCvRTHodwfuwKWGv5UOmZ+4RPDajs61hvUv6WNhZBFLypmRQB5FlZo1FRIc+PTbANr1OvZIedk3Du21zSBe+j8DQuGN0jfNGfdnTw1KnVajeMwi5bOojC+xzsKRwKjeTQWBYyeY2xQDoXS7AtJldr7B40Oz9q5N41tqpgN+3Tlkc+YAQqKQGYhVKqKAPIsqphAlUjent7156ywTp2/jLpx40jsK9aPUMwsK3k37PXd9A5ZN1PKbdsCvWfBqCwKK9vsH/6HpKH45JY9V55d+e9IYq4yNHQWhb1bf/uSW165PS0vlerm4wzNqXSk2Vd2PevwY1gVGKdMGwvKIM+iyT0ASfqhUC36+PRmimNtL/jPWRRNyyGhYFFoULnbkp3T2/tWq+bhaOPoXsVe5bAznUXBo0bXSG55daPBcW2vYc2pdKSfn527LAwd28nu5Z0H7/jtdNSNswLUI8+iwSSzkX4kUEg/yDtRmn157exZEZOm7y7qNbx9JW0vGz624zhs76UsCnSOhCAfK5UO6RId23boHAxC196hvUN7McmrKKAU6GLPUnQ2okWfRWujdiSCTaXo4YG9N+PX9qzaeVkahUqnxAQadc7n63+EtAzuFeQhFNi1+fuNPVooJTBBPiPACKB43tNspB/+FNIPEljcsfWE+QuX//XXvKENHWFXNmGRlh+8BkhhUZCbIfAbu2ysHzkkeZHSE12CnlMS5criuJZBYqPS8aJQ6ZQY5Ehl0rENmnU+Uwxwk0rFqWu7qPrUklbomRkBrruFuYUpltrY2JjisGhjwnEtL1qadm1kwDLWhhqkwyAQ4OtZDMJorRvh5eXVwXQDgMtYFi2OG7r7A2CiCIMA8iwwKJmCDI4b+qI1FvdnCneD7seAPIvuMTaAHrgXrUQiycnJOQMdEhMT09PTocXPpKSkFBVB/c0Gjhu6+zOAyTQOE5BnMY550qmVnz59ev369QLocPjw4fv370OLL7h06VJaWpraIXC7P7XNdSSA1GqGAPIsmuFmfK1wnHU74ODgULdu3VPQYfr06d26dYMWP/Xll1/WqFEDBjIcZzUSpjmSMRwEkGcxnLnQoSVGsR0Qi8VPnz4Fb7VMPmZmZupwsg1DNfIshjEPurcCxw19OwA8y4cPH95VgJCQkKD7CS/nHpBnKcsEcJB+kL/BxTA664fo5X/jmrvZ2NcM35JUxkNEvOzmsWeh87MUJazoVsuvtpd783k38tm7VDCyQMqza9JVDQeVTmmX0k+PDiwc17frmF08zy2WqkApOQLIs8iB0OSJi/SjBFg664fQs+/qa28yb0zK3nnyjW7O37ENBMeh9ixUfpboZRu3b38x6PzTJy/21Y+cfYzt651SRpaPhyPPM8pbW1mp/QcsHu6PbZCs5axUOjNbSzLevJG1y0/cOPW3a94jVuyNGuRVMn+yGrgL0AMinKzpS2kAoOmDAjlC/qQfGCY0Nxd/fJmY33X6AC+olQ5pixox6EVL42e5GG894I+lX3sUv72871adLo1UDiTKeqUyslQK27aPUT6/oADmH7BwXDegsFPpuLq7V3F3BwORvPhv8f5PFs92zF/4z4NPmnh9oAdEoApFgIAAPFDUBAENST8kz9eEBPb/edXa46klb5g06V1XbZT4WXo7YJg4fu2QsGWFod08mFa9KiMLtzyH4dDuj0MHYxUMlY7k9eXzZmE/r9y2/Uef06tiDHJyGAdnqIXa9yyGOlIt26Up6YegxpQLmc+PD3uzWZ93L1i0OM7kGFRQofKzrBrkAurNAr87nfEgNGrE1myQo0c6PwvJ4MIlT2+tmsNxKCNVG3KVwFHpFOYVOnl52Vu7te3dBvuQY4hun2uQBleHPIsmUyItSj0W9WjwAxFYsdKiO3PNdq+KzSiG3EHj5nZu1WvVDfBzNlDwFfws/oKnc+o0WposwnKTnuS5uqr+ZSidn8XdNXMBtzwn2ABMznqNKmGpdASeDeolHz78PC836c7LGoFVhRr1hhopEDDQm1thn0Em2Eg/rlBIPxSveVTWD8mrjT2chFZuzb9PHzG7q51eB4fjsNuBUn4WQa1Z/46K61XNs+EC333bv7BWNZjOz9Ky/Rw18qoaaCU4DmskrRl7pvjO6gk/7T64/2QKwc/y4mLc4+SDMwZO3fuOQqVDtrZuPvb7mqcm9Oz/25u+49rak4XoqjECyLNoAB0b6UcrCumHAlgq64fA5+vjH0QFmQkH/9ehskJCAwv4NuG1HaDys9g0+i7mYdrrF1dX9vLgMriEkQVWnu8ANJVno9JxpVDpyHULXFpP3Xg8LnbHrE5VeJH/ydujJxoCXHcLTRBljBwBHNfydkDreOC4oVuo9SGbsELkWUx4ckuHxmvPUtpMvykzM7OWLVuaLk8ObWT6hbYcekOepRxAR10yImAU7o/RclSoigDyLKqYmEoJZRxg0eI463uN/Pz8Fy9eTIMOu3btunHjBrT4tJMnT759+5ZiDmsSx1mNZG2DKgwSAeRZDHJa9GuUQCCwsrLygQ7Ozs62trbQ4j4ODg7m5sw/4KUOFLg/ahaljRoB5FmMevp4GI/jrNsBS0vLKlWqTIUO3bt3r1+/PrT41BYtWjg5OcHYiuOsRsI0RzKGgwDyLMRcvH79+pzpBjBCo9gOGIWRAEwUYRAoD88CY5d+ZT5//qxRh/Sj+TIVha/Orp0xKiykR78xfxy6duH6sxe7JwZ37PTF7GPpYiAgehA1tHPHjl2n7b+19ZvgjrLQuWuv8FE/rDiWlAf5K16gh3/EcSPYDuC4royUpm/7fv71YjlukrQ1wZY4CJadVr8qKUtaHeJm5zE2lnqku+DuH516r3qp+N2jXBY9qUUAeRYCInCLEU98H0pH8zFM+vHyipkbM1pMXfNfzL9LR1R/G5/8yXPwmthNY2o82hS573kxJmwwaeuiiO83Lv6i6Yh1KwdXbzL5n9jYg5t/G+T5IGrm8ovZOvItPLYDdH6WrNgJNXCBtaVt4LybBez4KPhZIOUZNfEwkrE9VyEX4YW8naDm5ENHI+pQfiQnzbm+99JrYaGOJkXer4k+Ic+i+cSqHM2XvD6x63r9cT+EBbrbWljaewSEThosox7AbdqMG+d2+I+tCUrsSbi5lbW50MatXo/v/jfE5eKhS7pyLRgG6T2p/CwTxq9evThv+Xtxfs6B2gvnnGTjqlLws4ge/w0jj7EGSCNZ27NVaEJ4Ic2Ii04LCmtsp6ttFJuxplGOPIum88hwNF/86nmqk4+37HiNOGX7GOLdTtdpBzPBax7u0j7ix2Y3l667znKK1syzZg3LD5kfdLPvht4OSD88e+7ZMsAWw6yreFgXOkec3NrXGcfy0lLt/XyYl5gk5e9xu4OXfetthgnqzFQvryngmrfThPBC9PzwkaKufWtbMg+anzEVUVpQEQetjTEzHc3HXVyd3jx8JNt3mFX/as3CXq4dZi3oW1l2c+I2AaN+Ck3/a0Uc4WlUTBCnJz8vdnV3KecJYeBnwbCcE2Nn2ayY24jyRkFhvyo/C7e8oqFqAtr9qTblLNGE8EKUsGX2uB7eZgKXUQdORtT/MrqQswtUqYJAOd/IKvYYRwHL0XxhzZ7hDR79/dvGiynZhUW56a+z6O8fhFX7zhxtuXfjFcV7IqmosEAkKsh8dGLl7/987NS3tYPMC+kCBcg3Gir8LOKXf/f4RrAx+ktXBqsY+Fk45RlU0IogjaS14c5oSHghbPhLfDFwdZL3m/t1XZ64M0yVQYK73wpfizyLBrcAy9H8/9IF7iFz/hzn+2TjtCG9QsKnHBB36VTbLGPf1DHLV/44cm2CCMOd20ye1tsdvPiLk7eOn7I75daqIV27hY6cu+998+mLJ7ew15FjAWsEfpyl/CxCLPPQoKCVobHbezoytlfiZ6li/5FbnlFJSSEvI0saqXlmI7xIoxBelKig8l2UlKFnTRFAnkUD5FiO5g/wwDDcpmaPKYs2Rx87dfrEgS2LJnX0Nq/Sf+WpuLgzOyf4CzEQbOp/NaWvl5mZ74gNp+Nk4czJw3v+/n1Me2+dvi6HIyapAAAQAElEQVQybQeAOQyxlJ9Fmrp/zSVB3pZ+AXXqBI498EFV2M63ZedgELr2Du0d2qs5fkyNvKoGWgm8kbRm7Bk2wgsvCuFFSWsq30VJGe48cn/slKpomZQAAv2MICOg0sWrJaGX+SEQCsGmhblOR6W8BljKz4J7jzmW/jr5MRHi/+7nxG4dyc9iBi3PpImXkUwKUJkBIYA8CzEZ3t7eNU00NGzYkBghBvutM1auQet7lnIdTYXuHHkWYvqtra2BczHJ6OjoSIzQGB5oz2IMswRrY6lnuX7tGoiw7XQrR9MOrAKRVmQAGWASiAZgiEmZgPYs5HSCWwtEMm1QV2AViDAmlXqWoBYtQIRpo2cZYBWIeu5UbXfAJBDVihmOAMeizcnJuXfvXm3oMHPmzP3790OL116zZk1SUpLhQGH4loBbC0QDtBNYBSKMYaWeBUYayRgjAmrfZTg4ONStW/cIdIiIiABfB0GLHxk8eHC1atXUQqfWTrUakIDhIIA8i+HMhW4t4dizgI4tLS1rQQd3d3fgjKDFazk7OwuFsq/cQU/sEXiWvLy8zxUgiMXEuXcqEqaXRp7F9OZUeURgxSoXGWQerDfwpuxmBQgXL140yBnQplHIs5QFTQ7SD/nJQtG9nwPNwXYBRPP6s2+JytKbftqKU/4ZWs/D08Ot7uCtzwg+k9zzE+sOPcLduYJFAYjByAMxxghgYiwve6F6Kp2rV/5hZNI5mJGsZyqdso/WADQgz1KGSeAi/SCBlaRnB216UySVSt5sGRcWEqD+LUEZzGFrKpVK2apUyz8fnDzNbPWz1+lJS4onTIh+d356t7G7HmcRLkZVWF6iYFGQYHkw8vJmyk+87FRurCYvTrt1/8G5Y7dLT2ypUOmkWA9gZNLpW8VXn1Q6agZiNNXkAjAacw3KUAjSD4FPh17NXMwx6dvjt5x7BlkYlP1MxtBZFAoKBAEzT+yf6MvlESksChhmrl6eqduSMl3tWaCpdHA2Jh1Mj1Q6JWgY9bPAqK0vT+P5kH5I38XedenVvPwcC/SKxT36DCv8uf/MFQu/6hfVcHxvFydnO857RIlFwVydPMeU6WzPwoNKB8PUMulguqXSwUwkcN41JjJGnQyDD+mH9N2Jey49m6j/XwydWIrxWrEqLAqcNjGwKHDKl0slHyodwkA1TDqYgVDpEKYa8AN5Fk0mhx/pB9ix3HcOaVxejoUYIPSehRCmsigQeY6HCotCWQbJywNyGEWr0oxKR5VJB9MjlQ5tAMaaMVbPUq54s5F+XKGQfsi/GwJ2SjNPJriENOT6qAJI6TDyXbGlLAoyo3Bb39YNmWifiFo7GotCkI8VhnHKY9yBlwfkVkXWslHpYAxUOn5ZjEw6mH6pdEi7jf+KPIsGc8hG+tGKQvpRCizu+uXCGY3Lz7EQA+S1YktZFIimGO799fb5bWRJ9ovAb+yysX6yQUPJs2vSbg0blQ7oRYVKp6onI5MOZqZvKh1gnPFH2b1g/MNAI+BAgO+ehUOVTqsMz85yYNLRKcL6VI48iz7RRn1xISAQCAIDAxtXgNCmjbo9oCpOxlaCPIuxzZhG9vJ6N6RRD9pp5FAxAswpKu0AWn5akGcpP+z11bPadxlAoKCg4Al0ePPmzcePH6HFn7x//14MdwbPWDygvqbOiPtBnsWIJw/edO4Vm5ubC9xEKHRYvnz52bNnocVD9+zZk5ycrNZa4ODUyiABY0EAeRZjmSnN7VS7YsFbEPABB0GjDff4448/+vXrJ5eFeJowYUKtWrVgBsDtAWE0IBkDQQB5FmIiPn/+DF5UTTK+e/cOjNAoVqxaDwgGgqKxIIA8CzFTr1+/fmWiITEx0YhWrFF4QOKOQQ91CCDPQiCk6Q1NJ/2QvDswtUtHELpERL8t+Q2uJC16et8eYX/eKOEhKLyzcnDnjh2Dv9mabJDEYnR+luInUR0cLWxtfIbuVwyJQEzpoeBngZRXaq6HLAeVjrx3SdLqEDc7j7GxRfICDJN+vLlmZJCbVdNFSSXzqahDCW4ETNezcI9bK7VKpB8C135/bh4X4D9m45IwtxJgBV5hCyLDfUqy0pxbKXWXnYqLO71hhK/+/s8M3nXS+Vm2rP7iO+9DuZ8zVr776rsLIhbUSvlZ3q2HkWdRo8u9FReVjtwcQc3Jh45G1CmdlM/X5nQecqzW3LjUyz/ULJlAuTB6UocAAkwdQuz1KqQf7KIlNZKMM9H/7Phz8a6bb9mWaYmo9p75rFg6P0vew2MPQ0e3ssTsuw/0OxeXzvjCLUn5e9zu4GXfepthxTeOqJfnGhi8B+TSoloHQaWj3EjyaPmY1dlW9xYMG/HHpWwe3FnKiipoHnkWTSeegfRDvSqBe+j8DQuGN0jfNGfdnTz18tqSgF6xdH6WsbVzrH1k2y+hk5Po4ycGc2j8LNIP79XJM6goKeLjAUvaQD1Lsy8kVWrvHzQ6PGvn3jRG96iiR5IcEy389t8LDx9tqLMrYt1TuFYqaipuAfIsGs49E+kHjCozy0reDXt9N71D1s0UPW1beK1YOj+LbxVRmuzzlcKsLDs3J5W7RYmf5XieC7e8OoSgPaA6RdR6PlQ6pe3ycvPc/Go62vr0G9NH+va9EXiWUtsNIaVyrxiCUQZvAwvpB6zdoo9Pb6Y41vYqfUsP21JTOV4rtpSfxarV4GbRf8R8EL3eHpXao7sqlYISP4tn24Hc8pz28/KAnJoolfyodEobCmq2aXF//YaE3Ox7Zx81aFevfM+ql9plNCnkWTSYKhbSj70JB34Y9df9hPVff1/63RCWe2LOlB33YmZN3fNaIs2+vHb2rIhJ03cX9RrevhKuQd8aNOG7Yin8LPaD9u7zmullVWdDr4ORjRk8oRI/S72v1MirMZ+XB1SjS1ZddDaiRZ9Fa6N2JIIv4kQPD+y9Gb+2Z9XOy9IoVDoyQXDJ3hbWbv65daGdlyaDHYpttz/+arizhYPH0JQJkf0cQT2KfBBAnoVAi+faYyH9GOjfj/jWJy7u1PLS74Yw++4LY+NA2eqBngLcsfWE+QuX//XXvKENHfXkV4jx8XtQ+VkEnmFbnuSJcm8vaGvPpaWEnwVWnkkXz1lgUqFSxkal40Wh0ilp5Dg8Jh/YUHhxmi+xLATuvaPufpLmP94ysCqDTy1phZ6ZESAgZK6pSKUODg6mPVyt7wX4wMVD1ljs5DGkiiqKPAsx81WqVOlgugG8DhODNPiHsdhp8EAahIHIsxjENOjaCGPZCxiLnbqeLxPQjzyLCUyimiGo3QsUFxenp6cvhQ7Hjx9PSEiAFl967dq1Dx8+qLESVZsWAhXZs5jWTHKOhnsvUFRUJBKJ0qBDdnZ2fn4+tHhaTk4O6ILTQKJSrQckhNDDSBBAnsVIJqoMZqpdsba2tj4+Pkugw+DBg5s1awYtvqRr167gkyyYEXB7QBgNSMZAEECexUAmApmBSSSSCxcunKsYweTnG3mWskwxx9F8iVyvhHY2X3Tv50Bz8MIMonn92bf08/N+sGcB/cntQU8VGAF9Dh15ljKgzXU0vwRYAfVsviQ9O2jTmyKpVPJmy7iwkABD/Mm4NPP45Fb1Ahv7Nw5f/7gg5Z+h9Tw8PdzqDt76rIRhho5YUcKKbrX8anu5N593I59O7kIXVJuTSnV4opiDSoc0TJp9c33EgF69h0zfFp+jMKTw6c6ImfsySl4nSFF0hUCgZAFAiCIRJQT4H80X+HTo1czFHJO+PX7LuWeQhZJC3WVxHPYXv2CPNfPl9Nvxd+4us5k3b9HEaWarn71OT1pSPGFC9GcGAz8ejjw/6PzTJy/21Y+cvf+/yerkGVRQinAc1k5KI5gkF5WOrL047W5qne837Y4aZnV0/XGSL0L6+WHcg/dmzB5V1gpdWBFAnoUVGjUVUg2O5stVSt/F3nXp1VxfjoXXXkDgWtfjYfThW3eP7r7h41+Q4tkywBbDrKt4WBcUiOX2U58qhW3b97VH8dvL+27VCa6W8lydPLWtUpqXnUpt1WTVU+mYeXfs197H3r5ap/b1rYTEr/mlWXfPZ9Zr72etRjeqZkQAeRZGWNQXSl7tihwT6i4w85sae2Lj9sdMq45Fi/TdiXsuPZuYs1TrohjHofcCVvXbCHcMHzhg5Dasfdu+XxX+3H/mioVf9YtqOL432xEIcfzaIWHLCkO7N+w7DEZeZYSKAhyHtlPRRn2CD5VOXuJLt94d3QSi9CtXi5u18THXhUHqTTZ+CeRZNJlDaVHqsahHgx+IwMustOjOXLPdq2IzihVvzrlVgh3LfeeQxvpzLMBIbouotfmHfozqcjs36emHlIknJ5wZdvfp+hDpmT2Sn1YNcqHKUdNmgd+dzngQGjVih/usexDy1LaUNC87Ke3UJeGpdKS5CadTGw1u74yLUo6tXzJ9QOdOfSIv3lo14vfzpeS46rpD9TIEkGeRwcDvwnY0/wrlaL7iMz/62XwMk2aeTHAJaSjk16XepAUCQeHHHPDRQsHr5HfWjlbmTh5ZcUlf7Zztz2ix5OmcOo2WJouw3KQnea6ullgpuQujvJpx4Li2twjwVDrS/NS7CWatQxtbZzxN/uQ7evPpuLi4szEz2jb9duv/2uvrrasagIynGnkWDeaK7Wh+K8rRfAWwSmfzMdz1y4UzGmuy7DSwVNYE7AVwHHbFWvZetjh/km9lZ8/+j2ZsHe1KIWuRKVO6CGrN+ndUXK9qng0X+O7b/oU1pkZeqbnOs2xUOu8oVDoyI/If7pw+cdrM8f2DO/WYfCjLWjF/slp04Y0AApALsopYZ1H3670P0jOzspKOfRtgiVHJWhjhsGn0XczDtNcvrq7s5QHuJrXyjEpkhcADyp61eWGj0nGlUOnI+rOuN2xVzFmwSwH7lP+mNbOUFWIY7hDy+5L+VcDAMBR4IYAg4wWXsQrjOOyepXxH6FYxQoMGDcoXZz30jjyLHkAu5y50sRfQ0ZDqVYzg4sL6abiOgNW/WuRZ9I95OfSI48axZ8Fx47CzHKZQP11qrxfkWbSHpaFqUrtnycnJefjwYWfoEBkZeeLECWjxzjt27Hjx4oVaeNTaqVYDEjAcBJBnMZy5KDdL7O3tvb2950CHPn36NGzYEFp8Ttu2bcHnJzDDw3G0Z4HByQhkkGchJgm8WopNNIChgYjjXCsWx3HgXDpBB/BhiLu7O7R4p+rVq1tbox/JE3daxXmUepbr166BWHFGTh3pq1evLvIM+/77D0SejcpB/Pz589SR8kqD+wFEXk3KKAx8HLOGClYKYAfRqAdd6lmCWrQA0agHo7HxMFyKSsqruLtXca/y/kTU9ocieZXk3YGpXTqC0CVC8U9mUpWz+YV3Vg7u3LFj8Ddbk3mcNZJ3oekTjxVLYVG459jY98N2BaVCMWPvRVQWBUrj9Y+Z5RmV6L5Qmr7t+/nXS0ySpK0JtsRBsOy0+pW8cwmNSQfDih5tHFTHzsKuzqBNj/X9iOTgUwAAEABJREFU236wEkGUG2acT6WexTjtL1eruY7mk8CqnM2X5txKqUv839npDSN8iRO1ehgAeDcE3wtYX6UsCr/tXVma+f1SiQulaqOxKBx5uFqdPLUtNc3LSGpDuLT42emLl/ZtPvOZFBd4TYy9H9m29cJ7pyb7kEUYjUkHw0RXVm32Xv8y9+Vat+2b7urvRUBujdE/kQvA6IdRLgNQfzQfUz6bL8k4E/3Pjj8X77r5lmmZ6mwY4NUZUreAwqJQtVXjegpKhaot/Zg8YaWwUhaFLk08SykYWOS5zYC3k1uPci1/Kh1M4BtY5dmtVwVSgd/gAQFMQ1fuBOWpCCDPQkWDT5o8ml+jXs8OOSfj3ikOIDKrKDmbL3APnb9hwfAG6ZvmrLuTxyyr9VJ+2wEKi0K7QGd/BaVCu0Bbtk+BxXIWhW4e1qUUDBzyTCPkZySTBvYyjah0BD5jVoZfCKnW8VDjIc3Qx8/s6LLUIM/CAoy6Yvij+ZhUcTYfKDWzrOTdsNd30ztk3UzR67YF9A0TaSwK30z7drWCUmHsulcsPBFmgXIWhfW7fyylYGCXh7FDizKaUelIs07/VzQvMXGF/Z+j/3qu5pVDi9aaiirkWTSZSfij+RjtbH42eYOKPj69meJY20tPW2ywHYB/l0FnUbATFlEpFVQ3LXQWBTcLOgWDqjwr2sBI1rqyVGhMpVN4YdPWhGxx5dajehaeuZZbFhsqZFvkWTSYdraj+QmUo/mkD1E6m2+Vc3nt7FkRk6bvLuo1vH0lHgtPAys1a0JjUdi+JIpGqaCqks6iMLA/nYJBVZ6rBN79cWmh17FR6aRRqHRKWtCZdKw6Tx34YKiHpVPHA22m9qxUIlThn2EBQJ4FFimKHNvRfH/K0XwSWKWz+VaOrSfMX7j8r7/mDW3oqE+/wmPR0lgU7OmUChQMFEkaiwKtcQkTgUKUK6GjPQsblY4XhUqnxCwlJh37oJmxqUXS/OfHZ7Zk4+ksaYqeVRAgF4BKMSowIQR0tGi1jhAP96f1vpFCbSOAPAuBaNWqVeuZaGjatCkYoeEvWmNxfwBMFGEQQJ6FQMnCwsLNRIOdnZ2xLNqyuT9iHtHDcBBAnsVw5qI8LZFIJAXQobi4WCwWQ4sXiETEnxyU5/BQ33pHAHkWvUOu9w7BnoV7O5CTk3P79m0n6DBx4sRdu3ZBizv9+eefT5484R43MJJbANUaFwLIsxjXfOnEWgcHh2bNmuVDh/Xr1w8bNgxaPH/mzJl16tRRazq3+1PbHAkYFALIs+h6OgxCv+EvWrBnATGrYgQNztYbxG3ExwjkWfigZZyyYMUaheHA/d2vGOHKlStGMSNlMRJ5lrKgRyf9kGkqeLLnx14BHvZ2VZqO+vvY/hP3Hv3ZygI3c++3JYU4iV98+Xs/IY5bdVlz+tfGFmAt4QKB0MrRO6D7t1vic1nO5cgUl+kCOoJtL808PrmEkuXhnUXtqnnLghNuN+Yc00EnKj/L5wfq5Vns0LX7k7JT6ZAWqTLpYJj006MDC8f17TpmVxr5m2pSFF0hEECeBQIkNhExnfQD3InvD0/uPedFyJqrae9fnP7Z/9XF+9m+P1zJv7+gwY25o1ckFGHmrZckHl/z970TE4PnXj//o3/w8mf5+ZkPon/wvTy196QD73ThW3gtWho/y4KP0y68SAXh6fbuPr0GBwlVkaDxs5yoPV2dvKoGRQkP96doA5vgotKR6VBh0sGw/MSNU3+75j1ixd6oQV5oochggrmQMggwEgdNriqkH5LkrZHHW0Sun9yumoOllWP1NmOX/NDBAqjGHfpERvqsH/XrVTnzECiTRdzS1s7C3M47aMTqnTM8Dq6P0YlrkXUFeRFQ+VnklCySpEXjkmatCmbiEqDxszQyl/XCJS8TYLjwcn8M7bmL1FPpKDPpYJIX/y3e/8ni2Y75C/958EkXHp/bZGOvRZ5F0xlkIP0QPX7wtEqdWnaESnHi/KbEux2rLuteg9tS4BG2ekOXk+Onn8hi3leb+Qb6W2e8fstcS2jU+AEWLY/tAI2fRUbJUnTup3UNI792YzWglJ9FdhZKrTyrIh1V8KHSKWHSkby+fN4s7OeV27b/6HN6VUyqDuZFR6M1ELXIs2g4EZJXuyLHhLoLzPymxp7YuP0x8SGKwNOnSsq1G7J9h1n92VcOfeMTvjVmvKdsveH2bX7ZNvb5jMl7Gd+zi5/fTyj0ruZR3hNC42eRUazkHfzlZJ+fZHsvFqwU/Cxbs4GEenkgpM8IT6VDZdIpzCt08vKyt3Zr27sN9iEHeRaeU1beNzJPcw1EXFqUeizq0eAHxE9LpUV35prtXhWbUSwVBo6OaHNj5pA5BxMzCwqznye/oTMzm9eZsPlXm6VzDivYPqRFeXnForzXN7d/+2Vk5qAJfZxlXkjrw4Tfs9D5WRyt8Lz9S2+Ejw1k4ZKh87O4WmIYtzzryMDGirWuLBUUKp24uFMbRpidib6ZJQK7SBWldCYdzLNBveTDh5/n5SbdeVkjsCrDR0wqGlABBQHkWShgwCZZSD9WPBdUG7kzNjLw1v+Ca1Sy92ofJR46sKn5y5Wdm0z8trv/j1eKMbxKn+XrxlQHt6n4/q9B7RcnnPquhpWVs3//FW+6bTi+vIdOqBV4LVoaP8vW0a7iJ08sx3/VkMWxYHR+li+sMTXyXBDDuz8uLfS64jurJ/y0++D+k8Q3c6IXF+MeJx+cMXDq3ncUKh1ZCyUmHWuBdfOx39c8NaFn/9/e9B3X1l4mhC7wCAjgRZFkCQIspB8RNTAMtw8cseLY/fTcwqLPGQ+OLh3gZ151yrlCqVT0dHEr2eebdi1mr5zgZ2YWMPdOEVjzUqlEVPDhxc3oBWG1rDBdBR6L1oJOyWLW6Je4Je2AK2QzjcbPgmFq5Vn0SKVM+wgWYfhiNiodVwqVjkybEpMO2HwJXFpP3Xg8LnbHrE5V2ByrrCm6MCFQsTzLdYP4tzaBuble71SNF60W4bK2sgLamO7A0jIe7q+0kQGlMt68AdGADCpXUyqWZwkyyH9rK9cbgKtzLcKVX1AAtHF0Btwf8CwtjDn06dsXRJgRtGvXjgMK06iqWJ7FNOaM7yjIRcu3lf7lwYfHVhUjgJHqH14994g8i54BN8TuxGJxVlbWf9Dhxo0bL168gBb/7+HDh3l5av5dCbg/Q4QG2aQpAsizaIqcUbUDbzQ47AXLHniWf6HD9evXnz9/Di3+b2JiYmZmJocBZBW3kaQMuhoLAlyexVjGgOzkRkDtdsDe3t7Pz28vdJg0aVLHjh2hxff279+/atWqZTSSuzmqNTQEkGchZuTjx49gx/7IFMPr16/BCI1iO2AURgIwUYRBAHkWAqW3spBhiuHp06dq9ywEBOiBENAqAsizEHBq+mrJQfpRcs5EkhY9vW+PsD9vFBMdYaI3pxZ8Gdyx55hV11iOJsrEyvEipfCzPJYZnX8loumA6PcsNlH5WfJlMtzyMhHVi67dnzR92/fzr8vGU9K5EpXO0aORjEw6617d1yeVTol1xv6MPEsZZpCL9KMEWIFX2ILIcB95NvdCVHTlnw4cXtUhcUHUVTVfl5TBMlpTsGjhXSeNn+X3SyKs6NacsfcnrvjChaZTkaHxsxwrwtTJKxqqJuCNVG2rrkSsnkon0XbqlXwGJp3xPgF6o9JRNwwjqpff8UZkseGYqp70Q9lWUUp8crWmdeztaoaG1kyITyMOSCvLlHNeQOdnkT74LWwJ7pP6774HOYw/v1fiZxGpk2cbHnB/bFVaKIem0mFl0sEMj0pHC7joUAXyLJqCy4f0o6QPgYOj2bUT194X5qanZVvbWOIlFTp9BouWx3aAxs9S9O93q2tErojo7n16ULv5j0re4imZW8rP8mE3jLxS85IsDyNLmsA9S7MvJFVq7x80Ojxrp5zDgo1KB8PUMulgOqTSgRuPUUghz6LhNMGTflA6EFTtM6nD018GjVz8711B2zbQFIgUFbpO0vhZxiw8khT+y7ROjVqGzxohPX7xI3PvZoHfnc54EBo1YtPlc8kQ8kxagPtjKtZGGR8qHaI/NUw6mKFQ6RC2Gu4DeRZN5gae9ENJO+4UNGn19pVfe5o3/XZITf2dS4TfDggEgsKPOeCTzoLXye+sq9Z0uHohqQiTZl0+97FBfVUuATo/i1vNmvbc8kp40LLwRtKacWc0o9IxV2HSwfRFpcM9HOOpRZ5Fg7liI/1IoJB+KN445J6YM2XHvZhZU/e8lkjS90zoMWT2/o/tJo9saKNBzxo14bUdoPGzbJv+07bx94cHNW4cvKn5toWtVckU6Pws/etNUSPPOgBeRrJqUakoOhvRos+itVE7EsFnWqKHB/bejF/bs2rnFRgDlU7jDEYmHUyPVDoq9htvAfIsxNzxvK3ZSD/8KaQfCmDtuy+MjYuLO7V6oKdA4DFw3amYDbP7+zso6on+df7gsR2g87PYNJr077W7d+7ejZ3XwYnRTJtG38U8THv94urKXh4CTL08oxJZIQ8jZfIwFzYqHdBWhUqndg1GJh1Mv1Q6wDKTiGW7wU0CAjAIJyfmVQOqTCDy9JsmMGJtDUHfTDrastsQ9CDPQsxC5cqVO5huIEZo8A/k/gx+ivgZiDwLP7yMURosWl280dA6FEZhpNZHbaoKkWcx1ZnlMa7Pnz8nJSWNhA4bNmy4dOkStPjImJiY17KDkRw2AffHUWswVcgQWASQZ4FFyqjluLcDlpaWjo6OnaBD3bp1q1SpAi3eqXr16nZ2sv934wSR20jOpqjS4BBAnsXgpkTrBqndDgiFQhcXlxHQoW3btn5+ftDiIwIDAx0cHLjHpdZI7uao1tAQQJ7F0GZEJ/YYxXYAOJdzFSboZJoNSSnyLGWZDSntaL4kbU2wJVjDuGWn1a/kv5STZp6a3amqo1PNkN8vZEkx0b2fA81xWTCvP/uWqCyd09pyZcCK5ao2jDpgJIi6s4WD8ILsVJp9c33EgF69h0zfFk8evvwUv3ly786hkzfeyyVF0JUHAsiz8ABLWVTpaL7Aa2Ls/ci2rRfeOzVZTpsgTop70vSv+JTLP9lunL3luSg9O2jTmyKpVPJmy7iwkADV37Qqd6H/vJTGz1JwfKRP1Qbg7Uzj8I3Jcm9Jt4nOz6Jent6amgMOl5rValqcduv+g3PHbpMMMpjAtd+fm8cF+I/ZuCTMTdaROO1uap3vN+2OGmZ1dP3xdAlWnLBl8b1O6w6tD3myeMPdQpkQusAjYASe5fq1ayDCD0lvkipH81V7NvMLnxhW29Gx3qD+LW0shAKfDr2auZhj0rfHbzn3DLJQbaCLEqlUCr9oJUmrZ76cfjv+zt1lNqc2/Xf0Chay+258fPyd/772ZbpZ6Pws+QlHbnPLsw0QGMlWpYVydsKLd/K/HzPz7tivvY+9fbVO7etbCc0wccqly67dunjbunfo4nX96guxFqwwARVgJYIIMxCmm7aPUmQAABAASURBVAWmnR5lglq0AFGPHcJ1JVU9ms/e8NOVRz5jBsg3Mpj0Xexdl17N9eRY2K1iqqHys7ysWu/lnq3g7Vyn8B92PPjMJI7R+VlyLp66zy3PqETHhdLc+DTbwBr1enbIORn3jr7zcnV3r+LuXmpAXuJLt94d3QTSj5k5js62oMLKzvZT9idGchpQW8EiWIkgwgxa154FxgajlGE6ms8yEGn2lV3POvwYVgUnBaTvTtxz6dnEnMzp5Qq/Z8Go/CwNcK/BK7fsjo352XlRh4jLIhZbFfwsVfI9YeRZ1OiqGJ7wQpqbcDq10eD2zjiGOzjbf8oh3jzlffjo4KLnc166gkKPepFn0QRslqP5TKqkn5+duywMHdvJ7uWdB7LXS7Bjue8c0lh/joXXGw0aP8v4oy3mTG5fxdo+4JtR7heuZLK8cCv4WbY7hs+FkGfEScqinEmYRxk84YU0P/Vuglnr0MbWGU+Ts/HqrVqkHT+dmpt65kxGUItqaKHwAJ0QRYARKPB8sBzNX3ZlTbeAGRcvz2rYpeS7oc/X/whpGdwryEMosGvz9xt7ALc082SCS0hDIc8+yyYOv2eh8bOYPx7W+PenIkz0at+u540bu+AqVtD5WWz2dW3ELa+igFIAbySlkZokG+HFOwrhhUxF/sOd0ydOmzm+f3CnHpMPZVkLLAJHTfWNGR06/rjftFEB+nsdkFljAhdwq5vAKPQ8BJaj+dNaTTxdCDYI0sKzJd8N2QbNOp8pJsqk4tS1XayAobjrlwtnNNanYwHdg34hI42fZWfUpqmJ4TU8Pdvv6XEsqjPD8qLzswwbsU6NPKsVvIxk1aJSwUZ44UohvJA1sq43bFXM2TginP1vWjNLDMMrNZu8KTbu8LrxTRxUXSrGFlA5iQDyLCQO6FqCAI2fxdZv5K57r16/fX721w7OJRL0Zxo/i1C9PL01NaeLPQtVP0rrEwHkWfSJdvn0BbYDhr9ogZHgjZhPxQiNGjUqn1tBj70iz6JHsFFXnAiYmZn5VoxQqVIlTiRMoRJ5FlOYRbVjwHFcrUz5CoA9S/kagHrXLgLIs2gXT0PUpnbR5uTk3L59uzJ0mDx58r///gstXnnp0qVPnjxRC43hv2VTOwQkoEAAeRYFFKac4F60Dg4OgYGBj6HDH3/80bdvX2jxx+PHj/fz8zNlfNHYVBBAnoWARCKR5JtoEIlEavcsAAKhjKLFBS7Y2dlZWVnByRJSNjY24NNZ0AtHhDGSozmqMjQEyt+zGAIiL168uG6i4dKlS4aAMIwN3BsrGA1IxnAQQJ6FmAuxWLOjrBykH/Jzb8qsH5K06Ol9e4T9eaOY6Fc/D7Ad4LFo6SwKMgulb3b2bT77rnxIsqLSS1HCim61/Gp7uTefd4M4ZgNqOOVBPVMERjIVa62Mg0qH7EOJSQfDih5tHFTHzsKuzqBNj4tIGXSFRwB5FnisVCS5SD9IYFVYPwReYQsiw0sOPatoLP8CKovCvN8viTBMkrpl5LcxmQViRs9CZ1EgViC3PMcIebg/Di3MVeJnpy9e2rf5jPzANo1KR9ZCiUlHgomurNrsvf5l7su1bts33dXslUemuYJeyAVQQQdfxmGzk34oFCuzfigq9JyAX7QC17oeD6MP37p7dPeNqi39zCQpf4/bHbzsW2+WP6GmsyiYY+rk2Qau2z2LeiodJSYdDBP4BlZ5dutVgVTgN3hAAMvo2UbDWV4xKpFn0XSepRykHyo6S1g/VCr0UcBv0VJZFAItk1dNON5/w3cNrLhuFHH82iFhywpDu3mIk2DkWQYN7/5YFLAV86HSUTDpCHzGrAy/EFKt46HGQ5pZs6lG5WwIcN0wbG1QOUAAnvQDo7B+gIblEuEXLZVFIXbUmEELJQ3FJ7fsufLsyn9HEln4YEtYFIYvXzn8Dwh5JgikOmJRAH3BU+lQmXSkWaf/K5qXmLjC/s/Rfz1nfCcIdKPIhgDyLGzIcJXDk35gdNaPcrlBeS1a8PVw4ccc8PlywevkTNumv/0zvb1vtWoejjaO7lXsVQ8701gU3Hx6LNnJLc+FKrz749KiVAdPpaPEpFN4YdPWhGxx5dajehaeucbiU5U6Q9lSBJBnKcUCOsVG+pFAIf0gfYgK6weWe2LOlB33YmZN3fOaFIHuVeeCsg5oLAo7pod0Dgaha+/Q3qG9gnwIFgiZlOJCZ1EYWr+lGnlFQ+UEL/en3Jg9z0alk7amlEpH1lqFSceq89SBD4Z6WDp1PNBmak/TP+cjQ0GLF+RZNACTjfTDn0L6QQKryvph331hbFxc3KnVAz1JEQ3659kELFoe2wEai4Il2ZXAb+yysX7M9tJYFEhxjEteLsLwxMNIhtbMRWxUOl4UKh1ZS1UmHfugmbGpRdL858dntlTzN2wyDehCQ4D5bqGJVICMLu7pCgAbGiJCgBUB5FkIaKpXr97QREOLFi3ACA3fdYKNFbATRZNBwBg8i+7BNjMzczTRYGVlZSyL1vDdn+7vRNPpAXkW05lLjpFwL1rgej59+nQVOiQlJb179w5a/GpqampxMfi6icNADNjAVY3qjA0B5FmMbcb426t20ebm5r58+XIqdPjnn39u3LgBLT711KlTQL9aw7ndn9rmSMCgEECexaCmo3yMcXBwqF+//hXoMGfOnJ49e0KLXxk5cmTNmjW5x6bW/XE3N61aUxgN8iymMIvcYwCL1li2A28qRsjPz+eeMhOoRZ7FBCbRFIYA3J9IJILnqTNqyevXr5vCnHGOAXkWTnjUVHKQfsh/YKvM+iF6sWt4LQu8UtOIYxlyETV9aKUax3FYPdLM45Nb1Qts7N84fP3jYgb2FSVFdAl6TklUTRbHoY1Uo4mhmoNKh5RWZtJRzpNS6AqLAPIssEgxyIk5SD9IYJVZPz5ET1vptT0j+0L41eFTj35i0KmDIrAdgNcqSVo98+X02/F37i6zmff7iYOR5wedf/rkxb76kbOPFTGoofOzvDusTp5BhT6KuKh0ZP0rM+ko52VC6AKPALkA4OWRZCkC6kk/MCXWD1Hihfh6XZo5VQocO67h1QtP9cYnhOOw2wE6P0uj8G37vvYofnt53606XRqpHkjEMDo/S+UwdfKl8NFTvNwfvSlETj2VjjKTjnIeohMkQkUAeRYqGnzS0uwLSZXa+weNDs/auTdNzTsbOeuH0MVNeHzb0Tf52c+fvbO1t4Fd7nzsUpXlt2hp/Cy2wMJS9hWQUdUOSugS9ByoLvfIh0pHmUlHOV/ugzEWA5Bn0XCm4Ek/sFLWD0Gdccv63xlUrcE3f8YJ+vVhOeOnoUXaaUblZzk5dt0rKVbCvjJiazZLF3QJeo6liUoxP/en0pyrAJ5KR5lJRznP1QuqoyNgGp6FPibd5+BJPzA664fUrfvSi4/P/+ZrGbxieqCeKBDBosVxtv2GMlhUfpZ3VkXL6jZamizCcpOe5Lm6WioLYxiNn8XV5dWcOtzyqhpKS3Ac1sjSNmpT8FQ6ykw6ynm1XSEBKgLIs1DRgEwXnY1o0WfR2qgdieCDEtHDA3tvxq/tWbXzsisU0g+JTJcS64fty2Ut7Xz7rc78Ytm89vYyCUO70PhZts38/d9Rcb2qeTZc4Ltv+xcMnI10fpb+AbPUyLMOF7g/1royVLBR6byjUOnI1Csz6RQ+3Dl94rSZ4/sHd+ox+VCWNVooMpjgLwgweKwUkmykH60opB8ksEqsHzbVp14rzLy9fUorZ7JeoVKXCbBocRx6O0DnZ2FiX6HbSpeg5+iS6nI4Dm2kOlWKejYqHVcKlY5MWJlJRzkvE0IXeAT0eIPDG4UkKx4C/NxfxcNHacSGn0WexfDnSAsW4rj2twNaMIuuwtzcvH2FCfShm2AOeRYTnFSlIYHtgFKJAWaBkXhFCgY4Bdo1CXkW7eJplNoKCwtTU1P/Bx327dt3584daPH/xcXFZWZmqoUGOBa1MkjAWBBAnsVYZkpzO8ntAEd7IAC+bLaGDhYWFmZmZozijIVCoZCjd1Rlkgggz2KS08pvUFZWVp6enrOhQ2hoaGBgILT47LZt21auXJnbJuDduAVQrXEhgDwLMV/v378/Z7oBLFqjeKNhFEYStwt6QCCAPAsBUlZWFvGEHuWHAHB/5dc56ln7CFQUz8KNnKavlnTSD1kfha/Orp0xKiykR78xfxy6duH6sxe7JwZ37PTF7GPpYiAgehA1tHPHjl2n7b+19ZvgjrLQuWuv8FE/rDiWlCcFEjqJPAYopfGzZMVOqIELrC1tA+fdLGA0jc7Iol6eUYmskIeRMnleFw4qHVKP6OV/45q72djXDN+SJJIVfbw4r62z0KXtnPMfZHl04YMA8ix80FKSVSL9wDDpx8srZm7MaDF1zX8x/y4dUf1tfPInz8FrYjeNqfFoU+S+58WYsMGkrYsivt+4+IumI9atHFy9yeR/YmMPbv5tkOeDqJnLL2brwrfw2g7Q+Fl+27V2cd7y9+L8nAO1F845SS44Ogg0fpYj9/9WJ09vXZrjZWRpM9iU+Nnpi5f2bT7zmWwg8JoYez+ybeuF905N9iGLhJ59V197k3ljUvbOk2/ANBRdnffN+UHXs26Puj1m9jlmr0q2RFcmBJBnYUIFrqzoySOLsMktkk9cyQF3ImgjeX1i1/X6434IC3S3tbC09wgInTRYRmqC27QZN87t8B9bE5T4T3FzK2tzoY1bvR7f/W+Iy8VDl3TiWoBp0FHgWtfjYfThW3eP7r5RtVXnn05u7euMY3lpqfZ+Pky/tqPxszRpMFOdPIchOtyzQFDpYEJzc/HHl4n5XacP8MIxccLBQ97Dhvo5VAsf6nfiCHFCjMN0VKWCAPIsKpBAFjCQfohfPU918vGWHdwTp2wfQ7zb6TrtYCbwO7hL+4gfm91cuu56DnlWUbkXM8+aNSw/ZH5grlWW5pUH2wEei1aFnwXDck6MnWWzYm4jtrPZyows6uSZrAdGMhVrpQySSkfyfE1IYP+fV609nirBpO9fZ7m6E38Ub+PokP2u3D0+byDKuwHyLBrOABPpB+7i6vTm4SPZXWhW/as1C3u5dpi1oG9l2Ws9bhMw6qfQ9L9WxBGeRqVXcXry82JXd5fynhAVfhbxy797fCPYGP2lq4rNJQU0RhYI+ZJ2Ss883J9SS+4sLJWOoMaUC5nPjw97szkmVYI7V3HKziL4RHPfvnfxKPd54R6iAdaW3sjXr10D0QBNNECTpMVv79zAv1i9Kw6EUxtGmJ2Jvpklkgpr9gxv8Ojv3zZeTMkuLMpNf51F/2RCWLXvzNGWezdeUbwnkooKC0SigsxHJ1b+/s/HTn1bO8i8kHaHDLYD8ItWIBAUfswpxrCC18l1Wtnf3z49aGVo7Paejsw20flZXC0zDw3ilGfWAkqBkeCq/ciDSgfDcHM7t+q16gb4OQvM/HuHPNvyz7MPz/7d/aJ7SL3ShYLpIYCVCKIeOtJdF6WABbVoAaKoOv4EAAAQAElEQVTuejIhzcV3Vk/44c+VWy7ng697RC8uxj1OPjhj4NT/0gXuIXP+HOf7ZOO0Ib1CwqccEHfpVNssY9/UMctX/jhybYIIw53bTJ7W2x28rRAnbx0/ZXfKrVVDunYLHTl33/vm0xdPbmGvA8fCD3gqP0ubiJC0Xf8I8rb0C6hTJ3DsAYavSOj8LP3e719ziVOeyxh498elhV5XxEKlk0ah0pG1kLza2MNJaOXW/Pv0EbO72mGYZbtf1gT8FejcfEujtb+0tZAJ6e0CViKIeutOFx2VehZdaDcWnTxfMFlIPwZ4YBhuU7PHlEWbo4+dOn3iwJZFkzp6m1fpv/JUXNyZnRP8hRgINvW/mtLXy8zMd8SG02DHA+KZk4f3/P37mPbeDJxtoIE2Io9FS+VnCaw55lj66+THRIj/u58TkylURhYzb/XyTDp0V8ZGpeNFodKR9S7w+fr4B7B7TDj4vw6VZasCd+m67F6e9MO1yM7gM2yZELrAIyDDEF7cRCVdXV0rV67sqqdQxcPDXT9dVa5cuWbNmjz9ZvnMsVEYWT7QGGevyLMQ8+bo6Ojv71/f5IK/v7+3tzcxQmN48NhYGcNwKriNyLOY/g0AtgOGv2iBkaY/ExVphMizlMx2BX7Oycm5f/9+I+gwd+7cQ4cOQYs3Wr9+fXJyslqADd/9qR0CElAggDyLAgqTTYDtAPeidXBw8PPz2wodvvnmmzZt2kCLb+3Tp4/aN2XASJOdgAo5MORZKuS0qwza2tq6IXSoWrWqs7MztHjDKlWqWFio/96W2/2pmIwKDBoB5FkMenq0ZZzhL1qwZykuLjZdkhzlkWlrZsugR7dNkWcpC74cR/Pl53+kmadmd6rq6FQz5PcLWVJM9PI/paP6Zekesi1YtJCShJiUxqIASnLPT6w79AhIMEc6iwKQUSMPJFgiPztZlLAVqye8uHrlH0a+i4MZyfokvGAbgLGVI89ShhkTcxzNJ4EVJ8U9afpXfMrln2w3zt7yXKJ8VL8MneuoKY1F4fdLOeendxu763FWMVt3NBaFY0V56uTZ9Oi4XJx26/6Dc8dul56rUCG8SLEesCaWge+ibxVfvRFe6BgFfaonF4A+ezSdviCO5pv5hU8Mq+3oWG9Q/5Y2FkIMox/V1w8WYC+A47DHBmgsCi39rAJmntg/0RdYzmIrjUWhkbm5OnkWNRgwkq1KC+XQhBc4G98FZniEF1rARYcqBDrUbdqqIY/mkyB8uvLIZ8wAH4A27ag+WWlYVzqLgoWTsx2wmttECouCOYw8tzZM69XS3Pg028Aa9Xp2yDkZ9072PpWN8ALD1PJdYDokvMBMJ6i9a0xnqNodCezRfNCrNPvKrmcdfgyrQuwbaEf1QaUeItgO4DjRN0xfKiwKEI1oLAoQ8kwiwEimYm2U8SG8IPpTw3eBGQrhBWGr4T6QZ9FkbngczZd+fnbusjB0bCe7l3ceyF4vKUf1Nelbx22oLArvrB2t1HgkZRaFsliH42o600S5tPjttf0vO28+EwfCKVjCC1W+C0wvhBeajNBA2yDPosHEsB3Nv0I5mi/bc2Ofr/8R0jK4V5CHUGDX5u83tmlKR/U16FyjJjgOu2gtey9bnD/Jt7KzZ/9HM7aOdsUw3Na3dUPwjDEFOovCFwSdHqc8kw5ZmY72LAThxU+7D+4/mUInvMAYCC/8shj5LjBDJbyQ4WawF+RZ4KdGIcl2NL8V5Wg+Caxt0KzzmWKwaqRSceraLjYqR/UVOnWYAN3z0E5lUQggeB1w76+3z2/DqoHKoiAbtBp5VkUYjsO6P3YdyjVshBdAToXwoqonI98Fpl/CC2CZSUTZvWASI0GDMGoE+Lk/PQ1VIBSa6akrk+sGeRaTm1KVAYFFi+Pa3w6o9FPWAktLy5oVIzRr1qysYBl8e+RZDH6KKoaBwP2BD4+9K0awtbU1ilkti5HIs5QFPeNoCxYtjnPtWYBAUVFRKnTIysr6/PkztHhqTk6OREJ+pM2FGI5zGcnVEtUZHgLIsxjenOjdotzc3MTExFbQ4ffffz927Bi0eKstW7Y8e/ZM78NCHZYnAsizlCf6eusbx7m2Aw4ODo0aNXoFHZYuXRoeHg4t/mrKlCm1a9fmHizYN3ELoFrjQgB5FmK+xGJxtomGgoICY1m0OM7l/oh5KnmgZ8NHwAg8y3Xt/cUam6oXL17cM9Fw7do1je9CNrg0VsjR0FjcH8cQKkIV/C1hBJ4lqIXW/mKNTRXM54tM9w2d9EPy7sDULh1B6BIR/Vb+gaUoI+7PcX27hQyZeyxNBFRI0qKn9+0R9ucNVloCIKTlCBYtjkNvB6Sl/Cz3HJs0drrZwdHC1sZn6P6SISlZR+dnKX4SpUZeqTkli+PQRlJaQSY5qHRIDcrUOUrMOqRQhb+yrSBVYIzAs6gabSglSqQfAtd+f24eF+A/ZuOSMDc5sEKXthFr98es++LTqZtZUgwTeIUtiAwnDj0byiCU7JAkrZ75cvrt+Dt3l9nM+/3Iui++8z6U+zlj5buvvrtAuEYlcYzOz5K2Xp28cvuSPHB/JUldPIs5qHTI/pSoc5SZdUghdIVGQL4AoOWRYCkCKqQfWGmdIiUUCiWfM14UNhvS0RVXlOo1ARYtjsP2LXCt6/Ew+vCtu0d336jaPOfYw9DRrSwx++4D/c7Fpcs3YlTrafws/nePqJOntlVK4ziuVKK1LASVjhJ1jgqzjtZsqSCKkGfRdKIZSD8YVUnSD0wfPXdz9IHrspPOjDKGVEjlZ2lQkGXtI9t+CZ2cRB8/sdip4Gdxz34PI8+kBrg/pmKtlEFS6TBS55Qy62jFlIqjBHkWDeeaifSDUZXAo/+qmF2LumYdu1R+rgXHYbcDNH6WiVcditNkn68UZmXZuTmx3C0KfpYd1lVEEPKMOGE6OZGIgQBLpaNKnUNj1gGaUIRHgOVegVdQISVZSD9YsMCF1k7u3tV8vezLB21e2wGBQFD4MQd8vlzwOvmdTUD/5tF/xHwQvd4eldqjOwOVAp2fxb3t4Gbc8iwQ6a6YB5UOhtGoc1SZdTAUlBFgz5fPvc5uj1HUsJB+7E048MOov+4nrP/6+5LvhiRvj/zYu3PXfuPWvO8+rJkNGF3uiTlTdtyLmTV1z2uGTy2AQDlHOj/LxDF793nN9LKqs6HXwcjGDOd+lfhZ3AapkWcdHS/3x6pFpYKNSieNQqUjayR5RafO+Uxn1imnFwWZacZ5QZ5Fg3ljIf0Y6N9v2ak4EE4tL/luSODWa/HhMydjti4Y3shRhrV994WxhMjqgZ6yvAbd820CFi2Ow74bwuj8LALPsC1P8kS5txe0tWful87Pol6eWQtRiuPQRhLiUA82Kh0vCpWOTJHA5+vjH0QFmQkH/9ehMpgZJWYdK5kQusAjADCEFzZZSTMzhpdjkx2tQQ4MuD+DtAsZpSECyLMQwFWrVq25iYY2bdqARYvj2t8OEMBp9YHj2jNSq4YhZRoggDwLARr42NLGRINQyP5fQcTQDeUB3J+hmILs0AYCyLNoA0WD14HjXNsBkUj09u3bv6DD2bNnnzx5Ai3+1+3bt3NyctSChONcRqptjgQMCgHkWQxqOnRijNrtQGFhYV5e3l3o8PLly6ysLGjxuxkZGZ8+sf3MTj5ktUbK5dCTkSCAPIt+J6qcesNxru2Ara1t9erV10KHESNGtGzZElp8bUhIiKenp9qh4ziXkWqbIwGDQgB5FoOaDp0YYxTbAWCkWCwGu6GKENXu4HRyH+hXKfIs+sUb9caOQHFx8fOKEW7dusUOg4nUIM9SlonkIP2Q/8BWifVDKVuWvuHbgu0AjsO+0ZA8WNSuGsmg74Tbfb17+9B6Hp4ebnUHb31WzNhlVuyEGrjA2tI2cN7NAnHKP+rkGZXovpCDSofaeeHTnREz92XIZu9T/ObJvTuHTt54L5cqgtJQCJR4FihhJERHgIv0Qw6sEuuHUpauziByggbTL7wgaPmfbu/u091n649mq5+9Tk9aUjxhQvRnVQslj/9enLf8vTg/50DthXMORU+exi2vqkFeAtyfPKWTJy4qHUWH0s8P4x68NyM9aHHClsX3Oq07tD7kyeINdwsVQigBh4B8AcAJIykaAjCkH0qsH8pZmj5dZcCixXHYPYvcCEnSonFJM+fYvPRsGWCLYdZVPKwLCsTySsqToM7Mk1v7OuNYXlqqfU2HpOdq5ClN9ZksevLIImxyi+QTV3KkbP1Ks+6ez6zX3s9aJiBOuXTZtVsXb1v3Dl28rl99wTB2mRy6sCCAPAsLMGqLpdkXkiq19w8aHZ61c2+abPvM2EaJ9UMpy9ik/AuLzv20rmHkNwF9hhX+3H/mioVf9YtqOL63A6thOSfGzrJZ8XOXfsPg5FUVAfenWqilEhgqHVH6lavFzdr4mMtdsPRjZo6jM3CqmJWd7afsT6wOSUs2mpwa5Fk0nFJY0g9MUGPKhcznx4e92RyTCvyPUlbD3vk2w3H5goFrmHfwl5N9fupgYVZ31r2n60OkZ/ZIflo1yIWlsfjl3z2+EWyM/tIVTp5Fje74Wd6e3vXnrLBOnb+MunHjSOwrcvtBt0KUcmz9kukDOnfqE3nx1qoRv58vdnC2/5STD6TyPnx0cHFACwVAwSciwPigVSIrLUo9FvVo8AMReKWVFt2Za7Z7VWxGMdvLGo31A6OTgGB6CMBIfr3k7V96I3xsoOyUptDJIysu6auds/2FzEoyDw0KWhkau72no6xerbxMSvXC20hVFYwlkFQ6Qr/Rm0/HxcWdjZnRtum3W//X3rp6qxZpx0+n5qaeOZMR1KIaWiiM8LIXIsDYsWGtKTob0aLPorVROxLBy5/o4YG9N+PX9qzaedkVCukH2J6A9kqsH0pZIGCIUfzkieX4rxrKHAsmfvL3OtvFSzoR3DIMxkpT96+5JMjb0i+gTp3AsQc+qJNnUKEownFeGytFO65E8Z3VE37afXD/yRRiql5cjHucfHDGwKl731GodJjbWwSOmuobMzp0/HG/aaMCzJmFUCkrAsizsELDXsFG+tGKQvpBAqvE+qGUZe9BqzVgO4DjPBatWaNf4pa0k29RzGr/eGJnf7Y3QhjuPeZY+uvkx0SI/7ufE6ZGnnVgwEjWujJUsFHpuFKodKjqcYeQ35f0r0LMHl6p2eRNsXGH141v4sADPaq2ipwmICTHD/8fRaQ8uuoGAQPSqudbolyOZWe8eQOiAYEuM0XPyMv61PKl1LPA/0eRlk1A6nSMANgO4Lgmr7p6viUsLS076D0MHDQIRL1324F7zvWMPLcxmtWWehbN2qNWCAGtIADcn1b0ICUGggDyLAYyEbo1A8e59iw5OTngc5JQ6LB8+fIzZ85Ai4f++++/r169UjtCHOcyUm1zJGBQCMB7FoMyGxnDAwG12wE7Ozt3d/fx0KFTp061a9eGFh/fpEkTZ2dnbovVGsndHNUaGgLIsxjajHAJNgAAEABJREFUjJSDPQKBoFKlSr2gQ8OGDb29vaHFe9WqVcvWlvg5K/fYcBztWbgRMqZa5FmI2Xr79u050w1gO4Djhr5ogZHETKCHqSCAPAsxkx8/fiSeeD84juaTv5STayw9my9Ji57et0fYnzeK5VWG9kRnUfjm4JHJreoFNvZvHL7+MbPJNBYFaeZxdfLsA8ZxHbo/afq27+dfLxmCJG1NsCUOgmWn1fIPgFQJLghLC+7+0an3qpe02STK0UMdAsizEAiBW4x44vvgOppfCiztbL7AK2xBZLhPaS3fPjWQB9sB+AEKqCwKPdtfn/1y+u34O3eX2cz7/ZJItXM6i8KJx6tncsurapCXACPlKZ08iZ+dvnhp3+YzciIIgdfE2PuRbVsvvHdqsg/ZIQPBhTTn+t5Lr4WFbMc2yIboyoiAXm9xRguMt7AI4mg+JqWdzTeawcpYFGat7hvg8TD68K27R3ffqNrSj/y9P20MgjoUFgW/am511cjTGitl4N2fUkP1WRjCC6G5ufjjy8T8rtMHeBGbJ2lGXHRaUFhjOyKjvgskQUcAeRY6HvA5aW58mm1gjXo9O+ScjHvHsl1WPpsPr167knwXLcmi8LWbVf02wh3DBw4YuQ1rF2jLvsRIFoW5jWwh5VVHp8s9CyThBY3gQvT88JGirn1rW7IPWnUQqKQUAeRZSrHglZJAHM3HVM7mF/Hqg0WYbzH/RVvCopB/6MeoLrdzk55+SJl4cuy6V8xvC0pZFODk2ezn6/7Y9CiXwxJeUAkuihK2zB7Xw9tM4DLqwMmI+l9GI1I5ZVjV5JFnUQMQYzXk0XxM5Wy+BaM6QyvM2y9nUQBfRxd+zAEfexa8Tn5n7WjF9PpNZVGAkdfzYHkRXpTyXVg0/CW+GLhkyfvN/bouT9wZZqlnu42+O+RZNJjCYpaj+QmUo/ksb4+w3BNzpuy4FzNr6p7XbCIaWMTZBCwQXtuBUhYFy97LFudP8q3s7Nn/0Yyto11Vu6GzKBxro05eVYO8BBgpT2n1iY3wIo1CeCHr0DgILmSmGscFeRYN5ontaL4/5Wg+DVjK2Xz77gtj4+LiTq0e6EkT0cAMXTWhsChY1P1674P0zKyspGPfBjC9bCuxKFRRJ89lMy/3x6WIUsdGeOFFIbyQibMQXODOI/fHTqlqqFMlM90wL9qEzDBHCGOVjl4wYbrWgwwYnS4WrXYtB0ZqVyHSVr4IIM9C4O/u7u5loqFevXrECI3hYfjuzxhQNBQbkWchZsLe3t7PRIObmxsYoeEvWrRnAdNkShF5FlOaTeaxGMuiNXz3p4wvyrMjgDwLOzYVpiYnJ+fGjRtgYUPGUaNGbdu2DVIYiM2fP//x48fccBqL++MeBapVIIA8iwIKk02ARQuWN8fwHBwcmjdvDsQg4+bNm4cPHw4pDMRmz55dp04dDgPIKm4jSRl0NRYEkGcxlpkyfTuBDxJVjABGavLTiTyLKU4xfUzgPjb87QAwsqCg4FLFCOfPn6dPkQnmkGcpy6TSST9kmgqe7PmxV4CHvV2VpqP+Prb/xL1Hf7aywM3c+20h/ksLK778vZ8Qx626rDn9a2MLsOBxgUBo5egd0P3bLfG5zOdyZHr1daHxs9j2H9+2mrcsOOF2Y84x0ChgVH6WvAeL2qmTZx+IRKLDXyVzUOlQLSpl0pFm31wfMaBX7yHTt8XnGMDEUK00hjTyLGWYJSXSDwyTvj88ufecFyFrrqa9f3H6Z/9XF+9n+/5wJf/+ggY35o5ekVCEmbdeknh8zd/3TkwMnnv9/I/+wcuf5ednPoj+wffy1N6TDrzjvoWzVAJpvaIYZKlpkCUjcGFkgrwyypBVCn6WWwcjfXpPXHbxRSoIT7dH/m/JuLo5pAy4tm/fXqbk/eO/F+ctfy/OzzlQe+Hle+7TL7yIj49Pfbq9u08vIC+TyQLyAQEBijSZAFdQDiJIgAj2LCCts8hFpaPolMqkI067m1rn+027o4ZZHV1/PF2HPk/RvWklkGfRfD5VSD8kyVsjj7eIXD+5XTUHSyvH6m3GLvmhgwXoAHfoExnps37Ur1flzEOgTBZxS1s7C3M776ARq3fO8Di4PobbtZA81eBKRqACrElwBVnGKygEUXXRkvKgiow2NrT/VgU6s94/Wzdk/axVwflZwC8QZC3rPb/wNcdAFdmE3M87O7uQ/CwfsjLTUu2fWjtlEfLSpEXjkmatalaFYNV2lnFr379/HzQk09SrohAklNwfKNFahKHSoTPpmHl37Nfex96+Wqf29a2EDMw0WrPNRBXp17OYEojS7AtJldr7B40Oz9q5N032miZ6/OBplTq17IhhihPnNyXe7Vh1WfcabEQEHmGrN3Q5OX76iSyZKCFCe5j5BvpbZ7x+y1xLE1VkyCWqyJIJsLYZy8laxmteXl5YWBi1yi5+9rqGkV8TP7LDst7d+UmRoQqVpEGPhc8OzbJZMbeRGdG1OIUqD2pJQaKKTDFdVd0fk5RmZTBUOmxMOnmJL916d3RD64Qv9AgxvojJ5SWvdkWOCXUXmPlNjT2xcftjMSgXePpUSbl2Q7bvMKs/+8qhb3zCt8aM95SRD+D2bX7ZNvb5jMlyNwTkqVH8/H5CoXc1D54Twr1cyQ7AooXZDpAuQHYtPvjLyT4/EdstoL/40Tl5RqZOJiBLlVwkH2/17392Y/SX5FloqjxoTkqBd0NkguMKYyRHc9YqGCodZiYdaW7C6dRGg9s7y2aQtQNUwYAAzxuZQUNFLGIh/RAGjo5oc2PmkDkHEzMLCrOfJ7+hMz2Z15mw+VebpXMO55aAJi3KyysW5b2+uf3bLyMzB03oU8Z7GCx7xWIu6YP/c/HDpTfCxwaSbwHyHl5JU2QYlGce+m/9tdDY7T0dyY7yTk2fo5Ani2CuwP3BiPGWgaTSYWDSkean3k0wax3a2DrjaXI2n70kbyNNsQHyLBrMatHZiBZ9Fq2N2pEIdiqihwf23oxf27Nq5xXPBdVG7oyNDLz1v+Aaley92keJhw5sav5yZecmE7/t7v/jlWIMr9Jn+box1YUYJr7/a1D7xQmnvqthZeXs33/Fm24bji/v4Qjz4gjcBxmVTAeFqiWgsFq1aiUfuIIcEZXElLKS9+8tx3/VkHQs4ifvhc1KMnLBqlWrylOYNOXO85d48ZZ+AXXqBI498AErJXeRiwBn1KhRo/uyz1nkRSxPutizsFHpvKNQ6TCak/9w5/SJ02aO7x/cqcfkQ1nWAkYptYUVVwABpsHcs5B+RNTAMNw+cMSKY/fTcwuLPmc8OLp0gJ951SnnCqVS0dPFrcwxEOxazF45wc/MLGDunSLwQi2VSkQFH17cjF4QVssKVENEsFZBZBMEnkNRBcRATElJuXDhAkgookKAMSFw7xS3pB3wfkStWaNOI7uXZIgCoIR4kj9wh6bDfvj+u8dEiP+jvTTrY9Xvomf754DPfeUSkE9SKfg0ClKWhxgblY4rhUqHqk7BpGNdb9iqmLNxRDj737RmllQhlIZAAHkWCJC0LCIwNyf3A2XSS1/hhCpQAiKRUnlofTsANkFkJ9QeQRpEUE5eQQJE4Onu3r1bnp+zACNQ1DsCyLPoHXLddwgWM7UTrW8HXr58SdWvrTT48rt+xQgtW7bUFmgGqwd5FoOdGijDlJwIaEPdL4AsS2QoJhuSV0W1qn5FFTXBJgbKFQpBmtpEkQblQAa4P4FA4FoxgqWl6b+7Qp5FcYcbXwKsSTajqVVg0XK/G7K2tt60adORkvDkyZOrV6+SOZC+cuWKIk0m7t27988//4AqMgsEFGnQUJEGtWT66dOnN27cUDKVaiFZxW0kKYOuxoIA8izGMlNyO8HLuzyFYSANIplVJEAWpEEECY4IBEAkBTIyMt6+fbu2JPwuC8+fPwcFIAmuZFSkz5w5Az6xVWRBLZkGTUACRFBCRjJ9+/btN2/eKLoDnYI0iKRzAQlQAtwfuKJoMgggz2IyU8k6ELBoubcDDg4OtWvXPkwPkydPpheU5qZOnRocHFyaL0mxNRk0aFD16tVV7SN9iqKc20iFGEoYBQKG5lnKB7SioiLwom2S8dOnT+WDKc9egfvj2QKJGzQCyLMQ0wO+7HhoouHWrVtghEaxHTAKIwGYKMIggDwLDEpsMhykH/Jfg4sy4v4c17dbyJC5x9JIdpPCOysHd+7YMfibrcliNr3aLee1HZCoUqzkX4loOiD6PYtRVH6WApkMt7xMRPXCy0jV5mpLpOnbvp9/vZgqp0Slc/RoJCOTzrpX9w2TSoc6FsNLI89ShjnhIv2QAyt0aRuxdn/Mui8+nbqZJcUwac6tlLrLTsXFnd4wwlcLv5crg/XMTRX8LDKKlcFBwqJbc8ben7jiCxdGecljCj/LnJPAeXLLMyqRF+pyzwJBpZNoO/VKPgOTznifAA2odORjUv9kqhLyBWCqw9PpuGBIPzChUCj5nPGisNmQjq44Jsk4E/3Pjj8X77r5FixCnVpXqhxsB3gvWoKSJWnWqmDzB7+FLcF9Uv/d94CRWE1A8rPgWF5aqr2fDy5SI19qlVIKGKlUos0sNJUOK5MOhvOj0tGm9UapC3kWTacNhvSD0C1JPzB99NzN0Qeuv5NgAvfQ+RsWDG+QvmnOujt5RLVhPorOkRQrWbu/W10jckVEd+/Tg9rNfyR/i6dqc86JsTJ+lo+Q8qoaQAlv9wfaQEUpPJUOhqll0sE0odKBstOkhJBn0XA6YUg/ZKoFHv1Xxexa1DXr2CXgWjAzy0reDXt9N71D1s0UPW1bwHaA56LNk/OziO6L2iz7ZVqnRi3DZ42QHr/4UTYi5Yv45d89vhEQ/Cyi++eSw9XKK7fXdZ4PlQ5hixomHUysGZUOoboCPZBn0WSyIUk/5KpxobWTu3c1Xy97Odqij09vpjjW9jLEz1kIm/P2L70RTvCzCKo6W6ZeSCrCpFmXz31sUN+eqFV6ZB4aFLRSzs8iqFrT/qoaeaXmJVng/kqSWn2WFqUei3o0+IEIdCAtujPXbPeq2IxiqRoqHXMVJh1M21Q6Wh2lASqT3+sGaJkBm1R8Z/WEn3Yf3H+SoOMXvbgY9zj54IyBU/cmUEg/yDcOkrdHfuzduWu/cWvedx/WzEaafXnt7FkRk6bvLuo1vH0lXD9jBGuK156llGJFUKPFF83uDw9q3Dh4U/NtC1vLmRUoZktT96+5JMiT87PEOE7ZNp5TntJUJcnLSJXWzAVsVDoYA5VO4wxGJp2yUOkwG1UhSpFn0WCa2Ug//CmkHySwArdeiw+fORmzdcHwRo4CDHdsPWH+wuV//TVvaENHLfoVe6YABkYWgwQZs2SBTHNczRr9ErekXU4WwbFi7h7077W7d+7ejZ3XwUnWBuigMD/hNv13Jjy4eeXKlcePCX4Wm0aTlORBo0aNGoEriKAtuDJG4P4Yy8tYyEalA9SqUOnUrsHIpIOVgUoHdFNRo6CiDpw2bjV6Hb8AABAASURBVAsLgmGfVmRUmVxZACbLnnPJhOIKErwiWP8gKv30HmgAhSCC8pcvX6rys5BV4AoiECYjmSb5Wcg0Wc541cWehbEj6ELtMOlAd2dSgsbnWXQBv4+PT1vjD2Ar4S8LDRs2VIymWrVqYDvAd9EC98GIs6L8/PnzSp6CrCKvqm1Jtkq2WiAPjARXFE0GAeRZiKkEC8/M+EPlypUFskAdChgaMULoh5K/gG6nBUG+pmqhS6RCZwggz6IzaA1GMdgOcC/avLy858+fT5AF8tyyLElcQJZ4kj0U6a1bt169elWRBQkQZSLERSm9bds2W1vbGjVqcGxYAFTASHBF0WQQMALPcv3aNRBNBnHdDQRsN8Dqjb93jy9cQqHQzs4OvIcCEXgZd3d3kCAjYxq87XJyclJUgQSIpDy4KqWBQvDW6c6dO2oHzu3+1DY3WQFDGhi4tUCEscgIPEtQixYgwgwGyQAEOnbq5FerFkgoop+fn+qiBW4IRFIGfIDt6uo6viQ0a9asJDmeMd2pU6cxY8Z069aNFAMyIJJpcFVKDxw48Ouvv27Xrp2iO7JTdDVGBMBKBBHGciPwLDDDqOAyYNGCSIJAJsgrKAG7GHBt2bKlogRkuSNoAoTJSJVUlIM9C9iGkFVAjEyQVzKruIImIILvhshPcMlyUlLpCt4NFRUVmSiVhfKw3r9nOzmuhIoRZ5FnMeLJU5gOVi8ZQQmZAFeQJuPTp0/BxyKghIxkITVNllCvZC15VS0H3zorCkkZcCVLQIKMZJbXtbCw0CTJt1QH9eDBA17IGKMw8ixlmTUpjfRDkrYm2BK878AtO61+Rf4GV6684O4fnXqveinBRC//G9fczca+ZviWJD2dGsIwsB0AVslNUfekxM8Se2SkT9UGgYGBjcM3JtPGhGGkKjo/S8HxUvlsR2ewSQGxUaNGAQEBQBw4HXBljMBIxnJtFXJQ6ZBdqDLpAOQ+PTqwcFzfrmN2pTGOnWyJrkwIIM/ChApkmRLph8BrYuz9yLatF947NdmnFFhpzvW9l14LC6VAq9Cz7+prbzJvTMreefINUQDKDCvS+VkG2B6/HbL7bnx8/J3/vvYtHZPCZiV+lsKEIzR54EpAJN8NgYSiGWMC3v0xNucs5KLSIRsqM+lgWH7ixqm/XfMesWJv1CAvhrGT7dCVGQEEGDMuMKUqpB9MjaQZcdFpQWGN7cgf8wvNzcUfXybmd50+wIssYWqk3TKwHeC9aOX8LI1unrp/ananTuE/7HjwmckqJX6WrItq5Jl0yMqAkbJn3VxgqHSEQiqTDiZ58d/i/Z8snu2Yv/CfB58M8lVAN1hpSSvyLJoCyUD6oapK9PzwkaKufWtbKryI5PmakMD+P69aezzVgDfYcn6Wynmeg1du2R0b87Pzog4Rl9nfv+WQ/CyBhZDyqkiBEt7uD7SBipBUOjQmHcnry+fNwn5euW37jz6nV8UY8mRBYaB3IVP0LHoBkYn0Q6VjUcKW2eN6eJsJXEYdOBlR/8voQkxQY8qFzOfHh73ZrLe7FWwHeC7aPDk/i6B6+NzJ7atY2wd8M8r9wpVM5lfuUn4WOHkVmIgCYCTxpIsHLJUOnUmnMK/QycvL3tqtbe822IccA34Z0AVmZdeJPIsmGEqZST9UVAkb/hJfDNaM5P3mfl2XJ+4MI/50Eze3c6teq26An7Ohgp9Xws+Svb1ro9+fijDRq327njdu7KLYeVFGSuVngZGnNFVK8nR/Sq1ZsryodChMOgLPBvWSDx9+npebdOdljcCqQhb9qJgFAUO9uVnMNYxiFtKPZVfWdAuYcfHyrIZdVsu+GwJfi5CxxGzJq409nIRWPy054TL5+2ZFBE1BSRXxTAqTVyJf8iBLFNeSYq5nNmFFOUiwtRc/eWI5/quGZhjmOGTd1MQ982bPWZ8/4+Kfnc1VWxD8LLW/7r+lX0CdOoFj43oA+fAanp7t9/Q4FsUkj6n2C0pA9PHx6datmxLtg2p/SiVAXqmEzIJyEEG6mIVK5x2FSgeIYZgSkw6GWTcf+33NUxN69v/tTd9xbZk4r2Tt0IUFAeRZWIDhKmYh/ZjWauLpQrBDkRaeHWqbDVaLc0n4gPXZHzulqkDg8/XxpLevp08a0q+Jt4sz8aWsoh+qPCgEWXBVxBJNxLOikC1BtiVEZV0Ak8jtALUctCWzIKEUSX4WIVEqdO4TNWHa9wt/nda/iReTPMHP8sP33z0mQvzf/Vz9Ru669+r12+dnf+3gTCigP5g0EBLA1JcvX548eVLBAkGUqnuQvoNbio1Kx5VCpSPToMSkA8oELq2nbjweF7tjVqcqwMuCEoONhmgY8izlMCtgISl6ZVxsVAGFJK8EVUOdOnUUbRXlioSiii1BlVSyFmSptWwaFOXcwhZaYsmB8TgKk1BCRwggz6ITYLmXkNouwYqlypRFG2ir2LNQdcKklcyAaaKxDDDSysqqg0oIkAWV4g6guEmTJtWrV1eqUpSrVilJlm9WY6CMpSHyLLqaKbCkVVUrrVWqDDXN2BC0BVG1qrxKgDHcNsMbBlRVrVoVLHWQgGkFxLTVNUx3SEYDBJBn0QA0fk34LgMgDzqgrhxQArJkBGlQCyJIqEayHFyVIvk5CygETcAVREUCpM3MzFq1avU/egAfqS6VBZAgoyy3FKSnTZtWuXLlhg0bgjSIoBxcmaK8bOXKlc+ePQMdsUUwtBcvXihOOVLFQBWI1BKONBgUvDCHHlRVdgSQZyk7hlwauO91UMvYWGl5KGXJJqBQNYIqUAiujJGsAp2CSKZJMbFYDFb1eHq4cuXKN7IAEmSU5b4BaeCCatWqBRJkBOVkgu06cuTIGjVqkH2pXhWWkO4P2KYqQy0BAoom1HKQZisHVSjqGQHkWXQIuOoaUHvrqzbRrn3AADIqqTU3N/dWCQ6yoCiW5RxAtlGjRkDepiSAcjIJqhgjEADbIqUelbLgcxZQAmwDV7URoERGIKmUUGTJKnBFsVwQQJ6FgP3169fntB1u3759//59hVaQJdMpKSlkAlxBGkSQICOQUTQBaUWhIg1KqPIgyxipMqAtWLTkdoAYaskDrMCSJOsz2zoH3xCDPQ6oJSNor0iANN+osAQYqUhzKCH7Iq9ATCmhyJJV4IpiuSBQMT2LMtSfPzMet1MWU8mzHs1PFdjl5hL/zkGezT8QEzt1zyMRhomebTq4bcu+ffs6dgwevv6xBMNIMaAZfFeqSIMsNbKVU2WU0kCbouTRo0dkGqxbEMk0uIJFCK5KUYlFIUWCZWW9f7Ozb/PZd6UYxtAkK/bw8nkCa0vbwHk3C0hlUlIejI7Mw1yB+yPFlLoABoNIVpXlykF4QVWr4LuQFyrn5cXoSS0CyLMQEIFXS+KJ74P9aH49WxysbRCdfHv9vPP0kN51P526mSWVZH2q59m5L/jc4eK/K+d82eSzzPsougXyiqgoBG5FUQgSIKuoYkuQMkAYRJAGi5YcILlowUIFkUyraqCzKAyuV9lZmnN3T3y1kAbCSs7KP34DTufJxcTiHjPepb06UHvhnJPAeWKS1C0jv43JLBAreRbQKYigR3AFESTI6Cz7OR/4krhdu3ZkCcwVaAARSIIriCChiIqsIoFhXIQXioZSCt8FUaicJ8rQAxIB5FkggWIQK3ryyCJscovkE1dywMs5TQCsZ3kE26Hs9EcXzzUb0tEVF7g1alW3kjA358Xhf68VmtM2SnJ5ypNCI6WM2AcpyjkSiiZKMmAZk1GpXDkrZ1EItpak7J20qLA+dvZOobIMsYVxqd0n4uvWXi7O5mmp9n4+OCZJ+Xvc7uBl33qr/GyV7FdxpWoDheAd3MWLF0GCWg7SoAREkFCKoJAaqbUM5YW3blhOWR5yf+vhLOWpUrSU0vkuMOW8QhAlYBBAngUGJSYZyKP5GO1sPqlImn3jmUPLugzHcMh6LV8VexZ4vUXnflrXMPJrN1HSqgnH+2/4roEV940iZ1FoJIWUV7UEGKlaqKUSGMILZb4L5byWTCkvNfrvl/uG0b89RtMj7NF8jH42nxifNPt6kkPL2kIibZgPOYuCeeqG4X9IGopPbtlz5dmV/44kMu+YFCwKleHk2cZMvmVjq9W8HIbwQpnvYu8dFf4LzQ2okC2RZ9Fk2nkdzccoZ/OJzqTZN547tPAzZMciZ1HAHbst2Tm9vW+1ah6ONo7uVeyZdlkUFgUoeQIChodUyvo2hUEavkgKR3ihzHcxoPkv8Sr8F/C9IkkMeRYNbgK2o/kJlKP55MeXKmfzMUz68WaKQ4uaenQsYNHy2g4oWBSuJ7wT2NoFBwd37R3aO7RXkI+VClgEi8IlQZ6cReGUU8vOQJxB3trK6vq1ayrNaQW8jKS1ZM+wEV6klRBefLsqVq1h7OppNUAPiLSiCpxBnkWDyTdvMnXf2bjTG4b7go8phTVHbjwdFxd3atVAf8rRfBJY1bP5GO7YdezQWnp0LLwHqGBRCCr5DzmB39hlY/3IIdHV4d5jjqW/TiZIFB7H/93PiaxVlc8vKADayFrqVZEG7k+R1mKCjfDCq4TwYs233aiG4c4jZXwXJSYo50vKmZ6BHhCZaipiGdPdUvFw0NFtbSBAgtHpYjug9dEZhZFaH7WpKkSehZhZb2/vGuUaqlatSu0fZJUiYy21kC0dGBhIjBDDKD/uIAuIKygE0cbGhsjAPYA8sI0qC0qUIrWWI022IgWA+yMT4EotB1lFJMvBVVGCEgaLAPIsxNRYW1uD1aL/aFcSKlWqRO0dZEFUOAuQVtSCFopykFaUsyWcnJzq16/ftGlTYpyUB1ifIJI//cjLywsLC6NUMieBPKgATV6+fNm+fXuQpkZQTkZqIVtaoQo0IdNAEuxZyDQoBJFMg3IygiwoBBFkQRpcUTRkBJBnYZ4d/ZSCdQIiY1+M5ZqtqISEBO4uwH6huLj4nrrw5s0bUgR4lvz8/MTERDILyl+9ekWmwRVkwZUaMzIyRCLi57mMZoBCMC5gA0iACNLgSkZFWpEA5YzIgHIUDQoB5FkMajrkxlAXD1hU1KxcQhtPQDOpJjc398OHDyPUhQMHDpAiGzZsAK5EkR06dChZDq5HjhyhZkEJiDExMSkpKWRfHFewZwEjBZFDBlUZCwLIsxjLTBF2glUHIpHi81BsB6iNSD2kc3F3d3dzc7urLvz000+kyK+//lq7du3x48eTWcX1zJkzqoWgdsyYMX5+fhglkL0rCpSyjOVsMgphlDAoBJBnMajpUDYGrHy2FcVRpayFJU9qBnpAfXR0NLhCRvCZDpAkm4MENTIWUgWU0mTvoBC4PxDBJz4ggndPIFpZWYE0GcGbNTJBXkEWCJBpY7yKxWIwZMOK2rYGeRZtI6oXfWBBwq9hsGLBGw1Vu0glpB6YT3CpGs6fP0/NapYGBoCGpAEg8enTpxuy8IgSZAU30tLSyAR5BVkQybQxXi9evAjGa9oReZayzC+iEiy/AAAQAElEQVQH6Qf5G1y5cirLR37cFF8hjls0+e2BmhcucuHJVVCeQLliNVKK+SWpSsDLvqKxEj/LqXsrutXyq+3l3nzejXyZEGgIPsGVJWWXrNgJNXCBteX386Nfi7CiBGV5mRDrRTEQ4P4kEhporG1kFeCzIdkz7IWVSif6LamCZNLpFjJk7rE02afNxS+OzBvWI7jHsHlHXxaTMugKjwDyLPBYqUhykX6UAktj+ZBmnUoIOlMklRbdntPATEWj+gKwsKlCSllqlSINFq0izZEgVdH5WXq/W3J+0PmnT17sqx85+1gR8aMYhS+QyUse/704b/l7cX7OYJcLP16THo6kyXN3R1eFgY2VvX3pnxEq+Q5qFYdalip2Kp0wN7KJ0KVtxNr9Meu++HTqJkG1IEqIPub6455je6Y5xR59puZFgFSBrhQEShcApRAloRCAIf1QYvmQvNy9OnLBmDGLT6Zq/jJIXZDUNJTR7EI0VXJ+lr5Dtu372qP47eV9t+p0aZibpZApUSOoM/Pk1r7OOJaXm2P5ZU1pGEW+kTnhiUokac/AKympUnV/clcia0f1MtRyWSXEhYNKR9FaKBRKPme8KJQx6WCYwLOmU9rjt0VS3KtzR+IYh0IQJWAQQJ4FBiUmGWn2haRK7f2DRodn7dybxrKPV2b5EFQbd+BOzJzWyT+HTY/7hPENYEGCJuBKRpCmRlBIzVLTYDtAzYI0WNhAHkSQVv0N7rs7p2T8LKASE8evHRK2LPx/ve1wwlOAJuATXKVfyuWcGHvKvEcHd+J2IuULQ7vZfsgi2qs8gAZQBq6KCLIgkkaSjoO8Uh0KEACFIIKEUjko4YyQVDp0Jh2BW+8pHeKnD4q4XCu4riWnflTJgABxKzAUoyJ1CMCQfmDKrB/RhZiZtYtf+69Xb+j/5mSC7O08wcwGlrmzaodEKZ0gkiyhXhWtyEJFlpoA2wHw1S8QoBaCNCgBESTA5yzU74acna3ivp/V56cOFqAOw8wCvzud8SBn7JD9AiBORPA5C/gEF6Rk9RjJz9J2VEcfmbWkfGjUCFKelKFeQUPVCIwEMsBlgEhNgDQZQbkikiWwV1gqHTqTjjTn9jnRqK1bv7XZHRmTzvLKAWtCBZRDnkWTSYck/cCEDRlZPorf3zmZ6NrET5PPWTQxl2+bPDk/CyZ5OqdOo6XJIiw36UmeqyvjKzeFnwVKnt0Ycs/CXq9RDS8qHSqTTlH80eMpnySV/ENaFt9OzNOo84rcCHkWDWa/6GxEiz6L1kbtSAQf7IkeHth7M35tz6qdl10pIf3osvoV44ucNPPQj/1CO7cOWVTw9ZwwF1yDvjVoArYDvBatgp8FE9Sa9e+ouF7VPBsu8N23/Qtr1c7p/CwxldXJq2rQbUnxndUTftp9cP/JFGKqXlyMe5x8cMbAqXvfUah0ZBZI3h75sXfnrv3GrXnffVgzGwyzbDKgU/JvYV1DIy42GNDSTiaELvAIIM8Cj5VCko30o1UJ6cfZyT40YEtYPvDKoYsPHDpz4/qeGe1d9eRXFFZDJxT8LKCFTaPvYh6mvX5xdWUvD9qQQB0RlflZ1MkTbRgfwP0xlpexkI1Kx5VCpSPrQpVJx6bel0v+Ox0Xu3vxl/62Mhl04YEA093CozkSNQIEwKLltWcpryEJBOhuLC/std8vmkvtY4o0aoAAcH/ge59GFSO0bt1aA4jKuwm//pFn4YeXMUqDRWsUexYzM7NKFSOYmzNxlRvjvcVuM/Is7NhUmJrCwsLXr1/Phw6HDh2Kj4+HFp9/8eLFrCzm37YoMAbuT5FGCRNAAHkWE5jEsg5BIpGAhZ0PHYqKisRiMbR4vkgkAvJqrTSKjZXaUSABEgHkWUgcTPkKvAb3orW2tvby8vodOvTv379x48bQ4r937NjR1dWVG2JgJLcAey2qMUQEkGchZgW8/KaaaMjOziZGaAwPbvdnDCNANpYiUOpZrl+7BmJpjcGkgFUg6tQc4FWSeIbLly6ByLNROYjfu3cPbAcMf9ECI3U6xcalHNzwIBqgzcAqEGEMK/UsQSV/WwXTTJ8yejBMg4VXxd29inuV9yeitj+UH/8hMSl8dXbtjFFhIT36jfnj0LUL15+92D0xuGOnL2YfSxcDCdGDqKGdO3bsOm3/ra3fBIO3CSB27torfNQPK44l5enmD0hBt/BR8mBRu2resuCE2405dIxkX7ENnHezgFFLCT8LKUHPMTZgLdRgFlh1qVRwUOlQZalMOrL/s1wzMsjNqumiJMbfVFNbajWth3teM3vhDSv1LJr1VKFbidNu3X9w7thtkhIJQCH9eHnFzI0ZLaau+S/m36Ujqr+NT/7kOXhN7KYxNR5titz3vBgTNpi0dVHE9xsXf9F0xLqVg6s3mfxPbOzBzb8N8nwQNXP5xWxd+BawHYBftDR+lp5t7i4l2VcO1F445yTNhYLhgljKz0JInEgoYWshckzyoEm5RC4qHYVBNCYdDPt8bU7nIcdqzY1LvfxDTbRQFDDBJRBgcDgxSamQfkhen9h1vf64H8IC3W0tLO09AkInDW5E/HIBt2kzbpzb4T+2JiicEKkQN7eyNhfauNXr8d3/hrhcPHRJJ66F7IvXleRnWT1yzsmtMvaVtFR7Px+G8wil/CyERLW6JWwtRI5JntUI4P5Y68peUXjrhuWU5SH3tx4mSJ2Y9Ukz4qLTgsIa25HDlDxaPmZ1ttW9BcNG/GEw08JsuUGWIs+i6bQwkH6IXz1PdfLxlh3cE6dsH0O82+k67WAm2IjgLu0jfmx2c+m66znM+2ozz5o1LD9kfmCu1dRITdsVnftJwc+CYTknxs6yWTG3kRmrOroEPcfaSLkCfmOl3FJNHoZKR5lJR5IcEy389t8LDx9tqLMrYt1Tw5gXNQM1pGrkWTScDSbSD9zF1enNw0eyfYdZ9a/WLOzl2mHWgr6VZS+CuE3AqJ9C0/9aEUd4GpVexenJz4td3V10MCFgO8Bz0eYd/OVkCT8Lyb6yMfpL1q+N6RL0nMo42QqAkWxVZS2HodJRZdLJy81z86vpaOvTb0wf6dv3yLNATANVRAc3MlW9iaZZSD+ENXuGN3j0928bL6ZkFxblpr/Oon8yIazad+Zoy70bryjeE0lFhQUiUUHmoxMrf//nY6e+rR1kXqicYcsr4WfBMCr7CrNVdAl6jrkFWylP98emhl4uLUo9FvVo8AMRcF3SojtzzXavis0oBrtIupgKk451zTYt7q/fkJCbfe/sowbt6gnp8iinDgHkWdQhxFBfzEz68V+6wD1kzp/jfJ9snDakV0j4lAPiLp1qm2Xsmzpm+cofR65NEGG4c5vJ03q7g7cV4uSt46fsTrm1akjXbqEj5+5733z64skt7HXhWMCa4rVoxU+eWI7/qiEwks6+cuCDKhZ0if0P9q+5JMjb0i+gTp3AsUzyqhrkJcBIeUqrT2xUOmkUKh3mDm27/fFXw50tHDyGpkyI7OfILIRKWRFAnoWAhudtzUL6McADw3Cbmj2mLNocfezU6RMHtiya1NHbvEr/lafi4s7snOAve92zqf/VlL5eZma+IzacjpOFMycP7/n79zHtvRk52zC9h1J+Ftx7zLH018mPiRD/dz8nVVPoEl80UCevqqG0hJf7K23GmWKj0vGiUOlQFZQw6YAygXvvqLufpPmPtwysCrwsKEGRBwLIsxBg2drqk9pHIBTq9U4FflMXi5YATnsPYKT2lClrQnn9I4A8C4G5p6dnB9MNxAiN4WH47s8YUDQUG5FnMZSZQHYgBEwJAeRZTGk2mccC3mhwbwdycnISEhJaQYfffvvt6NGj0OKttmzZkpKSwmxcSSkwsiSJnk0BAeRZynMWDaRve3v76tWrL4MOQ4cObd68ObT4si5dunh4gI+31QyX2/2paYyqDQwB5FkMbEJ0YA7YDnAvWlALPsNuCR1q1qzp6uoKLd7S29vb0lLNF1/ASB0MHaksNwSQZyk36FHHSggUFBTcuXPnnqkHMMaMjAylsZteFnkW05tT5RGB7QDYlSiXsuSVWBTOibDc8xPrDj3CIo5hKrwJauRZFAEj8/PzwSc+2aYewBgfPXrEAoPpFDN7FtMZn25HIk3f9v3868XyTiRpa4ItwRrGLTsp/iNR9PK/cc3dbOxrhm9JEgE50Ytdw2tZ4JWaRhzLMMijKDQWhV6DG1ye3m3srsdZJWMEQ6BFOovCSVHeeW55WmOlDI7r4hfI8k6k70+oodK5euUfRiadgxnJhkmlIx+ZgT4hz1KGieEi/ZADK/Tsu/ram8wbk7J3nnwjxT5ET1vptT0j+0L41eFTj34qQ986bkqyKKwKdgiYeWL/RF/Zr4eZuhTUofMmmKuRZ9IhKwN7Ftmzji5i9VQ6KdYD1sQyMOn0reKrNyodHY2+PNTKF0B5dG30fcKQfmBCc3Pxx5eJ+V2nD/DCRYkX4ut1aeZUKXDsuIZXLzwlWOZ0DwNYtDjObzugYFEwd3K2g7hHFLwJkPKMg8ZxfkYyKmEuhKbSYWXSwQyWSod5xOVeCnHXlLuNhmkADOkHYbnk+ZqQwP4/r1p7PFUicHETHt929E1+9vNn72ztbXS2koiOy/CgsiioV6MhbwJdMXB/9AIt5iCodEqodDAMV8ekgxkWlQ5moAF5Fg0nRvJqV+SYUHeBmd/U2BMbtz9m3X4Iaky5kPn8+LA3m2NSsTrjlvW/M6hag2/+jBP06+OnH/TBosVxPk4sr5RFQT06ZeFNoGvHcT5G0tty5fhQ6RB6cG4mHUyHVDpE9yby0M+9bSJgKYYBSfohl8fN7dyq16ob4OcswN26L734+PxvvpbBK6YH6vVcotwYiKdSFgWZMG7r27ohG+2TNFWFN4FTXqZRnxfNqHRUmXQww6TS0SeU/PpCnoUfXjJpNtKPKxTSD/KLH8mrjT2chFZuzb9PHzG7q50kZVlLO99+qzO/WDavvb1Mlx4ufPcspSwKMuNw76+3z28jS6pe6CwKMp4FTnlVDfISYKQ8pdWnYhYqHYyBSscvi5FJB9MjlY5Wx16+ypBn0QB/NtKPVhTSDxJYgc/Xxz+ICjITDv6vQ2UBJqg+9Vph5u3tU1o5k/VqO69IAjiu/XdDbFQ6AFfcpiadSqeqJyOTDmbAVDpgGIYa0Q1uqDNTwewCexYbGxsDG7S+mXQMbPhlMgd5ljLBZxSNwaLFce1vB7Q+dmtra9MlyVEemdbRMzSFyLMY2oyUjz0ikeg9dPj06VNBQQG0+Pu8vDzg3bgHplaAuzmqNTQENPUshjYOZA87AmDR4jjXniUnJyc+Pr4OdJg5c+bBgwehxeusW7fu6dOn7AbKa3Ccy0i5EHoyEgSQZzGSidKlmQ4ODk2aNMmEDqtXrx40aBC0eOa0adNq167NPQLg/rgFUK1xIYA8CzFf4LaWmGgAQwMRx41gO4DjRmAkcbugBwQCyLMQIKWmpl4w0XD+/Hliw7l8DAAAEABJREFUhAb/AO7PsG1E1vFDAHkWAq/CwkLiifeDfjRf8u7A1C4dQegSEf2W/KWcXGPh050RM/dlSDDRs02jiCMqQCh4+PrHBK+CXMRQnpT4WU4nRnVwtLC18Rm6nz4khb10fpbiJ+rkFQ1VEjiuwz0LB+EF1ZCCu3906r3qJTF7RY82DqpjZ2FXZ9Cmx0VUGZSGQQB5FhiUWGSUjuYLXPv9uXlcgP+YjUvC3EqBlX5+GPfgvRnBcCLJ+lRvRvSpuLiz0TND27dgJydg6VCzYrAdwHHYRUvnZ+lxf8B33odyP2esfPfVdxcYHKESP0v6+i+45TUbQdlbcRFeKLRLc67vvfRaWCj7b1bRlVWbvde/zH251m37prusx8IUjVGCjkDpAqCXo5x6BFSO5jM1kWbdPZ9Zr72fNVEpcGvUqm4lISb9cP2JQ8t65kSZYT5Ifpal1icfho5uZYnZdx/ody4unXgpp9tL52dxv3lEjTy9NSUH3B8lp+0kDOGFNCMuOi0orLEdLutd4BtY5dmtVwVSgd/gAQFmsjJ0gUcAeRZ4rOiSDEfz6QJETpR+5WpxszY+5uTdShSBhzT7xjOHlnW141iAPjURLFocpxmgpgGGyflZXD+8t/aRbb+ETk6ij+xMVXJ+loY5kPKMBuA4PyMZlTAVwhBeiJ4fPlLUtW9tyxIbBD5jVoZfCKnW8VDjIc1krwtMqlEZGwLIs7Aho6ac6Wi+ShNRyrH1S6YP6NypT+TFW6tG/H5e9n5dmn09yaFlbaGKuMEUlPCzCFyriNJkn68UZmXZuTkx3y2l/Cxw8ozDBO6PsVwLhTCEF6KELbPH9fA2E7iMOnAyov6X0YXSrNP/Fc1LTFxh/+fov56r7ta0YJhJq2C+V0x6yFoYHMvRfBXNQr/Rm0/HgY9VYma0bfrt1v+1twAi0uwbzx1a+OnPsYBFi+MlL8XAALUxr4SfRdhqcLPoP2I+iF5vj0rt0Z2RSoHKzwIjz947jvMxkl0PrQaS8ELY8Jf4YgCU5P3mfl2XJ+4Msyy8sGlrQra4cutRPQvPXMulKUUZ9Qggz6IeIxWJYuaj+XsTDvww6q/7Ceu//l7puyGqBunHmykOLWrqz7FQO4dKU/hZ7Aft3ec108uqzoZeByMbM3zYoMTPIlInz2oAWNWsdWWoYCO8SKMQXjCrt+o8deCDoR6WTh0PtJnasxKzECplRUB3noW1S+OvYDmaP9C/3zLwvU9c3Knl1O+GwHhxh5Dfl/SvIgMbd+w6dmgtA3YsGJWfReAZtuVJnij39oK2jHwyyvws6uQBGKwRx7W/Z2EjvPCiEF5QDcKdR+6PnVKVmCn7oJmxqUXS/OfHZ7Z0oMqgNAwCBIQwckjGeBEA2wEc1/6i1S4gwEjtKkTayhcB5FkI/KtWrVrXREOTJk2IERrDA8cN3f0ZA4qGYiPyLMRMWFhYVDHRYG9vD7YDOI4WLTHROn0g5VQEkGeholFB0yKRKDMzcxt0uHTpUlJSErT4tvj4+E+f2H8MI0MduD/ZM7qYCALIs5jIRHIMAyxaHOfasxQUFOTm5p6BDg8fPnzz5g20+JmUlJTs7GwOC8kqHOcykpRBV2NBAHkWY5kpHdppZ2dXo0aNLdDhm2++adOmDbT4lj59+nh7e3MPALg/bgFUa1wIIM9iXPOlibXGsmglEgnY2lSEWFxMnE/VZC6Npw3yLMYzV2WwFMcN/Y0GcH/Ap9yrGOHy5ctlmEzjaIo8S1nmiYP0g3bQpJT1Q/Ri1/BaFnilphHHMmgiZTFD+23zr0Q0HRD9HhOn/DO0noenh1vdwVufsb7O5p6fWHfoEYJjAU5e+/aq18hBpaNoXHhn5eDOHTsGf7M1mWRNkH56dGDhuL5dx+xKM+DJUthvUAnkWcowHVykH6XAUlk/PkRPW+m1PSP7QvjV4VOPqvm6pAyW0ZqC7QCO89mzFN2aM/b+xBVfuHw+OHma2epnr9OTlhRPmBD9maZWnsk7P73b2F2Ps4qlGAYjL2+m/ASMVC7SZp6LSkfejzTnVkpd4kfUpzeM8CUOMuQnbpz62zXvESv2Rg3yKp1PuTh64kagPAHjtszwa2FIPzAa64co8UJ8vS7NnCoFjh3X8OqFp+Qro4GNVPTgt7AluE/qv/vuv3z63LNlgC2GWVfxsC4oYDTXPGDmif0TZSRW0g/P1MuzjxbH+bg/dj0MNRBUOpKMM9H/7Phz8a6bb4ndFyZ58d/i/Z8snu2Yv/CfB5+A22RQi4rYESj1LNevXQORXRLV0BC4fvXc/nhxe/+g0eFZO/eybZaVWD8ELm7C49uOvsnPfv7sna29jc5WEs1UsB3AceiusnZ/t7pG5IqI7t6n/4zMH9TgTP+ZKxZ+1S+q4fjejKdnzJ2c7eR3Ee7RZ1jhz2rkaaaVZoCRpRktp6CodATuofM3LBjeIH3TnHV38jDJ68vnzcJ+Xrlt+48+p1fFpOr33RBYiSBqGQb9qpPfE6DToBYtQAQJFGEQaOaZuDFihLvAzG9q7ImN2x8zvp4rs34cqD5uWf87g6o1+ObPOEG/Pn6l6MN0qRcZ0f1zyeG/TOvUqGX4LP/bpzyXbFgfIj2zR/LTqkEuag0wqzvr3lMe8nSFOA7t/ugN1eSgqHSADjPLSt4Ne303vUPWzRQRVphX6OTlZW/t1rZ3G+xDjn49C1iJIAKbjDca4L1tBGBCkn5gKqwfVm7dl158fP43X8vgFdMDiTfzehgtr+2AoGpN+6sXkoowadblcx8b1Hdy8siKS/pq52x/IZSpQp7yUErLIARLpSPvQvTx6c0Ux9peZgLPBvWSDx9+npebdOdljcCqcKOXa2F7qkjlyLNoMNtspB9XKKQfjK9xkpRlLe18+63O/GLZvPaMrAQaWAPTBMdhtwOCGlO2jb8/PKhx4+BNzbctbI0/+Xud7eIlnWw4usFtfVs3dCV7EEPIM6ni5f6YFDCXsVHpvKNQ6chaSrMvr509K2LS9N1FvYa3r4Rj1s3Hfl/z1ISe/X9703ccM4WErCG6MCOAPAszLpylbKQfrSikHzRgS1g/BNWnXivMvL19SitnWj1nb/qutGk06d9rd+/cvRs7r4MTZlb7xxM7+3O/EcK9v94+vw35qg4jzzIiHCedE0u1RsVsVDquFCodmWLcsfWE+QuX//XXvKENHWV2CFxaT914PC52x6xOVfS0u5RZYiIXw73BTQRgAxgG2A7guGyxGIAxbCYAIwUCdDeywWN85WgujW/OtG+xYWh0cnIKqhihXbt2hgG5Dq1AnkWH4BqIarAdwHHj2LNYV4xQEXZnyLMYyPIvTzM+ffr07NmzQdBhzZo1586dgxYfFB0dnZaWpnaEOG7o7k/tEJCAAgHkWRRQmGwC7Fm4xwY2Cs7Ozv2hQ7NmzapVqwYt3r9u3bqVKqlhv1drJPcQUK2hIWDYnsXQ0DJae3CcaztgZmYGPMtA6AA+DKlevTq0+MD69evb2dmpBQ/HuYxU2xwJGBQCyLMQ0wHeDiSZaHj37h0xQvRACOgXAeRZCLzT09NTTTQkJiaCNxo4bujbAWAkMRPoYSoIIM9CzCSOa7bwOEg/Sn+DS2X9ED3bNCq4oywED1//WHaoljDA0B4l/CzSzOOTW9ULbOzfOHz9Ywh+Fjh5ltHiuGazwKKOXsxBpaMQzI+b4ivEcYsmvz0gjoF9vDivrbPQpe2c8x8UIrpOmI5+5FnKMJdcpB8lwNJYP/CsT/VmRJ+KizsbPTO0fQtf8merZbAAqinYDuA4n0Wr4GeRJK2e+XL67fg7d5fZzPv9EqMjpPKzwMizmAyMZKnRSrH42emLl/ZtPiOnmBF4TYy9H9m29cJ7pyb7yDuQZp1KCDpTJJUW3Z7TwAwrujrvm/ODrmfdHnV7zOxzBXIh9ASLQMkCgJVHcqUIFD15ZBE2uUXyiSs5rPQddNYPgVujVnUrCTHph+tPHFrWMy/VZUCpUn6WB58q1/V4GH341t2ju29UbenH+Bt3Cj8LJnBVL88+Uhzn4/7Y9TDUQFDpSF7uXh25YMyYxSdTic2ZOOHgIe9hQ/0cqoUP9TtxJJHYxDAoRkVsCCDPwoaMunIo0g9MifWDVCrNvvHMoWVdfTkWftuBrFJ+lkHtllu3Eu4YPnDAyG1Yu0BbxoVP4WfBMKv6bdTJkxCoXPkZqdKcs0CafSGpkjoqHUG1cQfuxMxpnfxz2PS4T5j0/essV3fiq3IbR4fsd9msrx0YCowIIM/CCIv6QljSD4zO+kEolmZfT3JoWVtIpPX0wHFGr8DQO5WfZYR4909RXW7nJj39kDLx5Nh1r9Qtr/xDP/KSp/eP47BG0tupy0le7YocE6qGSgcoMbN28Wv/9eoN/d+cTBDhzlWcsrMIPtHct+9dPFzQQgEI8YkIMD5olcjyJP3AFKwfhAJp9o3nDi389OlYiG4hHzR+lpyq9kUfc8Cbg4LXye+sHa3UrXyBQFDIR55ik672LNKi1GNRjwY/EIEOpEV35prtXhWbQXD2UvqmJIvf3zmZ6NrEz8zMv3fIsy3/PPvw7N/dL7qH1EMLhYISTBIBBoOSkgwb6UcChfSD/G5IhfUDw6Qfb6Y4tKipR8cC1hSOq3MKJUOk8bNs377lz/xJvpWdPfs/mrF1tGuJkNKzgp/FsveyxRDySs1LsjgOa2RJC/XPRWcjWvRZtDZqB/FBiejhgb0349f2rNp5WRqFSkemRZp56Md+oZ1bhywq+HpOmAuOWbb7ZU3AX4HOzbc0WvtLWwuZELrAIyCAFzVhSbD2+IyOjfTDn0L6QQKryvqB4Y5dxw6tpUfHwmdkhCyVn6VK3a/3PkjPzMpKOvZtgCVRy/Qo5WexgJJn0sFzCphUMJWxUel4Uah0ZO3wyqGLDxw6c+P6nhntSRIr3KXrsnt50g/XIjs7a9/lyTo15Qu5AIx3hNqx3MGBkTxaO8rLXQtYtDhuBGsDx43AyHKfTWMxAHkWYqaqVKnSwXQDMUL0QAjoFwHkWfSLd3n0BvYs5dEtvz6Nwkh+Q6rY0sizVIj5x3GuNxo5OTk3b960hQ7jxo3buXMntLhtZGTk48eP1QKN41xGqm1eQQSMZZgVy7NcR//WxnRjgo+ZmjRp8k4lxJ44AaJK8buVK1cOGjRItZytZNq0aQ0DAwH4TJ3Ly0xgzwIGCKJ8PBX+qWJ5lqAK+W9tYNHiuJrtgEAgsFEJbdq2BVGl2MbS0lIoFKqWs5WYm5sXFBYC8LmXG46rMZK7ebnXggGCWO5mGIgBFcuzGAjoyAxVBID7A2/KzlWYoIqAiZUgz1KWCZWmb/t+/vViuQpJ2ppgSxwEy06rX5G/lCNqaGfzJUmrQ9zsPMbGFhFV+nmARQuM4tWXnEVB8mBRu2resuCE2405x3jYGcNyz0+sO/QIqISUZzGlsLCQpUYLxRyEFwrthXdWDu7csWPwN1uTxRhW/OLIvGE9gnsMm0zHZ8IAABAASURBVHf0ZckUK0RRQh0CyLOoQ4ijnutofgmwSmfzBTUnHzoaUYfx1DBHT/qtKro1Z+z9iSu+cBE0mH7hBUGJ9XR7d59eg4OYft9HZVGAkWcZCnB/LDVaKRan3br/4Nyx2/mkNoFrvz83jwvwH7NxSZgbWYTR+C7MMFFC9DHXH/cc2zPNKfboM+Bp5GLoCQ6BkgUAJ42kqAgU3rphOWV5yP2th7NYj+opnc2nNtdbmueipbAoyNkhJEmLxiXNWhVszWQylUVBXs8pL5dheOK7sWJQwVYEQXhB57vAMIFnTae0x2+LpLhX546+hv1SwDbs8ixHnkVT9KGO5mNKZ/M17ays7Xgs2iwqi8L8R+BdXdG5n9Y1jPy65LVdyRYai4KsjlteJqLfCxThhTLfhcCt95QO8dMHRVyuFVzXUr8Gm0Jvpu9ZdDRLsEfzMdrZfB0Zo0W1NBYF6fGLH7G8g7+c7PNTB+gzeXzlSeN5bqzIRnBXWMILM8tK3g17fTe9Q9bNFBEmzbl9TjRq69ZvbXZHxqQDBwvXGZKSI4A8ixwIXk9SfkfzseL38rP5vHrRljBYtPB7FhqLwscG9e3z9i+9ET42EPrtAF/50lHCG1naRm2KJ+FFKd9FUfzR4ymfJJX8Q1oW307MU9sREqAjgDwLHQ+oHNvR/CuUo/nki5zK2Xwse1tYu/nn1oV2XppMikD1qD8hGovCtoWt8SdPLMd/1ZDTsShYFICZYgh5IKYSgftTKdNCQfGd1RN+2n1w/8kU8Bms6MXFuMfJB2cMnLr3HYXwQtaNCt+FZZMBnZJ/C+saGnGxwYCWdjIhdIFHAHkWeKwUkmxH81tRjuaTwKqezXccHpMPVlHhxWm+pIhCq84SoDs+2wEqi4ITZtbol7gl7Zi+FCq1t5RFAYOSL21JS/ExktaQI8NGeOFKIbyQNVflu7Cp9+WS/07Hxe5e/KW/rUzGSC6GYaa+7m7DGC2ywmARAO7PYG1DhmmAAPIsGoBmZE3AotXFdkDrKFSqVMnLy0v2uzxTvoAxNmzYUOvoGZpC5FkMbUYqqD3A/VlZWfn5+dU09QDG6OjoaPLTjDyLyU+x+gGKxeKsrKy90OHGjRspKSnQ4nsfPnyYl5eHqTPEKDZW6gaB6uUIIM8iB8KEn8B2gHvRgmXP17O8ePGCl2fJzMzkRhgYyS2Aao0LAeRZjGu+dGKtvb092KLvgQ4TJ07s0KEDtPiesLCwqlWrqjWd2/2pbY4EDAoB5FmI6QAvmAUmGkQi4p920KIlphk99IgA8iwYhmFgb3/NRMOlS5f0eDtp3hVw7po3Ri0NDwHkWYg5AS/sxBPvBwfpR+kPbAuprB+iN6cWfBncseeYVdeySkV4d8yrAVi0fPcscn4WshtahiyiXxX8LGSxWnlSTOXK10gVBVwFdCodmWTBkz0/9grwsLer0nTU38f2Hz0a2coCN3Pvt4X4vS5WfPl7PyGOW3VZ9+r+r40tgHG4QCC0cvQO6P7tlvhc1tPtMtXogiHPUoabgIv0owRYOutH7oWo6Mo/HTi8qkPigqirhnoYRcHPQmBDyxAFSg8qPwtRpU6ekGF4APfHUKq1IiUqHQyTvj88ufecFyFrrqa9f3H6Z/9XFxNtp17Jv7+gwY25o1ckFGHmrZckHl/z970T430C5l4//6N/8PJn+fmZD6J/8L08tfekA++Qb+GcnZIFwCmEKhkRgCD9wOisH6KU+ORqTevY29UMDa2ZEJ8mZtRbzoU0fhZahtEwOj+LenlGJbJCsC2QPevgUqhMpSNJ3hp5vEXk+sntqjlYWjlWbzN2yQ/EcW7coU9kpM/6Ub9e/axkBm5pa2dhbucdNGL1zhkeB9fHGLFrURqaTrLIs2gKKxTpB0Zn/RA4OJpdO3HtfWFuelq2tY0lrmnnvNqB7QCPRUvjZ5m9dMrqGpErIrp7nx7UTkbWotIzjZ+F1phZXkUBWQCMJBM6uDJQ6YgeP3hapU4t2UFDceL8psS7HfDG5zWGCTzCVm/ocnL89BNZLG9XzXwD/a0zXr9lqdbBAIxRJfIsGs4aLOkHZkZh/ZBU7TOpw9NfBo1c/O9dQds2XgaIPo2fRXLo0LPwX6Z1atQyfNYI6fGLH9WARWsMIU9Xx8P90RuqyUle7YocE+ouMPObGnti4/bHxE5R4OlTJeXaDdm+w6z+7CuHvvEJ3xoz3pNQhdu3+WXb2OczJu9NY3Qe4uf3Ewq9q3kY4OwR5hvIA6GjyUTwJP3ARB+f3kxxrO1lhjsFTVq9feXXnuZNvx1Sk5OaQBO7mNuA7QD8oqXzswQ0qHT1QlIRJs26fI4ga2HuQFFKb9ygvr2iRm0CGKlWRhMBFiodYeDoiDY3Zg6ZczAxs6Aw+3nyGxrluXmdCZt/tVk653Cuok9pUV5esSjv9c3t334ZmTloQh9nXFGHEqoIGIFnuW5wfz/GRvqRQCH9IF/tlFg/pOl7JvQYMnv/x3aTRza0UZ0NAyih8rN0WDx22O9j7w8Patw4eFPzbQtbC5kNVPCzUBtzyDNrwXBc+2uVhUpnBSaoNnJnbGTgrf0/fz2g//D2UeKhAxtnrOzcZOK33f1/vFKM4VX6LF83pjoxYvH9X4PaL0449V0NKytn//4r3nTbcHx5D0ftG8uCiyEVwy9GgSGZzWxLkMH9/Rgb6Yc/hfSDBFaJ9UPgMXDdqZgNs/v7O5D1zCPWcinYDsDvWTCslJ9l+qCObfp++++1u3fu3o2d18GJzS4KP0tpYw55Nj06KGeh0okAXeH2gSNWHNuy9+ChwzEZD44uHVC7xpRzhVKp6OniVuagHrNrMXvlBD8zzCxg7p0iAKJUKhEVfHhxM3pBWC0rQqACPuAXo6ACoqM6ZD4LT7U1KtECAlKpAX6LKzA319M7Vi0gaGAqkGchJqRatWqBJhpatGhhkIuWgF3pgfy7EiBGnUWehZg+oVDoxBWMuM7Kiti4G/6iNRb3R9wu6AGBAPIsECCZukhOTs69e/fqQIeZM2ceOHAAWrzO2rVrk5KS1KJo+O5P7RCQgAIB5FkUUJhsAmwHuBetg4ND3bp1D0OHiIiIzp07Q4sfHjRokFoWBWCkyU5AhRwY8iwVctpVBm1paVkLOri7uwNnBC1ey9nZ2dxc9nWLSr/UAm73R5VEaV0jUHb9yLOUHUND1wC2A4a/aIGRIpEoo2KEgoICQ79pymwf8ixlhtAUFSiIEAqOj/Sp2gB8b9Y4fCPrX69RWBSg5FkQy8rKelQxwrVr11gwMJ1i5FnKMpfS9G3fz79eTFWhRPpx4t6jPxlZP9ac1hvpB9gOUC1Uny66NWfs/YkrvnDBxAlHbofsvhsfH3/nv6+Z/3qNxqIAIc/SPTASRJZKLRRzUOkotNOYdKTZN9dHDOjVe8j0bfE5BvhbG4XVBppAnqUMEwNB+nE/2/eHK/kMrB8Tg/VJ+sHn3ZDowW9hS3Cf1H/3PcjJvHjq/qnZnTqF/7DjgTKtgBw4GovCe/Xy8mYMTzBGMjSDKuKi0pEroDPpiNPuptb5ftPuqGFWR9cfTycPa8gl0RMEAsizQIDEIgJN+oHhDiysH7jhkX5QiRDaLpIOXLlld2zMz86LOkRcFjEBYe7kbFdyF0nyPAerk2fSofMyCCodOpMOZubdsV97H3v7ap3a17cSol/i8p6iknuCd8MK34AH6QfYS6tl/dAh6Qd4lwG/HaARIWDXbL+b3L6KtX3AN6PcL1zJBAPhnHdB9fC5fOQpyoCRlJx2k1BUOnQmHYUBeYkv3Xp3dEPrRIEIZAIhBgmUshgf0g/ZqVg1rB+GQvpBI0L4YPFXx9+fijDRq327njdu7CIbiDISlHz29q6N+MhTmoIkvPsDwjwiLJWOGYVJh9yeSXMTTqc2GtzeWd3AeVhTUUSRZ9FkplVJP1bFZhRL1ZB+YOYqrB96If0A2wH4RUsjQtjx7+5pieE1PD3b7+lxLKoz209SFCwKjkPWTYWQZ4IcGMlUXOYynlQ6CiYdDJPmp95NMGsd2tg642lyNvqghedUIM/CEzBCnI3043kJ6cf/gmtUsveSkX40NX+5kon1w3BJP6hECK5+I3fde/X67fOzv3ZwJobO+ChlURBCyTMqwTB494dBBzYqnXcUKh2ZMmn25bWzZ0VMmr67qNfw9pXw/Ic7p0+cNnN8/+BOPSYfyrJGC0UGE/wFAQaPlUKSjfSjBoaRpB/303MLiz5nEKQffuZVpzCxfuiR9ENX2wFMm0FHRrJR6bhSqHRkw1Bi0sGs6w1bFXM2jghn/5vWzFImhC7wCCDPAo+VtiTLgfVDF9sBbcGh0ANzAkAhjBLljIC67pFnUYcQqtcLAmDP4uLi0q5ihPbt2+sF1PLsBHmW8kRfP32DRcu9ZwECBQUFT6HDmzdvcnJyoMWfZmVlicUEYz73eAUVJnBPBzdKxlKLPIuxzJQO7czNzX3y5Elv6LB8+fIzZ85Ai/f+999/k5OTuQcAvBu3AKo1LgSQZzGu+dLEWrBouV8kHRwcAgMDH0OHP/74o1+/ftDijydMmFCrVi21pnMbqba5XAA9GQYCyLMYxjwgKxACpoUA8izEfGZnZ58z3QD2LMQgDfthFEYaNoSGZR3yLMR8vHv3jngy3QffNxoKfhYZJNI3O/s2n32X9WeoFH4WKHmZkOqFr5GqGlCJ4SCAPAsxF5re0xykH6XLUM76EfzN1mSxKCPuz3F9u4UMmXssjTyaQnRvaI9SfhbCMknqlpHfxmQWiEuHRBSXPGj8LEShGnlChOGh6z2LlEalI0lbE2wJZh237LT6Vak10o8314wMcrNquigJDPbjxXltnYUubeec/1AqglKQCCDPAgkUkxgX6UcJsHTWD3CfRqzdH7Pui0+nbmapOznM1KUmZWDRgkUE3ZLKzyLFJCl/j9sdvOxbbzYiAfOAmSf2T/QVyvWrlZfLMTzxMZKhOWeREpWOwGti7P3Itq0X3js12aek4edrczoPOVZrblzq5R9qCoquzvvm/KDrWbdH3R4z+5zps0uWoKCt55IFoC19FUkPBOkHpsT6gQmFQsnnjBeFzYZ0dDXMA7RUfpZ2v8aumHC8/4bvGlix3ihUfhZMlLRKnTzLHQLcH0uNNopVqHRUlUoeLR+zOtvq3oJhI/64lC0VJxw85D1sqJ9DtfChfieOJKr/OY6qygpdwnrDVGhUYAYPRfqBqbB+SNIPTB89d3P0gevvwIYbpqMyy4BFC78doPKzDC/aNvEPSUPxyS17rjy78t+RxFxuW6SpG4bzkVfSBm+kUkN1WQYqHZUmkuSYaOG3/154+GhDnV0R656K37/OcnWvBORsHB2y32Xra4MJOjSNKMBMYxx6HwUs6QemxPoh8Oi/KmbXoq5Zxy7pzbXwAYfKz3L+U4vpO6a3961WzcPRxtG9ij0bjYK8A9yx25KdPOTlzWRPUqnO1i4TlY6sT9olLzfPza+pk7q2AAAQAElEQVSmo61PvzF9pG/fS52rOGVnfQIiuW/fu3i4oJdgAAWfiADjg1aJLE/SD4zC+oFhuNDayd27mq+XvZ7A57Vo6fwsUWO7BoPQtXdo79BeQT7EH7liqkHBz2Ln27IzEA9WI6+qQVaikz2LtCj1WNSjwQ9EAAVp0Z25ZrtlVDqyDqkXQc02Le6v35CQm33v7KMG7epZ+vcOebbln2cfnv27+0X3kHp6miuqScadRoBpMH9spB8JFNIP8q2OEuuH9O2RH3t37tpv3Jr33Yc1s9Ggaw2b8Fm0VH4WJ7I/gd/YZWP9WO+VUn4WUhxTIy+X0sdT0dmIFn0WrY3aQXxQInp4YO/N+LU9q3ZelramW8CMi5dnNexS8t2Qbbc//mq4s4WDx9CUCZH9HDHLdr+sCfgr0Ln5lkZrf2lroQ9jTaoP1rvFpEapbjDg9UydCLWejfTDn0L6QQKLO7aeMH/h8r/+mje0oSOOCdx6LT585mTM1gXDGzmSEhgKMgR4ToGsDcSFiUpHWnhhmtfE04WgS2nhWcV3QwL33lF3P0nzH28ZWJX4Igx36brsXp70w7XIzs6G+WE7xPjLTwTd3gT2zs7ODg4OjiYXwKCqVasGVhCfPQsBSLk8jMLIckHGGDtFnoWYNRcXl8aNGzc0uQAGVb16dWKEBv8A7s/gbUQG8kAAeRYeYBmpKFi03NuB4uLiN2/eLIMOJ06cSExMhBZfdu3atezsbLXocRuptjkSMCgEkGcxnOkoN0uKZOEVdMjKyvr8+TO0+KucnJzCwkLu4QH3xy2Aao0LAeRZjGu+NLFW7aK1tbWtWrXqUugwZMiQ5s2bQ4sv7dq1a5UqVdSajvYsaiEyIgHkWYxosjQ31fAXrVr3p/ngUcvyQAB5lvJAHfXJhMCHDx9MlyRHeWRMAJhUGYxnMakBa3UwUvaj+eQv5WS9Uc/mS5JWh7jZeYyNLZJV6eUCtgN89yz5VyKaDoh+j2FFCSu61fKr7eXefN6NfDZrKfwsUPJMeoCRBQU6PFHMQXihMIfKdyEvLHy6M2LmvgzKbMor0JMaBJBnUQMQVzXX0XwFsPSz+YKakw8djahD/BKLS3P51pXys3w8HHl+0PmnT17sqx85+xijN6Txs0DIsw+Nr/tj16Raw0V4IZem810QhdLPD+MevDcrJtLowRMBxQLg2Q6JYxjE0XxM6Wx+ucAGtgN8Fi2Vn8UhbNu+rz2K317ed6tOl0aMBxJp/CyV1MuXCwQQhBfKfBeYNOvu+cx67f2sy8Vio+8UeRZNpxDmaD6mfDbfCHbVWbu/W10jckVEd+/Tg9rNfyTBxPFrh4QtKwzt5sH4G3caPwsBphp5QoThAdwfQ6l2iqAILwTuofM3LBjeIH3TnHV38jBR+pWrxc3a+JgzDlo7dpm0FuRZNJxeyatdkWNC3QVmflNjT2zc/piFGUjpbH65eBZei5bKzzJCevziR8ws8LvTGQ9Co0ZszYbCiq+8QimfjZWiEUQClvCCyndRmHJs/ZLpAzp36hN58daqEb+fZ3wnCNF5hRVBnkWTqYc9mo8pn80v4XTUpNOytIFftFR+lnPZPhdbNFqaLMJyk57kubpaqjNB8nROHT7yFH283B+lnbokT8KLEr4LC7/Rm0/HxcWdjZnRtum3W//X3kJdR6iejgDyLHQ8oHJsR/OvUI7my3cntkpn87HsbWHt5p9bF9p5abJcBKpLvQnR+Fm2r1mzZ1Rcr2qeDRf47tv+BdsnDgp+FkGtWf9CyLMMBt79sShgKGYjvHhHIbyQNVPiu0DvgWSolOGCPIsG4LEdzW9FOZpfAqxA6Wy+4/CYfPD6XHhxmm+JCLwFmkmC7vgsWho/i02j72Iepr1+cXVlLw9Weyn8LFDyTMMARjIVl7WMjfDClUJ4IetDie9CVgYuuEPI70v6V2EdOhBBkREBBBkjLKiwHBDg4/7KwTzUJS8EkGfhBZdRCoPtgOEvWmCki4uLb8UITZs2Nco7iY/RpZ7l+rVrIPJpW6FlAVYgmjYEYIAg6m2MVlZWPhUj2NnZcaMKYAeRW8bAa0s9S1CLFiBqZm4FbAWwAtEoBg62A9x25uTkPHz4kKDGpj9m/fQTiPQyIrdo0aLY2FgiBffYsWPHixcvuG1AtVQEwK0FIrXE6NKlnsXoTEcGwyPA/W7I3t7e29t7NnTo3bt3QEAAtPjstm3burm5cVur1v1xN0e1hoYA8iyGNiPat0ftogV+BziXztChfv36Hh4e0OKdq1evbm3N9pV16XiBGaUZlDJyBJBnISZQLBZ/NNFAkrkZ/qJV6/6IeTKcB7JEHQLIsxAIgU8B7ppouHr1KjFCng8Fi0JW7IQauMDa0jZw3k1WjgMKiwKUPIsxhu/+WAxHxQwIIM9CgCKRaPZ7WA7Sj1KFSqwfSlmiex0/wHaA36JVsChIHv+9OG/5e3F+zoHaC+ecFDEZSmVRgJFn0gHKgJHgqrvIQaVT2imVSUeaeWp2p6qOTjVDfr+QpbN/hi3t29RSyLOUYUa5SD9KgJXm3Eqpu+xUXNzpDSN8zTClbBk611lTCovCp9ozT27t64xjeWmp9n4+jD95Nw+YeWL/RF/ZiShBHfXy7HbjOGMH7A141HBR6ZSooTHpSJPinjT9Kz7l8k+2G2dveV76QlEijZ65EShZANxSqJYJAQjSD0yJ9UMpy6S1bGVMrfltB1RYFDAs58TYWTYr5jZi5KtSYVFQI89kISjjZyRowCtCUOkoMemY+YVPDKvt6FhvUP+WNhZCXr0hYYAA8iwABI2iNDc+zTawRr2eHXJOxr1je00TuNNYP5SyGnWsSSMch90OqLAoiF/+3eMbwcboL13hOuYrX6oVx2GNLG0DlZJmX0iq1N4/aHR41s69acxTxcak8+nKI58xA3zQOoFCmiKEEKOAwScJS/qBUVk/wAcVSlk+XWoqy2s7QGNR+NjA89ygoJWhsdt7OsL1nnmIn7xCKy8jFa2gEnBUOkxMOtLsK7uedfgxrIqOXB6U+UYqhDyLJhPHk/QDE318ejPFsbaX/O2EUlYTC3i2wXHYtSGoMWXb+PvDgxo3Dt7UfOvktL8uCfK29AuoUydw7IEPLL3itr6tG7qCHqSp+9dAyLOpgTaSRQFTMSyVjiqTjvTzs3OXhaFjO9m9vPOAdVPK1CcqAwjoy7OArkwnspF+JFBIP8g9tzT78trZsyImTd9d1Gt4+0oYPQvWogGCQmFR6NhgzLH018mPiRD/dz8nFmtx76+3z28DPovAvaHkWdToorjobESLPovWRu1IFGOY6OGBvTfj1/as2nlZGoVKh+xXiUnn8/U/QloG9wryEArs2vz9xh4tFBIm6CsCDBqqUkE20g9/CukHCawS64dStlSjTlPgjQaOG6YXKx03MLI0o70UG5WOF4VKR96bgMakYxs063ymGFgllYpT13axkguhJ1gEyAUAK22qcmZm8vcppjpAoxgXjhu6+zMKGA3ESORZiImoVq1aMxMNrVu3Bi+8xCAN+2EURvKBsKLLIs9C3AECgcDWRIO5OfEvQThuBNsBHDcCI4nbBT0gEECeBQIkIxdRux3Iycm5efMmvGsdN27czp074eUjIyPBZ8DcKKo1krs5qjU0BJBnMbQZ0Yk9OM61HXBwcGjSpMk76LBy5cpBgwZBi7+bNm1a7dq11Q4Mx7mMVNscCRgUAsizGNR06MEY5i7A+0Eb6GBpaSkUCqHFbcA7MhxX4zXQnoV5Yoy2FHkWo506aMPBosVxNQsbWpkOBYuKil5VjPDp0ycd4mgYqpFnMYx5MDArFPwswC6SfQUkWCMpIZLXkzl5hs8TeHuVXDHCrVu3+ABjlLLIs5Rl2jhIP8jf4MqUU1g/il7+N665m419zfAtSSUrUSajywvYs/BTX3Rrztj7E1d84YJhCvYVVg0KCRmHiSLHKs9SwdtIFj1sxXQqHZlU4auza2eMCgvp0W/MH4euXbh65Z+JwR07fTH7WLoY1IseRA3t3LFj12kHM5K3fhPcURY6d+0VPuqHFceS8mSjBWIosiBgOJ6FxUBDLuYi/VAAS2P9sPDsu/ram8wbk7J3nnyjx5sTx+HfDVH4WXKkVPYV5qmgS9BzzC3YSnEc3kg2HWzlSlQ6GCb9eHnFzI0ZLaau+S/m36Ujqr+NT7EesCZ205gajzZF7ntejAkbTNq6KOL7jYv7VvEdsW7l4OpNJv8TG3tw82+DPB9EzVx+MVuP08c2KkMuVywAQzbSQG2DIP3AlFg/MKG5ufjjy8T8rtMHeOluHdEBk0r5LAI6P0tSJWc77nuEzs9Cz9Ht4MzxM5JTFUOlCpWO5PWJXdfrj/shLNDd1sLS3iMgdNLgRuYYhtu0GTfO7fAfWxPyMXrAza2szYU2bvV6fPe/IS4XD11CroUOkFKO+65REi6f7HXt/cWaFlVhMKQfmCrrh+T5mpDA/j+vWns8lfKGSdfI4jisG6Pys3zT+FXc+Wu6tk2hH8dhjVQ0gUswUOmIXz1PdfLxlv2hgDhl+xji3Q5445OJYbhL+4gfm91cuu56DssEmXnWrGH5IfMDSzVmygF+BRmBZwnS3l+saVGV5NWuyDGh7gIzv6mxJzZuf0y8NWe4pVRYPwQ1plzIfH582JvNMfp0LQymMRdR+VlOncUD27ZgltN2qQ73LExUOriLq9Obh49k+w6z6l+tWdjLtcOsBX0rE8PCbQJG/RSa/teKuEzGzZ44Pfl5sau7S1nXDtGXsT3gV1BFRKfssyktSj0W9WjwAxFYD9KiO3PNdq+KzShmuA1VWT8wDDe3c6teq26An7OewAdG4jjsdgB4vlJ+lm0LWwsxkn0F4wikREkPZI5DnK0Kx0tUsEloUM5CpSOs2TO8waO/f9t4MSW7sCg3/XUW7QN1YdW+M0db7t14pfQ9kVRUWCASFWQ+OrHy938+durb2kEH1mowQENtoqeb21CHr5ldbKQfVyikH/KtMp31w+HVxh5OQiu35t+nj5jd1U6z3nXdisLP0oFgZCHZV7h6JSWEchEyJ89APwH3By3LQ7D4zuoJP+0+uP9kCthUil5cjHucfHDGwKn/YQL3kDl/jvN9snHakF4h4VMOiLt08svaN3XM8pU/jlybIMJw5zaTp/V2J87Ai5O3jp+yO+XWqiFdu4WOnLvvffPpiye3sEeOhXMekGfhhIe5ko30oxWF9KMEWBrrh8Dn6+MfwOtewsH/dahcIsHchxZLdbRotWih7lSxUOkMAD3iNjV7TFm0OfrYqdMnDmxZNKljVc/+K0/FxZ3ZOcFf5iVt6n81pa+XGWbmO2LD6ThZOHPy8J6/fx/T3tsSKECRCwEBVyWqMxUEcJzHK2y5DBq4P2tr2Qeq5dI9c6cCoZDYtDBXolJOBJBn4YTHJCrBojWKcbi6unaoMMEoZqQsRiLPUhb0jKYtjqvZs0gkkgLoUFxcLBaLocXBB5/ERvhWqgAAEABJREFUR91GAxYyVBsIIM+iDRSNXEdOTs7t27edoMPEiRN37doFLe70559/PnnyhBskY9lYcY8C1SoQMCbPojAaJXghABYtjnPtWRwcHJo1a5YPHdavXz9s2DBo8fyZM2fWqVNHrc04zmWk2uZIwKAQQJ7FoKaj4hoD3F/FHbwpjhx5FmJW379/f850A1i0OG4E2wEcNwIjidsFPSAQQJ6FACkrK4t4gn2IFcfqg0MGTFoWly4CLT/Fb57cu3Po5I33ckGuJIqebRpFnEnp2LFj8PD1jwnBkipDfs6/EtF0QPR7DCt+EtXB0cLWxmfo/rfyH/+p2k0yssjGBiWvqgHDgPtjKi5rmfj+r40tcBwXCCwcfNpM2vscWClJWh3iZucxNraIql107+dAcyAJonn92beAHIaJT3nj/d8SUqp6RHfnBsjlQRPcst3StDXBlrJkp9XPGZQRang+jFkceRZi9sD9QDzBPsx8R6xbPqBq0Pf/Hdo40fv60rVxH4sTtiy+12ndofUhTxZvuFtYokmS9anejOhTcXFno2eGtm/hK/sFVkmlvp55L9pSfpZ367/4zvtQ7ueMle+++u6CbLUpW61gZCEON0DIK7cvzfOchdKGHCmzgLnXz06tG7IuNevuklrHJ/y4F8MENScfOhpRh/5LFUl6dtCmN0VSqeTNlnFhIQHETIljv0ob+JcboV5Vj7DRr7fjptYN3fxeIpXkPf9ngLvXxNj7kW1bL7x3aqJQVRmhpSI9kGfRfLbNhBbWnm27NrV4lZKecumya7cu3rbuHbp4Xb/6QizXKnBr1KpuJSEm/XD9iUPLeubyYr0/8Vm0FH6W99ePPAwd3coSs+8+0O9cXDrTroXKyFJ8Q708y9ilvKgeWJSwFgstrGx9+33ZxepxAouMwKdDr2Yu5pj07fFbzj2DLICY+NiIN19GyQ4pgpwsMuuRZJ2Ndxs/VCYhuzAok5VXpAvyLJrPtri4qPDtrQv38908XT5m5jg62wJdVna2n7I/Ea/fIFMSpdk3njm0rFtujqXEDphnKj9Lxy2pVj5uxD0idHISfWQkbzV3KmVwkX54b61Ont0GPu6PXQtjTXFhQX7qqQMXP1WtyVivKJS+i73r0qs54ViKj4x+N3wVzbFgKnoKj45yEZi5Dtv3UWnKCY0UZUS2Yj2Iu6ZijVhroxU//+/HIcN/vek5YnQnZwdn+085xMHYvA8fHVwc6LBKs68nObSsTWywtdY7D0VgOwC/aKn8LCOwRFyUJvt8pTAry87NqWRYbJ0LXKvwkmfTo+1y0YMVPXzrDomt+fOvAzl1S9+duOfSswnxElB8cNS7b1YSRzJLW6jqsewJ3g2J3+0ayMCpQFFWqqLCpNTdKxUGCP4DNfMbsiL6+NGdCwfWsTar3qpF2vHTqbmpZ85kBLWoRoNVmn3juUMLv/JyLPxGRuVnOZfT4otm0X/EfBC93h6V2qO7qzpVwlaDeclT9AH3R8lpOSlsPD0u/dPHpzFTmxL7SlbtYJNx3zmksTkQKN7/Tda4PyuBFCWy6BG4dO/VimhEEQWfSb+LLVFGK68gGdoSqCBjLvMwwXdD4yP2vrwSGf5LnPz7BYvAUVN9Y0aHjj/uN21UgDkmSljQcVRMDtGV9OPNFIcWNcvPsYBFC79nEdSYsm38/eFBjRsHb2q+bcmc//Z5zfSyqrOh18HIxvTPPImxkQ/c1rd1Q1ccZOwH7YWQB4JMEd5IptbMZeA7naBOyx4dGuU16D/F5+rZ28LazT+3LrTz0mTwyZHo6gg84C/iy0Fp5skEl5CGxEwV//v1x8mLSx2Lqh7w3VCTjlTNkjQKiQZwLKXKmE37P3vXAdZE04QvhSK9SC8qYENBsfGrqIBYUBFELNgQBUVFBXv5sH2KYgULNlTsnU+xIyp2xU4TFcFCEaUjPeXfSygJl4RLSCAhu89dcrc7++7MO7fDXo5MWngtjCwCOBg8G2J+rT5qnS16R45CEFR7+R6Nirl+wKeHCphj5C6rYo6NVmG0qA2ZNak9ermiZ+K/s+VnIeq7hn8upRS/DbRR5qo6MyMLw0Jc8pyAQPjjVN3YOpLFmnfggQ+dXnbBrTbzgdq0yDIwXsWTRSbg+if/7zg9frYGGImgNXnzciuGHTJTiul7WCzG4oBnQ/FVAKUWmWjAkkQDQVjAEGksgFlpNLuezeACqVfTkk4lxTpRrFlakh8lyxYYWVB/aTGKdosrwCwzMzNgofhPWkkJf4BMuOFhAEYWlCU1NTVzc/POLa4AowwMDFAL+dibTVT8w1+zUSOBA8PIIoFO41NlsBzgPWmpVGpeXt4l3OXVq1ffv3/HLX7p48ePpaWlvLUGSvIWgK2SxQCMLJLlL5FoC6Y9iCzncZfY2Ni0tDTc4ueTkpJycnIaVJ13+GuwOxQQKwbqIgv+3ygSKwOgMg0yAJYDvCetsrIy+DjmIqYsXbIEbJjqi/PmzbO1tcXWc6sZO3assbExbz2BkrwFRNQqnpe9eGrFlwvqIgv+3yjiawDhCUOkpmag6S8JWpOXXr17g62Jh20wjDY980K/tuoii9ChIaCYMNDgdSwmemZnZz+WjvLo0SMx4Vx0asDIIgC3VA5JP5DCJ+tsNMiaNgGP8utB0gtfh07voy3fc+tXWr2mpjrlfTfErkX57elGxl0tLS2t3I58ST0zqbOevp52p4nHU6rY5djPqN/wSrL3qzkD4a+ysvofmmvqhPBO5ZBKh5YRscx5uOv2VxiD6H+Tr2ye7TzE+2wGw1PU1262AQx3YnEoX47WZN4Bt4a2DvMv/Lni78A49ItAc7rUBxOCNZIEASOLAN4iYZJ+5Fa+WOf1aEJs3lvPt96rH5azgJa8DLB3v9V+TUz6syWmzUI3mLQs+jR0SE288dbx3Pu4uLh3lybGL1hE2puSmfV1R9WcOREl3PuWXPXFKckdg5/wxx2FvYWESaWDIEQD18AgNyOML8qSjvj/+9LQI+TivgkGaCv1dWCO7WLGlxKxOOT2Mw4HjzPuuzzyQcyDO2cDbDW0XLYfm23RxfvIDldtBAPGrheuM4kWQgmUaAOaUXlyXdKP1MSr1wynTDJTaeM2yezOjaSa/CwILTnYe2+B/IfAKR5bnhZw+KZ90+jPx6TNfRIdH73azs5tyan4jJQ0/f9ZKCJIKx29VuXltVZhlKbn45XEdK2u4C/8VXfC/caSSodbH9r3S9v++yubcmrT5jMJjDQY1JeBeQ5+aqwdOOPQit6lqo92YBHEgrE0SschjCyC+5klWYd+bmaeli76BTYFNZWCP7UhhJYaGUGef/7xx+Swjmf9DnxhrLEFH7EJetJK9SfuDj8XFblWY6ttkJF7xdqxK0I2T3XZ181nFONrUBx1IOiNnoJPkmN3ZiUf4Y/ZAf8rSyodLp1omc8ekVzX7j5xcqnRvT2R6TSE8iKocOhCtsCCYHAqXwaNtrN33viQEYtqsLFgNS3S8w4ji8C+Zk3Woauho16Qh2ZGKv6dq6mnWUtraXGptpmpmqKRi/do+u/cZoksYDmAf9IS27qt8R2o00rZwstT92mm1/svhx3p9y/QVu2ZoMmDKlKnlR/wSXIBAUpyaRFCNWsqHW5wFaUV6gYGyq20bUb1R/KLaJQnWwpHLlBmE8fiyFqDu6H7V9fYqda6HO1RHwytk7KdjQ8ps72R5rIm6yB1GeWYEn4mJT/l/Lnvwxw719BKNO1vHX84LLG44MOD5K4DOpMbOabouxecHNJ94xcKQvl5+WyalZWmjLpeXszXqadXM39FnaEA5xcybknO/RH84Y8LANdqEksqHS5CRP2unVOvX08rLf767kc7S2Pk8bZipzlK7NJccIiqffqy0VMfTPzdzm6nMM5qpoAwsKQGAzwbqp/0Q27A+lCLg5YavcO7719vIwuW0sykH4pDtxzsdtpaRW/StzlBLuxL66bii6/lgJr7Af8kt3b6+gMvDL+1z16G+vnQAcVtO+wUGtQWvyQnKL6U5ATAuY6aerx+Kh0EKb4TsODUh8iV/hcywSKyOpVOq96zFptGzxkx9t9fzrNtWt3fWjKGJbBgccCzIW8/1iQ9tD9XlngejE88PHNxRDEbGPvCh7OiLa4WRhYBXAqeDb2rn/SDoDlk14dSev7LIHsNAoLUJv0g6o7a9/4vvexT+HhjbpmTBFCBzy58LAfIZtPPfviZ+TvtwYZBGghC6rD0zumxvG6EalTBL1nTownewTMdTCodRHnY5qiYmJjoveP1iQhSk0qHqNnP/8jtmKhTK+10SOSht2IWskRTLA54NnTsHkCJqUnSQ9Ry2RWNVkQHu2qzgTWBneI3BFH8VIIaCZkBES0HhKslUJKP8CfcsSGaCBhoUZFFBPy0EEiJmLT6+vqdpKNYW1u3kAuLuxkwsnDnBrY0LQMyMjI60lHk5eWbltpmGA1GlmYgvYmHbPBGo6SkJDU1dTruEhYW9vTpU9zi0yMjIzMzM3lbDZTkLQBbJYsBGFkky18i0VZOTk5VVdUOdwG3LGBtgVvcrm3btkpK9R7gcjBEIm7ZOOjdjFViPDSMLGLsHCGp1uBygEwma2pqeuAuNjY2ZmZmuMU9LC0tVVS4/wMvw8wGlWRIwReJYQBGFtRVVVVVf1poAXc6wEKJWA5IhJKATLjhYQBGFpSl79+/J7XQ8vr1a4lYDkiEkui1And8DMDIgo8nNikqh6QfyN+4Y76j7J18j3woZhNGKt7tnmhvazvY63gq9y8Ls3cR+hk/ywHW/Cxff9/27dvZ0qqLldvhT5h0Jqxq0nNYJVlbcB8TCATcsngFqRxS6dC+7nXUVtKbFVVZD6UsZoEJmUCQ7fFvAtNT1GhDwtjfqBQWh/J+jYUMobbIDdiZETpYDj2Xs9v7E0EwYCiMFO0wsgjgbBIm6UdhVWL4tg92B64ddvy8Lex9RR0ovejNt07o/2beC/Mwab5/wq1TqKEjKkt+Fk966Iofy97GvXu/S2HdxqcU7n3BbMUpyQVDRGsWksWa2Af+nRwPpOe939H+9pylFxGEaOp77aZfx/rOoOdFJ/a5X0mnV74N6MpopEZNzRh/UBvVGItD7r7hbYx/J6djuTQ6rTTtzDhdg7lR8UE2/TZ/iPY1woKhKNK0w8giuLdZknVkfXv6TGuog6Gi7iAHg9gX35l/8gA0Lft+xJlT27edff2bx7wEgiLcwKQFf0rxDsCSnyWhTKuT3seI62/e3zz3yvh/ZozpxhmHiFuSc3+0lg8lUXF+dpZUOty60X6c2xsU6O297W569eKMesvj1+R9rVk7cMah5T2I0/aZxCKIBWNplI5DGFkE9zNLsg7NwpwiNQ1FgCWvpPi3oC5ZB1HXaVNY4LSuWUcDDrwrBe3ivrHmZxnk965Df/KpaePHTT+BDLBUJPBQXt4cryQPEJE1saTS4TYGsc3sK+8iA/qlrnVdFoPmw6i6MePPtD1sgUb9Z+IAABAASURBVAXB4FTc9NQkkrSmXC5ky+qFAUOkrkhZZBGmf1mTdWioaCj/LSoD8KX5hSqaKiy0kuRUDbuNXLhsUN7rb82zbAFrFqAYzo0tP8vDo4v2Orwt/vol/9vcu7MO/GSbPWyAZdeW7sMnydat7oQvJeu64TtiTaXDvQeplabZwJl7w8b+uptIQaquev7x2s1IVVnbBYsjNwLcDVH/nB1fl5KHKc0OxqyTqleWKSBVdgvBWNZkHaS2fa0zbt9LL06/fz+7j3WberRSCr+8/qbWwYDH7YQQFOIBgf9Ggy0/S3dTucrCoioEKc9M/dNKTZ77ooVIJFbgk+SuJX4luWNwbmFNpcNZoqa2Kvfd3SStHmakqv+88mZvR7ME1jSBdy44RM1hI/vKgPZ6Wy1YvXqpOK03BaTC5kYbCZ4N1U/6IWvp6W8SOcPJ57bZIk8LGaQ66Qe94Nn+1Sv95i07Vzly2kBV7jOz0TrxAOBrOcCWn+XAypBtZfNMWmvoj01efnyGFvdB5EbtwinJBYMvJblgcKgGz3Tqp9JBkIITrgM2PTzgZL8zFc3P8gJNpZObc22pi5N9P8et5TMDXDUp52cW+m6rCyxYHPBsqIftruRrngYTLjE+sadlhA61WP7k2cpuDns+sIE1j9s5sNGUVTCyCMA2eDaESfpBUO3lezQq5voBnx4q4EqqTvpBUOs3Z9Pm4IMH103qpgaqBRhMKF34WA6w5WeR7TTzYkJWTl7e11vzLeR4qYJfkisKH0pyxajfAJ7pYFLpIGrTIstAJKt4ssgEXP/MVDqarZ22Xbl2/1XsheUDtQiIzJRi+h7lOjQsDng2FF8FUOhlF9wYzBAN5t6rQCsqHszvxgZWB9P0R802ImC22cYWn4FlZWXFRxnp1ARMSek0vKVaDSML6lkjI6P+LbQMGDAATFpRLAdQ4oS6S4SSQrW4JYPByIJ6F1zT5BZawEerqIViv4PwJ/Y6QgX5YABGFj7IklDRBidtUVHR27dvW+Muvr6+58+fxy3eeufOnZ8/f2Znj8MZiO8camGVZDIAI4tk+o1PrXlPWhUVFUtLy0+4y5YtW5ydnXGLf/Lx8TEzM+OtcoPhj3d32CpuDMDIIm4eEb4+eCYtuBfUxF2UlJTk5eVxi2sqKCjguSnjHf6EzwtEFCUDMLKIkl2xwZaISVtcXJycnIx/KSShksnJybm5uWJzaYhKERhZ6jELT1myKBy+tWVAG0NGUScoeT/k/u0EWsJWnJJcCAYLKzDfsrOzf7X0kp2dnZCQwIWGllMNI4sAvqRySPqBFD5ZZ6NB1rQJeJSPgSx/v8Vu1J4fNExDk1SAScvHmoXKkkXB23HF4+/poHw5Ocxo5MQ+ZK76ErsuwynJFUIkv75K5ZBKh5YRscx5uOv2V1VYXSq+nPZbcTm72lPU1262AQx3YnEoX456DratLQ7zL1ajsUNUV0rfG4wsAvichEn6kVv5Yp3XowmxeW8933qvfljOCkovir34NJNcwf3rfKzSzX7MmkWhhKkN7evW2V9X7hncinnK4xW/ZH0QEP7qVwnjnIRJpYMgRAPXwCA3I+ylTy/5GJOQS6oNONTXgTm2ixlfSsTikNvPOBw8zrjv8sgHMQ/unA2wZcjVhxCGDZKJgaVXMu1oDq1ZknWkJl69ZjhlkplKG7dJZnduJNXmZ0Ho2TERGX1crZQIzaEiY0y+Ji17FoVn6P1P5cNVB7oFzWRkQGIAcn3BL8kJgo+FFafuvOpYUulwFaPnvX+U03mgWW38pL4MzHPwY/stbs44tKJ3qeqjHRAEA8F1MDFqEJEqMLIITixLsg793Mw8LV30C2wKaioFfwpq1ieUtOs3Koc4d5BrvrjCsA//pGXLovD4eQ4dKb26/u7oVYNwfP8BvyRDKbYXvsIfW088JyypdLiIU7Kev6jq1d9IptZTlBdBhUMXsgUWBINT+TJotJ2988aHf+kIFoLLWFJRDSOLwG5mTdahq6GjXpCH5gsq/p2rqadZTSslMXz17OGGJKKm55W7fuaTIxhfihV4RAE78jVp2bIoWFlpEkr/2/nKbZYlqeHB8UtyxsIf/jj3515LTbu01H3ahtf6HjPsOEtRvt06vGPZOHu70UFP3uzx2PiokvJkS+HIBcps4lgcWWtwN3T/6ho7VSIWgq2vtJ1UTwFpM1sY9rIm6yB1GeWYEn4mJT/l/Lnvwxw7V9NK7rY+Dv0+LC33mMuQ4KTTrowvxQpjcD4x8E9atiwK++xlqJ8/y/lM7YYjsOCX5KQ8X+GPEwCvOpKZe0jE7ZunN4/vWHuvwy5PNptx7F5MTMyDyOU2Pecf/2cg8fG2Yqc5SuxSXHCIqn36diFjIHCs8tjhW9RZ9RRoUTaJ3BjwbKh+0g+5AetDLQ5aavQO775/vY0sQmEk/cgTuSrCH4AtiwKCkLqvj9kxgPtDoToF8EvW9eF1JJQ2aurx+ql0EKT4TsCCUx8iV/pfyAQPgapT6bAPR7m/tWQMS2DB4oBnQ95+F388D3JbH1PJ3hmeAQZgZAEk8LuBZ0OYpB8EzSG7PpTS818G2WsQEISZ9EOjGpmgMf2/qAXGxOrTJn4DywH8a5Ym1k3Uw4FnOphUOojysM1RYH0SvXe8PnBJdSodpiYEFceNO8bqEMlDb8UsVGDWoa9YHPBsiLHKiYlaZ8u2OqmBQLtJ8Q6YlWLroeliwwAIfyoN/UKr2CgLFWmYARhZGuZI0iXApJUIE1q3bj1IaopEeKQxSsLIwjd7ktiB990QlUrNy8u7hLu8evXq+/fvuMUvffz4sbS0gZ9EkZTwJ4nebxadYWRpFtqbdNAGJy2Y9iCynMddYmNj09LScIufT0pKysnJadBm3uGvwe5QQKwYgJFFrNwhKmV4T1plZWUzM7OLuMu8efNsbW1xi18cO3assbExb9saDH+8u8NWcWMARhZx84j06sM7/EkvL81uuUAKwMiC0padnf2w5RawHBD/SQuURD0B95bCAIwsqCeLiorQN7w7NfW4V/UX6O2HjHTzXBJy62tp9VeFKn4+2L/c09VxuIv3lmsvH8emfD83d7Ct3ZjVt7LQrylSEvZNsre1HbLovzfcMfDqIRo5lvwsR1JpYIyy5349x0XgyVWEXxLAYjZRhD9qdcILApFIllcztBg2PzyumOmq8s8Xlo600FNW0unpeejWf3cSKlK295UlkHRdwr+hrqp6ttiMTCDIDw7YYCULdCMQMRAYE2BFLQMSEFliX74EW63GojgA1w0/sCQTjwO7J7bt4XsmKurqsX8n6CfsWxH8pICO0Aufhaw4km3tH3op8vxOj7a/41L/6k8MjTrq3S75aNDltCqE3HXe8a1+i49sG9OTCwY/inCSzf71C2ysLfwtB1jzs8w0ISKVbwJmxc8NGaPJCsnxGL8kh+78KckBgHMVyWJN7KOlXQYHp5SV5SRELDF55j9q3pU/dHrudd9RAd8dQ19k5H6/t7bLzyfxuQSzJc/L4gO7vlozIySxEpHptyPpduihD1H/cobgPGALrwUzEWx4jJSAyNLH2hpseIxpWhmCjHwrGbKCdufhC/9x13xy7WkBNfPO2Vjz2UtcLXUVZeWU9Syc5k3sjv7eL0Gh/+zZ2te3HE9Ef1SeRU0sBvPvKYsIv4c6urpgq9eLj9DJnp+FkvCv6w6CUfr5ywlFvFXDL1lPt9pTPpRk9sH9SpBTVJKVUTLs47H39HK9q4cjs1OPB922DjrsO6CNipy8Wtv+s3YsYX6bm6AyOijI6LDnhhfVyWmqB8FA/OFNR3W3lvYGZiLY8FglAZEFjxnNK0PSN20nl5+TX/UzLV3dyJDxpTfqt5Peg8ETlCGLruaAa5CgOdBvaa/XOw/EFqE3GFh9azA4t2Ll+ajhaznAnp/l9umFe9sFhfgNM7w3YcCmZB7K5Z3DK8mH5sIXJZlYdmmVnZn1KeGLTsf2jC8cUpM29UTvduQdDmQCTyFEPde9YQ53fZbdyeNobzXEb46NwtdYUhFhZBGC56hZqWlVWrqaZE0t9V8fk8FtEYKQ2k4N3TxSa9DKQOfWBHQMgoKF5yqnrIMhMWikQWvY9hoM0TgE/3KALT/Lo8ior27rF9l1/5/bSg/67SeFbCqznlDiH6bik2TtxXLMV/hj6cfnITUtPrHCsI2+vpHOt5evGOsOkvnq59e8jNyOR/roMzyFEJT7rz8xK22578UMDuGjGkJPNJ7i0x7xFYf0COwbOqWinEIpz0m+s3vjmUI7534qZNMRbl2TD/175Mm3gorK4qzMPAobOtnYecUMuYtHntfeE2ExmNc2W7cmPSk4OaT7xi8UhPLz8tk0q/7mKi8ef61E6HnPHhZ2NVfmqgrR2FQZnyRXCJHkwWWORq8sLa2ilGa+Pjl/clDOhDmjtS1n+PV/tcI94GpSTnlFQVrqr3pfV5bpOOfYBoWdAdeLmQgIBgL93ml1G3zjwACMLBxIaagKPBvyWXDu25s97kOGOk1fczm397JtvtbKBISo6xiwfbbJ5yOL3Ec6ui24QnWw60DKvuzvHbx76fT9iRSEoNHfd9EoXRKCcMVAhF7AcgD/moUtP0voZP8TPvHT+lhZDT7a+8TmfmSuuhHbLcApyQUCKMmlpVHV4NlQn4HbEqMXtpOX1+gyNuTX0LDbwcPVCMQ2009HBVm++WdwO1Vlg4H7qJPG95Sj/dht32Pu/GFdlj6vQgg6o4MPeLclI9wgGqVXy+9MbPkmCt9C8GyI+dX8mJj7d69fOLTRe6ChHHMYgoLp8AVbj0Xcir5350r41nm2hjI6Y3dHA8HTc7owJqaC+dQFzgYkHhhMpOZ6Zc/PotB93vmX79+9fx+1bhAjhTRXtfBLcoPAH/64IWDrSRZrmAkv6DRKef731xGBru3lGWIEZUuPkFvxWcUVlSXZCTd3jjMjEY0XPKyg0ylftvVFP3dHlKxX755jJssVgoEDXzgzACMLyouI/mCi0Bx2IpkMFi0cGkRU1bTWCWiEeCpJlJFpUlcJSJ44doORBfWKnp4e4+e6WuCLubk5sFAUywEAK9xNIpQUrsktBY2DHTCyoKQoKSmZttCipaUlnssBlHeWXSKUZNEXHjbAAIwsDRDUMpp5LwdKSkpSU1On4y5hYWFPnz7FLT49MjIyMzOzQSZ5K9lgdyggVgzAyCJW7hCJMg0uB+Tk5FRVVe1wl06dOuno6OAWt2vbti1YFYrENggqrgzAyCKunhGqXryXA2QyWVNT0wN3sbGxMTMzwy3uYWlp2WCO2wbDn0B8wE7NxgCMLM1GPRy4HgMguJRJR6HROPxvbz02JP0URhZJ92DD+oMZ27BQc0sAJdPT02Olozx+/Li5+Rb5+DCyCEAxtTrpB5Eoq2LUf97FNAoAKXyyzkaDrGkT8CgfnNVslB+XZvfWVlA2dQv/ikrV1DfxO++7IXZl2PKzlN6ebmTcFdzOWLkxk7Vp8FF8AAAQAElEQVSwy7KcsXUT6E8ylYqmRWGBFMIhtTaVzmDHcfN2xWRREISWEbHMebjr9ldVrANQsmO2z3Ye6ui+5lYGEGI0UV+72QYw3InFoXw56ol+5dSWWRzmX/hzxd8BPXHwi8jiAMZAlJ4XGFkE8DXJYk3sA/9OjgfS897vaH97ztKLuZUv1nk9mhCb99bzrffqh+W1oGR9570vf+W8mldw+u4v9Ju0zJYmfQXLAT7GoybeeOt47n1cXNy7SzPbfGQ5MeF1sbB14ynJWRf+lOSMwaGWZOJxIHiccZ/Fl64dmWsYu3N/DIIQDVwDg9yM6lkD/ij47f8v8sCYv9Gv85ieor4OzLFdzPjXYywOuf2MwwC57/LIBzEP7pwNsNXQctl+bLZFF+8jO1z1NG3qwDioJQVV9eiVAouFZyJZVl7RxGWyg/ynxNTEq9cMp0wyU2njNsnszo2kuj++ZBkZauGPpLIhy8YZEIQ3Np9IfKxZ2PKzsJ3wHBO/JFcYPpTkisGlgUSWbaVvM6Sn7M9vXCQQhEwm00qyv1f0crfVYniK+jIwz8FPjbUDZxxa0btU9dEOrIKsYKz10nNMlB5ThW5pVUV5WXr0lSd/jU31czPztHRVwRAKaioFfxh5FMAJutHSQh0tx67ds/92ukD3CChG43a+lgNs+VkWPtaZuDv8XFTkWo2tg/ye1dwkcFCHrRtPSQ6d0Sq+lEQ78LVTqyorfr95HF+mrc+9Hy3ryrIZa45FXIn9g3qK8iKocOhCtsCCYHAqXwaNtrN33vjwL3OZU4vOAlZbJ1UHMLII7G5KQshwk07uUaZrN4zX1dBRL8j7C7CKf+dq6mmy0Epst+BxTtrtKb+ORTZXaEH4SFDAlp/lybdBAb4DdVopW3h56j5+zjGxDMIobN14SjLEOb6Ibs1CTbu01H3ahtf6HjPsOA7NqCTqjd0TeXbrkLxbT0FooTzZUjhygTKjpeYFiyNrDe6G7l9dY6fK4nJUnAUMPZW+vR4f0keA4BaTrZbFZP0t/BLp31OR1GWUY0r4mZT8lPPnvg9z7MxGK0FGSbtt+04WZhps1YKPLMqebPlZuuRMtqpL1mKlybhJ4Dg6WzcrXpIcuyOISNcsJDP3kIjbN09vHt+RkfCPiw4IgdxKXdewjYmBMpHyeFux0xxG0rk6aS44RNU+fbuQ68SYR7VgzFNpe5WAa138XAKeDfWx25V8zdNgwqUKpnpyA9aHWhy01Ogd3n3/ehtZhPLCg2BxMI/288hwdbK8du/FWR6rh9S7Tpk9Rf/K16Rly89y+N9D/klu7fT1B14YfmufvQx3Xdm68ZTkjiGKFmrqcR+/iz+eB7mtj6msGaD4TsCCUx8iV/pfyAS3PZTEQFvPyILfN5aOsh/iMjs0d9iUXgqU+1tLxrAEFiwO5ctRbzZk2p8rSzwPxicenrn4chIrWM2w0vUOI4sA/gbPhphJP8ouuFXnZUEImkN2fSil578MstcAf9rJ/ztOj5+tQTSaeTufUp6TePWfQa2bkWs+bjTY8rOwnfBkCr8kTxhhN4JnOsxUOlHrbGVrwJWHbY6KiYmJ3jteH/iE3GVVzLHRatojt12/fzfyeOC07mpEhDz0VsxCBaS2YHHAs6Fj9wBKTA0yUctlVzRaER081pwNrBZFmg4As9JkrlTayteapbkYAkoSic1wNTaXvS1+XOjLFu9i1EA+1iyoePPsxsbGltJR+vXr1zwUN+GoMLI0IdnNNBRYDgg2cuxLof2GXCt5eYDGQw2gJJlMVm/y8uXzZ7AJZViAAzY8UDIyPD6y4kGSJDXByCJJ3hJYV95rlqKiordv37bGlBEjR4INU93a19f3/Pnz2HpuNTt37vwQF9fgL2DxVlJg23l3BFqBjbcMzlaAAzacwi1eDEYWMXVxU6qloqIC7kI+4S5btmxxdnbGLf7Jx8fHzMyMt0VgzcJbALZKFgMwskiWvwTRFs+kBXcimriLkpKSvLw8bnFNBQUFPJ/ONsuaRRBCYR8cDMDIgpJUXl6e0UJLYSH6w4biP2nxhD/UVXCXEAZgZEEdlZ6entJCy/v37/mctNh0CPRfp517r35PQ6niveOX5IAj/uGPg9KwigsDfEcWLjhSVU3lkPQD+Rt3zHeUvZPvkQ/FLGTQC14f9hs3cpT7shNxRfW+tMYiJupDPiYtJh0CLT18+vzInHJqg5EFv6So7a3Fp3JIpUP7utdRW0lvVlTtP+Wi4vSc6NV2xmrqpo4bH1dnUUCo0YaEsb/RViwO5f0aCxlCbZEbsDMjdLAcei5nt/cHBzAURop2GFkEcDYJk/SjsCoxfNsHuwPXDjt+3hb2vvpf/hGEmvE+vePio+f2TZG/efh2VoNzUwBlGu7C35qlXjoE2rdDs88N3jXfsMFf9MIvyUll/pTkhMCxjoRJpYMgRFPfazf9OrIbRP0a87nnwbhvz1YpHlkdnsbwFDVqasb4g9ooMBaH3H3D2xj/Tk7Hcml0WmnamXG6BnOj4oNs+m3+ED2nEguGokjTDiOL4N5mSdaR9e3pM62hDoaKuoMcDGJffK/Jz0IytHUZaKSs3MZuoLl80/4yIptd4E8p2zn3E/Z0CI8+7Zlze2zYwq7yDV0olK94JbmOjV9JrhDcGsh1qXS4iJDM3Oa6dlBT6zxh7P8UZMmoFPWWx6/J+1qjhzU7Zxxa3oM4bZ9JNUIIwgGsrlFKjhq6YKSEBoHMZEnWoVmYU6SmoQhg5JUU/xbUT9aBlCb90B5lqy0BbLOmQ9C5HzJlM60b9W74hecpzy/dSGK9zwO21m309LBpW3BJ1vVhP6LTRXmvyJJKh31YzNnf58lG3uPQhHNVN2b8mbanNcIqgsGpuOmpSSRpTblcyEn9OjBWEOk4loBrXVwdwZqsQ0NFQ/lvURlQtTS/UEVThY1WenHivfTuEwei31QEEk2+gUmLfznAmg7hm9WYXWeWDTRp00ZPTUFNV0eZ63+OEtSG7jiNS5KH9fiV5AHCsYk1lQ5HgepKesHzsymDlrrqEBCk6qrnH6/djFSV1a0IgsWRGwHuhqh/zo5nTcnDlGcFY9ZI1SvbFJAqyxttLGuyDlLbvtYZt++lF6ffv5/dx7pNHa30svT3iaR+Tlatsr+kFjBu3xs9sigB2NIhHJpiYz8YlCGjnEY5jexjJM91ZCWT/+GU5AIBwh+XFiFUs6bS4QpHL0l5+IzsNMtO6ce7hD8V/3nlzd6OZglk6cAFh6g5bGRf9qjLDib+bmcxUkiHdVNASIDSAAOeDdVP+iFr6elvEjnDyee22SJPCxmEmfSjqOzj6WVzF63wGTvYbrjvtbxWEkA3p3QIRLNZu2aZ4VEevyT2QhHFmgU806mfSgdBCk64Dtj08ICT/c5UMOeZqXR+xm5x/N/gkX30yESl/od+yV+cWei7rS6wYHHAs6EetqxJemgZoUMtlj95trKbw45rbGDKeJjD8iHZNdJoM9ZjfP7BBM+GMEk/CKq9fI9GxVw/4NNDBaylyYykHyqtOk/ZE/kATdoR8+DSol41yVywGghQw08XUUxafsZvWJZPFzQMyJQAz3QwqXQQtWmRZWC8iieL0B8ZYKbSMeqz8lEOFdTS6dT0/Q7KU4rpe1hSVWJxwLOh+CpUviZJD9Fg7r0KtKLiwWInNjDuSz2mki3yFUYW1K0KCixJftCKlrODS11SjBH/8CcpTIqDnjCyoF4wMDAY1HILsFD8J60ERUDAJ9waZABGlgYpavkCYFb//fv3Be7y9evXP3/+4BZ/kZ6eXlVV1SCP4h/+GjQBCtQyIILIUosND8SAARA1gBa8J21xcfGPHz/8cZczZ868evUKt7h/dHQ0wAdqwE16GICRRXp8zdVSFRUVc3Pz57hLQEDAiBEjcIs/nz59uqmpKdfhGQ3MCMg4hC8tgQEYWVqCF3nYIEEzlvfCioeNsEkMGYCRRQydIo0qgQiYm5v7UCKLIEq3eB/DyNLCXQxmLJ8WsuVnKU8MGdrerIOBbu91r8p4AlXiluQGU1BQwK0J1kscAzCyCOAyKoekH0jhk3U2GmRNm4BH+ayQnJOBsEqI/Ji/uwy2/CyaN4MeTXj05fP3y+ZBq2+x5TOpp3bhdbyS9TpWn/IfAas78n6jckilQ8uIWOY83HX7K/bHVRyqqa/dbAMY7sTiUL4c9RxsW1sc5l/4c8XfAT138Iv4zQGMt6ItrhVGFgFcSsIk/citfLHO69GE2Ly3nm+9Vz8srwPlmAykrln8jtjys6i6nrg8U6/q97PLbzo6dGf/agy76vgl2fuxnPEXAVk68jgkYVLpIAjRwDUwyM2o/qWPraa+DsyxXcz4UiIWh9x+xuHgccZ9l0c+iHlw52yArYaWy/Zjsy26eB/Z4aqNBeOhZItsqk9vizRSREaxJOtITbx6zXDKJDOVNm6TzO7cSKrJzyKikXHComJgLcDXjGXPz/KMgiDUuP3urrsqnIbqEVBAHjt+SSwI0BNbKbQallQ6+DGpLwPzHPzUWDtwxqEVvUtVH+3AKgiP6yJL7Euh/WyVcGkVT8Wy1Hq1LXlblh595clfY1P93Mw8LV30C2wKaioFfwo4JesQLiuiQmPNz6L7+HkOHSFZLryXneC0z+N4Qx+D4JfkqD1fEZAjAtdKllQ6XGXqN1BeBBUOXcgWWBAMTuXLoNF29s4bH2JS8tSH4+tcPK95YAJ+xeoiSx9ra7CBzuK2Aa3AJm5a6RW8+G/fIpNO7lGmazeM19XQUS/I+wuULP6dq6mnWUcrqGrWjd+1AGt+lrTuWrs7dd+ZSkGKv34u1dLi8YVK2peAjvgkm4MN1lQ6eMenPNlSOHKBMps4FkfWGtwN3b+6xk5VqC4HFzzY2MYWjxOgFdjw6CJUPvAM2HJkWJN1kLqMckwJP5OSn3L+3Pdhjp3Fila+1gJs+VlCp/1z3jNmZBv9boEml0+OacXdecT2K3FKcsHgNwJygeFcTTJzD4m4ffP05vEdedjA1pfyeFux0xwltjqECw5RtU/fLowEl+ziUn3WLFNA0hkHz4bqJ/2QG7A+1OKgpUbv8O7719vIIsykH3nAUvZkIKCiaTe+Zyx7fhaF7gsjP2Zkfn+xe6Qe72sFv2RTEkBNPe7jd/HH8yC39TGVNQMX3wlYcOpD5Er/C5k0pCaVDoKwVlPuby0ZwxJYsDjg2ZA3GzLtz5UlngfjEw/PXBzxmxWsZljpeud9tUgXF7itBc+GMEk/CJpDdn0opee/DLJHs1Iyk35oAEg1tmQgoKLJN77WLE2uXfWAfEfA6n4NvIFnOphUOojysM1RMTEx0XvH64PrvzqVDsJWTR56K2YhS2oNLA54NnTsHkCJiVpnK4tqQdRy2RWNVkQHu2qzgqGN0rcDZqXPaGixWDKgpaWlqanZuqUXYKO5ublYekCYSsHIIkw2xRALrAUkZc2irq7etWvXLi2xsNoEbAQxVAwvFeGqiw9a0QAAEABJREFUBCOLcPmUSLSKior09PQA3CUiIuLdu3e4xQPALUJOTk6D1EhEBGzQCijAZABGFiYPLfYVrFkatA3IEIlEedxFRkaGRCLhFpcnkxt+cAJ0aFBPKCBBDMDIIkHOElDVBtcCIEbo6+uvxl2cnJwsLS1xi6+2sbEBH540qH2DejaIAAXEhwEYWcTHFyLRhPdaQCRDCgQqKXoKZJw0doKRBfV6ZmamIDk2JKHP48ePJWUtICl6olcM3BtiAEYWlKGSkhL0De9O5fDVfORv3DHfUfZOvkc+FLPhcKtnExLdCf9rAbb8LDlRc9oRiK3kFC3XvWb5BjcHffNwS3LoLLIqKoeEF7Svex21lfRmRdX+6xxzeGweDGq0IWHsb7QVi0N5v8ZCBgTD6k1uwM6M0MFy6Jmc3d6f3JJqoFjSscPIgvoZXA/oG96dhPlqfmFVYvi2D3YHrh12/Lwt7H1FLRK3+lqBJjjgzzrW/CyeVWHbSoNzqWVFVzpsDrhL4a4s7dMhnJLcMUTRQsIkvEAQoqnvtZt+HUns43HIg0GNmpox/qA2KofFIXff8DbGv5PTsVwanVaadmacrsHcqPggm36bP0T76rzgklQDxZKOXUwji0SQTyLLttK3GdJT9ue3rG9Pn2kNdTBU1B3kYBD74ju12gAql/rqZnF8Y83PUtZxxd3jzhoEpDQjXdnMiMBdXyJuSe4Y/EVA7jgcWsiy8oomLpMd5D8lcmhFq6jYPBjUWx6/Ju9rjbbW7JxxaHkP4rR9JtUIIQgHsLpGKTmCkUVwR7N8pV6zMKdITUMRYMkrKf4tqP1KPZ1LPRBsoo3fuyFaqf7E3eHnoiLXamwd5IfmZ0GQojuzViqErOle7688BwvwS7J15ldJts54TqoqymsSXnARp2PyYFTdmPFn2h62wIJgcCpuemoSSVpTLheyJs7AgnEZtQVXw8gisHNZv1KvoaKh/LcITRRbml+ooqlSQyuBS73AgwrSka+1ACY/C/XHoeFexCMRk7UaGhu/JGckvvTkDMGllpIQMrwm4QUXEYJGvTwYVVc9/3jtZiSUq+2CxZEbAe6GqH/OjmdLnIEBq0WQnoOaKSA9FgvNUtav1JPa9rXOuH0vvTj9/v3sPtZtamjlVi80JYQOxJafxcqKfn1Cn91OUSdHqDU0Us41vJJYJFGvWVgTXmBHZ9TUz4NB/c8rb/Z2VUZb7QsXHKLmsJF9WVN51geruRxqgbAHLa5GGm1utBPBs6H6X82XtfT0N4mc4eRz22yRp4VM7Vfz69c3emwBAPhaC7DlZ9nb4XroU2JpuItFx46Ws64wck1zVoCe/h9OSc79RVULnunUT3iBIOyJLaoTXrDnwSCcn1nou60usGBxwLOhHra7kq95Gky4xPjEnpYROtRi+ZNnK7s57P1dL6mGqMwTY1wYWQRwDng2hPlqPkG1l+/RqJjrB3x6qIBPOsldVsUcG62CIPXqkaYufC8HWPOzaBp638rKTP2ElrhDLurclSfgluSEwbeSnEA41oFnOpiEFwh7YouahBdseTBkphTT97AklMPigGdD8VVAcXrZBTdGsj2iwdx7FWhFxQNfIwJ7Ug2OurXsShhZUP+C6wF9a6E7X2uW5uJAIpRsLnIkcVwYWVCvGRoamrbQ0rVrV9RCgfcm6diyI3uTUCh2g8DIgrqkVatWILi0yE1Vte7DAtRUcd3hmkVcPSOgXjCyCEicBHVrcNIWFRXFx8db4S5r1qy5du0abnGrsLCw1NRUCWIMqtp4BmBkaTyHYo2A50ZDRUXFzMwsHHfx8vLq378/bvFwJycnsB7kQRMeJXl0h01iyIDERhYx5FJcVWpwzQIUB/eD3XAXY2NjDQ0N3OLddHR0ZGUZWajBSFw2PEpy6QqrxZEBGFnE0StC1EkilgNMJalUaqF0lKqqKiG6WDyhYGQRT78IUys+lwNsWRRoCFL8aG6nSTfwKIRfEosGlPz27dt76SjPnj3DMtDCamBkEcCh1OqkHwQikSyvZmgxbH54XHH1N9LKP19YOtJCT1lJp6fnoVv/3fmQvL2vLIGk6xL+Df0CdNWzxWZkAkHeIfTeBitZMJ0IRCyGACoJrwtrFoWZJuWPlg2ddfZTXsN/Y0txS2J1Za5ZaDQQx7CNjaqh1qbSsbUfMtLNc0nIra+lTFdV/Hywf7mnq+NwF+8t114+jk2tSD83d7Ct3ZjVt7JQV1ES9k2yt7Ud4n/kuNdgW0apD9Eo1fjtLGHyMLII4DCSxZrYR0u7DA5OKSvLSYhYYvLMf9S8K3/oCD33uu+ogO+OoS8ycr/fW9vl55P4ApMlz8viA7u+WjMjJLESkem3I+l26KEPd+YO5oIhgD68ujAnLS+Jem2sWRRKEBmLFXf+m2tCrifE4RS/JIfOCAKCLCKCQjLxOLB7Ytsevmeioq4e+3eCfsK+FcFPCuj0wmchK45kW/uHXoo8v9Oj7e+41CKi4cTQqKPe7ZKPBl1Oq0LIXecd3+q3+Mj2mZwhRKBtS4KEkUVgbxLkFJVkZZQM+3jsPb1c7+rhyD/gD2TQbeugw74D2qjIyau17T9rx5JBsmAAgsrooCCjw54bXtTLXYfFYP49BX2Et/E1aetlUSCoayjhu0ZkcEtiLeM7/GEheNYQZORbyZAVtDsPX/iPu+aTa0/zMu+cjTWfvcTVUldRVk5Zz8Jp3sTujO8UEhT6z56tfX3L8cQyNkgMRIEIPMU2ooSf4LtqJNxIUatPMrHs0io783flp4QvOh3bK6HjUZM29UTvduQdDmSCa5Co57o3zOGuz7I7eZyX/DUYnFtRRMF2fictJouCYMPy3Yuv8Mc3em0Hkr5pO7n8nNyfaenqRoat0Hrqt5Pe6N3OkEVXc4CnEILmQL+lvV7vPBBbxNEZ1RD5HBtRQLijDMDIgrLQyJ2aFp9YYdhGj6xvpPPt5StwW4QgJPPVz695Gbkdj/TRJ6D4BOX+60/MSlvuezGD0zVZgyECh/A1aQtODum+8QsFofy8fDbNykqToTuqP9ddohqoWalpVVq6rTW11H99TGasO0htp4ZuHqk1aGWgc2umtQQFC89VTlkHQ2IYoaaegdUQmiLwVL2RJPoU0iOw++iVpaVVlNLM1yfnTw7KmTBntIaM5Qy//q9WuAdcTcopryhIS/1VyYYu03HOsQ0KOwOu1+bgxmIwr222bo064XfNwpZFYZ89uEMgKJr069Zg2idUSfySqDTLzq+SLF1xHdIpFeUUSnlO8p3dG88U2jn3Uzcd4dY1+dC/R558K6ioLM7KzKuX45ds7LxihtzFI89r7okwEOg32nENLqVCMLII4Hhq/IY+A7clRi9sJy+v0WVsyK+hYbeDh6sREGKb6aejgizf/DO4naqywcB91Enje8r82G3fY+78YV2WPq9CCDqjgw94tyUjCFcMROiFrzULwppFQQPVhWA48+Sm/uhRQzt+SSwSf0pi+3OpAR99+Sw49+3NHvchQ52mr7mc23vZNl9rZQJR1zFg+2yTz0cWuY90dFtwhepg10GGln3Z3zt499Lp+xMpCEGjv++iUbokhBsElxFhNZMBIvMNvvLDAMliDTPpB51GKc///joi0LW9PBOAoGzpEXIrPqu4orIkO+HmznFmMsYLHlbQ6ZQv2/qCBQCCKFmv3j3HjMQDg4kkTa+iW7OAZ0PMVDoxMffvXr9waKP3QEM5BrUEBdPhC7Yei7gVfe/OlfCt82wNSUSdsbujgeDpOV1A7EcQBfOpC5wNZE08uEAwcOALZwZacGThbLAY1BJlZBrOVS0sPUU3aYWlIRMHrFnIZMZ8Zp6LxyuRTG46V4mHycLSAkYWYTEpvjhg0oqvcgzNmOGvTZs2vaWj2NjYMOxuyS8wsrRk7wLbmJMWHPDeKBRKFe4ChGk0Gm5xVJD36KAVhD8ikaggHYVEavkrIRhZwFXdwjcwaXlbqKOj8+bNG0XcxcfH58yZM7jFFbdu3WpqaspDB5zhjwcCbEIQRKxIgJFFrNwhfGXAgqGiooI3romJCZjblbgLWLNQqVTc4pUAfPLkybx1aDD88e4OW8WNARhZxM0jQtZHVlYW3GUIGVTYcCD0CBsS4jUzAzCyNLMDRD28nJwcWFyAJYaoB2okPlyzNJJAcesOI4u4eUTI+qioqLRv3/758+dCxuUHDspKIQMwsrR8p48ZM+bKlSvibCe8GxJn7wimG4wsgvEmSb1cXFwiIiLE/IYI3g1J0iWFQ1cYWXCQJOEi3bt3B09/Vq9eLbZ2wDWL2LpGYMWkOrIIzJpkdQTLgXOMcvnyZbHVHCgptrpBxQRgAEYWAUiTvC6tW7cGYWXWrFmbNm0qKSkRNwPIZDKNRhPz+zVxI03M9YGRRcwdJDT1evbsGRsbm5iYCB4Vbd68+dSpU58/fxYaeuOAFBUVjYyMPnz40DgY2FuMGICRRYycIWpVTE1Nz5w5c/369czMzN27d9vY2ICa2bNnX7x4MS8vT9Sj88YHmgCteMvA1sYy0IT96yJL7MuXYGvCoSV7KMAV2CTRhh49euzZswesX37//h0ZGWlubn7ixAnwES9Y1KxYsSI6Orq8vJxpFzAQbMxjUb+Cz1nADZGoR5EUfEA72CRFW4561kWWPtbWYOMoBCuxDACuwIatl6yaLl26LFy48Nq1azk5OWAV06pVq/Xr12trazs4OGzZsoVIIvXq3btpLCoqKpKXr06f1TQjivMo4NICmzhr2KBudZGlQVEo0IIZAJ+h9u/ff+3atY8fPwZ3JX5+fr9+/Zo+fTqIMm5ubgcPHvz69avozM/NzQUfsgwYMEB0Q0DkJmYARpYmJlwChlNSUho1alRwcHACo7i4uDx//nzQoEHgjsnb2/v8+fNggSNcM8LCwoYOHQpWTMKFhWjNyACMLM1IvgQMraurO2XKlPDw8PT09Js3b1paWoLPgMHTJSsrq6VLl0ZFRZWV1WS3F9Saly9f7ty5MygoSFAA2E8cGYCRRRy9Ip46derUaf78+VevXgVrltDQUBUVlU2bNuno6Njb2wcGBoKPhAX4CBZ8hOzs7Hz48OF27dqJp9VQK8EYgJFFMN6kuheJROrbt29AQMDDhw+zsrLA4gXEGi8vLy0tLVdXVxB0vnz50iBBYKkydepUf3////77b/To0Q3KQwHJYgBGFp7+go0NMaCoqOjo6AhuZ+Li4pKSksDHva9fvx48eHDbtm1HjhwJHjDduHEDBKAnT568ePECPNIGD7znzZsHnkl5eHh07dr1/fv3IEg1NAhslzwGYGSRPJ+JrcbgzmjSpElHjx798eMH+AimV69eqampYAmzbt26lStXguUJCDTJycmdO3cGMuBg+fLlysrKYmsOVKwxDMDI0hj2YF+uDHTo0GH9+vWHDh0Ca5YHDx6Ah9ngARNYs+zbt8/X19fa2pprT9jQIhiAkaVFuBEaARkQDgNCQ4GRRWhUQgfLCFIAAA73SURBVCDIAGSglgEYWWqpgAeQAciA0BiAkUVoVEIgyABkoJYBGFlqqYAH4swA1E3CGICRRcIcBtWFDEgEAzCySISboJKQAQljAEYWCXMYVBcyIBEMwMjSSDfB7pAByAAHBmBk4UAKrIIMQAYayQCMLI0kEHaHDEAGODAAIwsHUmAVZAAywI0BnPUwsuAkCopBBiADfDAAIwsfZEFRyABkACcDMLLgJAqKQQYgA3wwIF2RJRb+Whsf1wYiRLqECMXNgmavlwYb8ZMsXZGljzX8tTb81wYiRLqECMWHAU0rKg024mdUuiILfl6gJGQAMtAYBmBkaQx7sC9kADLAmQEYWTjzIsRaCAUZkEIGYGSRQqdDkyEDImcARhaRUwwHgAxIIQMwskih06HJkAFRMsDAhpGFQQN8gQxABoTKAIwsQqUTgkEGIAMMBmBkYdAAXyADkAGhMgAji1DphGDizADUrQkZgJGlCcmuGao05lDQiQgO5dyWxWtvZtNq5Jrlnfbzw4dfLCpk7XUZtOlNRX1dKqL9Rqx4VMKsrow/tCrkRQHzpPaVlv01tRCc0TISEn7TaBlfU1Hx0s9xyX9BLXYr+P6dAUH5cGTt/tj8agFabmpqLg0pjHuVVIpU3FwxbV8ipbqJ0xvt9+3dux/8ZjEAI0X9fv3QhaRyTD2sECYDMLIIk02cWNS4I2d/9Bg0aFDX1NBtH4xtwNH//vc/8GpVFhOdJsfmk9J3e8Z2VlfUtPA49RU7o3i3IlW/nof5DR++4TW2J1dViZo5u2wG7ktjzk1aSmjwKyunbnIIQkm9fPRWXcwp+5ZVrCaH0CiVlRX0DsN17m6LyK0oTf0v7NpPZlekKi5wsufOU6fDVrnPDE8rfbxk/LzDp09u83X/90Fx9fCVSRe2bg4J3Y+WkKkdOyxBNaVmXDt8PUO2WoTycf1Ix392zRsxZt8XCjX39c/SNmSkNHL5lNX79i1zmbCHKUbLzsymoodE7f560QvWxFaiJ2AvLqwZC5yADehGatNf97rbiOAkKlJxf5WL74U0Rk/QCDfhMcB2FQsPFiLxYoBAIssrqGmqZZ8+8VVfJe5G5NmV9lbzH5PU1VrJyMmSWbpSPt162Sboxbc3O7o8XB/6soqlCRzybkWQqrcHl60/HvO9jA6EcW8KgxZ7m+fnplzZum5r8IJRGyuHGj85FBoauvfUy7i4Nxk0hJIVF3P/QVx6TtrtDbP9g4L9p0xbHano4pg3q7vV2s8I5XfNcoMsq2Ph6D55bE/TtiZ6RJKsQQ/Xye4Onc2MjRSqtZE1H79s5cK5c9Ay06ZNW9NOqPUksqKiEnrAkCLL6vVynTG0cwcDlcwf+aVlf+4fOf7i+8sfmh4eOsV5agwZasKuhUsPHmWUi0VDZ1kmnWIcH/C2UrMNTmXIoC+VbyIjU6iI+gjf8fpFpXRK0u2IL6odjUhoG9yFygCMLEKlkw8welbEGWTVP+Zlpg5a7+J77d8/Wg3rDHL7MbNGm6mqdhxq262DmWG9GcC7FUFkrNc+fLyurwwfWqGiZIule5Z27+CybN00+Thk/jnnlAvJJu5z/dZsDV4+0oiIkBUUVFW01JVaKbcfu8Bn2uxd/kpnT1Gdh9GK9eau9Z86rKsmwiyVFdlJt8+ejkgsKU//VEiTz3u8IyjsUYGqDlgBMSUQyuv14z0CGYuWI49+lFcx7rqIREJ1M3gjEuk5byOORqeUVqQ9vReXnZddrq3bqpLIwgUtbY9XaOXoGdVlpu/8ucxDlzaWi1/c9zMBMMxNtptpbvT9QoTcZ92pNb0In6/eVxo/tWttEGMKwVdhMEAUBgjE4J8BSmqi+tTVE6e7FPoaL1HYfshVm6MriGBilfx4fOCfmP9tnNGmvgjvVv6VQpCKuDNbAre6G6hOvleQcmj8ajKIfX+T84lGMqln1oc8K2FgqppZ9epqrKHS2kT7z/PLp8LeGQ/Ve75711ezYTJ3Nk0ZPv34N3DPQaUgvQKvHJs7zm3qSreK0H+ud9t/d7f15/9yvNa2vRpyH3x0gmKVv7nxQWeCD7pmmbftZvhUVVBJAAW81Ww0YuserjMczBRV+7h72pkYdR3cxVBBiS34tPM5ctQ+4/gRxjrlSPD69cGMw9CNWw8/+JzPeq9D7jJU+dmJOMbdIfXj+SjV6Z4dWGJUzZjwvdEM1L9WGw0IAfAxQDZ1cND5cGB+UOGkHUPifUfPCbke97uSw20LJW7rKPu5xy5snr35ZSkGm3crRrzBCjnLSStWzbNra9yuvWxJqbn7yMrIc4/Sfry7cuZ+qaF6eXbNxxe03Iz0xLsHL5b09Z43d7abyrPLWa47Q5fPnbf+4qOzHm2JSGnyzROR92JuXr0UPGVkWFv/aapP/p2x/K3NTOusN5WmxkgOw5bfl09/79xfrbgQlJLW5N9vP6GLFraLkkan0Rm0VKVd3LQkJDbhecjJs/eTmDGuxh55C7eFc8a5jEOXKhMIN24QJqBHc3c+iLswtS1b5CAajB2cHxaWQkXKH+69ZTJ/ijHbaDWA8L2xDEBaG8ugQP1p2bEnd20Mfdd5vn/vX+8q3Lastozf6rPw5McS8NeeHZHcbe2LjITr//T6djDscc3ErhXh3VorJsiBfDe/A3sXe3lNG9rJtNc4Ly+vqb2+nTnzkULLOuHaWt0+NEXPdqjx97vHQ/et8dhHGdE57njwpvWBQfPsB614WoIodBnt7eluq/Xt/qc+B+4emDNhvNemPTMUH0Y8zlIwH+Rk31EJ6ESjqQ+c2DPvxlW0ROyYO3FlJLrcQVhuhsCnReW/E66FR6dUtXOd1UnRdJqf15KNs3sqsckALGrSOotOi9+xMFSZEn07AfsISL6fz4C4Nbuu7NqSOu4fJ+bnNKA/3ITLAM/IItyhIFodA0Sd3lP9/1ky1kSxw9Sglf3Kc41nhT16dnamuSIHhxAVtLuM/GetuwFoo7wN6CoD7hYIMl0D3jLW9Lxb64bk84iScmn7lhDwwW1o2I2E5Oen94eGHo7KkSn9kY7ojd37LvXtJlsNGZNRcxf4jKh6Ib/u2dnFXuav9t838Np3/+GW/oqUX68jjwW62i5K7T1Y94b7iG0J99bO3J5i4GBTFupsYdZr6vFE8OiZqDt6Y0iA5zRGGaVBNZs4pT0wkk1Vek6piYu/l4OZAj3jTFzv4FVlwTO3JlKY6xgWybK4BLrtCHP0kRI14yn6Ae6RSzFPnr8rYJFhHhK1XZdYXR6zp82K+Z3Y1jPMZvgqFAbq+1EooBCkYQbQP7lk0t/4s/9Mn7Nlf8j+uzUPVDh1pf39evPS1/5j+8qSe/ybUEUHpSrh3x7VnzzybuWEx7OO8vPu06zC7IohS1YsnAuKl0N7/e5jZ8+dO89v2fK5w8CdjqK+kWbNlKRlP03W6l51euOGybMSvEInV396S1XqNMxjpm0n8+HTJ7tZKckpalel5yrZuU/x8RxmP//Wu5MeXdBFC4siJXfvFPRx0MFckIVf5PX6KAC6Kh6tDHn4+eS2OOVfm2adL0q/t9Jp1UsV3WqIv9HXi/qavr4QV05HSAb9p4C7oTkrNm707otZlNDyngQtezpg1/S0Je7Bsfm0agD4JlwGMI4ULjxE48gAnZr7+fG9ew/eZMp3dvRes3NV//xHN6Pv3XuaklvB+nkjPfvCFONWMq20rLyjem0JHKrChsa7FYjSvu6w6egXE7+lX9eVrxgLHFDJe6t8vaqD+Z7BT5Nnx81xHOe349T1h28L2vUw+Zv6+WNc7JM7V29/yEdohb//lFVVMp6BE/UmHzi7+n8FFw+lGKleHD/U78Jn9KMSOSUlOYRW9Tft8fnTF599L6VQabQ/H66fOX02+lN+JZXVSFpa9LGjZ44uXf2m33RrdMmBUGlVVQxwoOvfe78MxvVBq+X+t/r4iQP7A5cGHDz7T095/cH/no57e3QIkEEQ2ueDJ1stObh2qvIJd49jSYV/vmUVomqgjbTKujukyp/3dvqviu685fxWv8ArRx1iJnbt773r5udCGF9QqoS5w8giTDZxYlEqCSr6bdrWlo6281bN/F+7tm2N9Y111atXIigWQWf8qR9lVWW5X+6HenRVRKtYdt6tQJBouvhZBR2UquTNvVlgQRO3TbaH3724iOlt1W2Wn7u4wY76/Nh6vz0Pnu506fu/fgOHjA9OM+6kjiCVKcedx99oY02NObpl9aLZ01Y+G3T567t7j+JvzcqYabvgdU0U0+/n5j4ZlFkuVrJyBn1GjZ80edKEKRNsDVmVIbazHVgStuzukPC9gxmPo+mVFESWuSaiZd0r6jtTL2LeII9o2Q5dB/TVBT3JHUcMb0unIGT9jh1UUUOK34WfVVyye6IWSd9l++ktG1YPeOs5sJOOkqKCLIFo5nHuMwg9xSmPrpw+dPguxTnwwLoxZuhASt3nXXkT6YmcndbHdsGlr2j8QdHgLhQGYGQRCo38gajNi3m+xtIUW3ptuHd5gjx/YEKWJmq3a8eYrgii1Nl52b7L918np/7M/J2bl19QmHnLzxzMSaJWvyUPKqiRrnrmYxZt2nnwVPi/YzuAeoRoPPFi/o99vcD0B2qB5cz6ReCY3MdrzgDNwRtDpukREVKnqUsnmpBAc91GNp1/P+fLoTG6zKtRbsjZ5PPDUDyEqDFk+vhOXd333MzMujq25v/rEKTVmPMXfWtvp0jtJ6716VuttUKH0SvDbr76klXwt6S0kk5LOTmtK4LQaZrdnCbPmjdjmClbgFbvOetw7O/cN3vdTGXrFIJHjWeA6cvG40AEfhiQk5P4y5hIJCJKuvrqGEPIZDI/VHCSla2jR06BGWG09HRZRyJq6evVnSso1cUcTnigjqSqrsoezkBlzUYkwWlQw4XQ3iWA0lj482NCczd/QNLAvDTYyJ/XeUrjp0sCIgv8gSgE4eltkTVKA/PSYKMQLxD8dElAZBEiLxAKMgAZaBoGYGRpGp7hKJAB6WIARhbp8je0FjLQNAw0MrI0jZJwFMgAZEDCGICRRcIcBtWFDEgEAzCySISboJKQAQljAEYWCXMYVLd5GYCj42QARhacREExyABkgA8GYGThgywoChmADOBk4P8AAAD//4aOGIoAAAAGSURBVAMA50P8eGnBdskAAAAASUVORK5CYII=;" vertex="1" parent="1">
          <mxGeometry x="440" y="268" width="371" height="887" as="geometry" />
        </mxCell>
      </root>
    </mxGraphModel>
  </diagram>
</mxfile>
